<?xml version="1.0" encoding="UTF-8"?>
<svg width="41px" height="40px" viewBox="0 0 41 40" version="1.1" xmlns="http://www.w3.org/2000/svg" xmlns:xlink="http://www.w3.org/1999/xlink">
    <title>email__icon</title>
    <g id="Page-4" stroke="none" stroke-width="1" fill="none" fill-rule="evenodd">
        <g id="PopUp" transform="translate(-706.000000, -702.000000)">
            <g id="Group-16" transform="translate(538.000000, 702.000000)">
                <g id="email__icon" transform="translate(168.500000, 0.000000)">
                    <path d="M0,20 C0,8.954 8.955,0 20,0 C31.045,0 40,8.954 40,20 C40,31.045 31.045,40 20,40 C8.955,40 0,31.045 0,20" id="Fill-18" fill="#E20714"></path>
                    <path d="M30.3022,25.4756 C30.3022,26.1446 29.7622,26.6856 29.0932,26.6856 L11.3512,26.6856 C10.6812,26.6856 10.1412,26.1446 10.1412,25.4756 L10.1412,14.5966 L17.9722,20.7826 C18.6332,21.3066 19.4312,21.5646 20.2222,21.5646 C21.0122,21.5646 21.8102,21.3066 22.4722,20.7826 L30.3022,14.6046 L30.3022,25.4756 Z M29.0932,10.8946 L11.3512,10.8946 C9.3512,10.8946 7.7212,12.5236 7.7212,14.5236 L7.7212,25.4756 C7.7212,27.4756 9.3512,29.1046 11.3512,29.1046 L29.0932,29.1046 C31.0932,29.1046 32.7222,27.4756 32.7222,25.4756 L32.7222,14.5236 C32.7222,12.5236 31.0932,10.8946 29.0932,10.8946 L29.0932,10.8946 Z" id="Fill-20" fill="#FEFEFE"></path>
                </g>
            </g>
        </g>
    </g>
</svg>