<?xml version="1.0" encoding="UTF-8"?>
<svg width="41px" height="40px" viewBox="0 0 41 40" version="1.1" xmlns="http://www.w3.org/2000/svg" xmlns:xlink="http://www.w3.org/1999/xlink">
    <title>telegram__icon</title>
    <g id="Page-4" stroke="none" stroke-width="1" fill="none" fill-rule="evenodd">
        <g id="PopUp" transform="translate(-624.000000, -702.000000)">
            <g id="Group-16" transform="translate(538.000000, 702.000000)">
                <g id="Group-12" transform="translate(85.500000, 0.000000)">
                    <g id="telegram__icon" transform="translate(1.000000, 0.000000)">
                        <path d="M20,0 C8.954,0 0,8.954 0,20 C0,31.045 8.954,40 20,40 C31.045,40 40,31.045 40,20 C40,8.954 31.045,0 20,0" id="Fill-10" fill="#41B1E5"></path>
                        <path d="M29.9497,10.9999968 L26.2037,30.126 C26.2037,30.126 26.0427,30.9999968 24.9587,30.9999968 C24.3827,30.9999968 24.0857,30.726 24.0857,30.726 L15.9717,23.993 L12.0017,21.992 L6.9067,20.637 C6.9067,20.637 5.9997,20.375 5.9997,19.625 C5.9997,18.9999968 6.9327,18.702 6.9327,18.702 L28.2487,10.234 C28.2477,10.233 28.8997,9.999 29.3747,9.9999968 C29.6667,9.9999968 29.9997,10.125 29.9997,10.4999968 C29.9997,10.75 29.9497,10.9999968 29.9497,10.9999968" id="Fill-12" fill="#FEFEFE"></path>
                        <path d="M19,26.5049 L15.574,29.8789 C15.574,29.8789 15.425,29.9939 15.226,29.9989 C15.157,30.0009 15.083,29.9899 15.007,29.9559 L15.971,23.9909 L19,26.5049 Z" id="Fill-14" fill="#AFBDC4"></path>
                        <path d="M25.897,14.1958 C25.728,13.9758 25.416,13.9358 25.196,14.1028 L12,21.9998 C12,21.9998 14.106,27.8918 14.427,28.9118 C14.749,29.9328 15.007,29.9568 15.007,29.9568 L15.971,23.9918 L25.803,14.8958 C26.023,14.7288 26.064,14.4158 25.897,14.1958" id="Fill-16" fill="#CED7DB"></path>
                    </g>
                </g>
            </g>
        </g>
    </g>
</svg>