<?xml version="1.0" encoding="UTF-8"?>
<svg width="127px" height="40px" viewBox="0 0 127 40" version="1.1" xmlns="http://www.w3.org/2000/svg" xmlns:xlink="http://www.w3.org/1999/xlink">
    <title>DBS__logo__on__dark</title>
    <g id="Page-4" stroke="none" stroke-width="1" fill="none" fill-rule="evenodd">
        <g id="Solutions" transform="translate(-118.000000, -25.000000)" fill-rule="nonzero">
            <g id="DBS__logo__on__dark" transform="translate(118.000000, 25.000000)">
                <path d="M10.1795143,3.7592397 L8.84899683,3.7592397 C8.63780359,3.73812038 8.468849,3.54804646 8.468849,3.33685322 C8.48996832,3.1467793 8.63780359,2.97782471 8.84899683,2.95670539 L10.1795143,2.95670539 C10.3907075,2.97782471 10.5596621,3.16789863 10.5596621,3.37909187 C10.5385428,3.56916579 10.3907075,3.73812038 10.1795143,3.7592397" id="Path" fill="#FFFFFF"></path>
                <path d="M57.3812038,3.95271207 L54.5723337,3.95271207 C54.3611404,3.97891149 54.1499472,3.76931613 54.1499472,3.48112251 C54.1499472,3.19292889 54.2977825,2.9571341 54.530095,2.9571341 C54.5512144,2.9571341 54.5723337,2.9571341 54.593453,2.9571341 L57.4023231,2.9571341 C57.6135164,2.98333352 57.782471,3.21912831 57.782471,3.48112251 C57.7402323,3.71691729 57.5712777,3.92651265 57.3812038,3.95271207 M50.6441394,3.95271207 L47.8352693,3.95271207 C47.624076,3.92651265 47.4551214,3.69071787 47.4551214,3.42872367 C47.4762408,3.19292889 47.624076,2.98333352 47.8352693,2.9571341 L50.6441394,2.9571341 C50.8553326,2.98333352 51.0242872,3.21912831 51.0242872,3.48112251 C50.9820486,3.71691729 50.8342133,3.92651265 50.6441394,3.95271207 M43.8859556,3.95271207 L41.0770855,3.95271207 C40.8658923,3.92651265 40.6969377,3.69071787 40.6969377,3.42872367 C40.718057,3.19292889 40.8658923,2.98333352 41.0770855,2.9571341 L43.8859556,2.9571341 C44.0971489,2.93093468 44.3083421,3.14053005 44.3083421,3.42872367 C44.3294615,3.69071787 44.1605069,3.95271207 43.9281943,3.95271207 C43.9281943,3.95271207 43.907075,3.95271207 43.8859556,3.95271207 M37.1488912,3.95271207 L34.3400211,3.95271207 C34.1288279,3.97891149 33.9176346,3.76931613 33.9176346,3.48112251 C33.9176346,3.19292889 34.0654699,2.9571341 34.2977825,2.9571341 C34.3189018,2.9571341 34.3400211,2.9571341 34.3611404,2.9571341 L37.1700106,2.9571341 C37.3812038,2.98333352 37.5501584,3.21912831 37.5501584,3.48112251 C37.5079197,3.71691729 37.3600845,3.92651265 37.1488912,3.95271207 M30.4118268,3.95271207 L27.6029567,3.95271207 C27.3917635,3.92651265 27.2228089,3.69071787 27.2228089,3.42872367 C27.2439282,3.19292889 27.3917635,2.98333352 27.6029567,2.9571341 L30.4118268,2.9571341 C30.6230201,2.98333352 30.7919747,3.21912831 30.7919747,3.48112251 C30.7708553,3.71691729 30.6019007,3.92651265 30.4118268,3.95271207 M23.6747624,3.95271207 L20.8658923,3.95271207 C20.654699,3.92651265 20.4857445,3.69071787 20.4857445,3.42872367 C20.5068638,3.19292889 20.654699,2.98333352 20.8658923,2.9571341 L23.6747624,2.9571341 C23.8859556,2.93093468 24.0971489,3.14053005 24.0971489,3.42872367 C24.1182682,3.69071787 23.9493136,3.95271207 23.7170011,3.95271207 C23.7170011,3.95271207 23.6958817,3.95271207 23.6747624,3.95271207 M16.937698,3.95271207 L14.1288279,3.95271207 C13.9176346,3.97891149 13.7064414,3.76931613 13.7064414,3.48112251 C13.6853221,3.21912831 13.8542767,2.9571341 14.0865892,2.9571341 C14.1077086,2.9571341 14.1288279,2.9571341 14.1499472,2.9571341 L16.9588173,2.9571341 C17.1700106,2.93093468 17.3812038,3.14053005 17.3812038,3.42872367 C17.4023231,3.69071787 17.2333685,3.95271207 17.001056,3.95271207 C16.9588173,3.95271207 16.9588173,3.95271207 16.937698,3.95271207" id="Shape" fill="#FFFFFF"></path>
                <path d="M62.6399155,5.08975713 C62.4287223,5.08975713 62.2386484,4.92080253 62.2386484,4.68848997 C62.2386484,4.68848997 62.2386484,4.68848997 62.2386484,4.68848997 L62.2386484,3.7592397 L61.3093981,3.7592397 C61.0982049,3.78035903 60.8870116,3.61140444 60.8870116,3.37909187 C60.8870116,3.1467793 61.0348469,2.95670539 61.2671595,2.95670539 C61.2882788,2.95670539 61.3093981,2.95670539 61.3305174,2.95670539 L62.6610348,2.95670539 C62.8722281,2.95670539 63.062302,3.12565998 63.062302,3.35797254 C63.062302,3.35797254 63.062302,3.35797254 63.062302,3.35797254 L63.062302,4.68848997 C63.0411827,4.89968321 62.8511088,5.08975713 62.6399155,5.08975713 L62.6399155,5.08975713" id="Path" fill="#FFFFFF"></path>
                <path d="M62.6399155,12.6504752 C62.4287223,12.6504752 62.2386484,12.4815206 62.2386484,12.249208 C62.2386484,12.249208 62.2386484,12.249208 62.2386484,12.249208 L62.2386484,9.10242872 C62.2386484,8.89123548 62.407603,8.70116156 62.6399155,8.70116156 C62.8511088,8.70116156 63.0411827,8.87011616 63.0411827,9.10242872 C63.0411827,9.10242872 63.0411827,9.10242872 63.0411827,9.10242872 L63.0411827,12.249208 C63.0411827,12.4604013 62.8511088,12.6504752 62.6399155,12.6504752 L62.6399155,12.6504752" id="Path" fill="#FFFFFF"></path>
                <path d="M12.6504752,32.3970433 L12.6504752,8.3843717 L17.8669483,8.3843717 C19.6409715,8.3843717 21.0559662,8.65892291 22.0908131,9.20802534 C23.1045407,9.73600845 23.8859556,10.6019007 24.3083421,11.6578669 C24.7518479,12.7560718 24.9841605,14.1077086 24.9841605,15.7127772 L24.9841605,24.5406547 C24.9841605,26.25132 24.7518479,27.687434 24.3083421,28.8489968 C23.907075,29.9472017 23.1467793,30.8975713 22.1541711,31.5100317 C21.1615628,32.1224921 19.8099261,32.4181626 18.1414995,32.4181626 L12.6504752,32.4181626 L12.6504752,32.3970433 Z M16.0084477,30.0105597 L17.9091869,30.0105597 C19.1341077,30.0105597 20,29.7782471 20.5279831,29.2925026 C21.0348469,28.8278775 21.3516367,28.1309398 21.4572334,27.2228089 C21.5839493,26.124604 21.626188,25.0263992 21.626188,23.9281943 L21.626188,16.1140444 C21.6473073,15.1003168 21.56283,14.0865892 21.3938754,13.093981 C21.2460401,12.3336853 20.8870116,11.7634636 20.3590285,11.4044351 C19.8310454,11.0454065 18.9862724,10.876452 17.8458289,10.876452 L16.0295671,10.876452 L16.0295671,30.0105597 L16.0084477,30.0105597 Z" id="Shape" fill="#FFFFFF"></path>
                <path d="M28.468849,32.3970433 L28.468849,8.3843717 L33.9809926,8.3843717 C34.9313622,8.36325238 35.9028511,8.48996832 36.810982,8.74340021 C37.5501584,8.95459345 38.2470961,9.31362196 38.8173178,9.84160507 C39.3664203,10.3695882 39.7676874,11.0031679 40,11.7212249 C40.2745512,12.5871172 40.4012672,13.4952482 40.3801478,14.4033791 C40.4012672,15.2692714 40.2745512,16.1351637 40,16.9799366 C39.7888068,17.6346357 39.4086589,18.2259768 38.8806758,18.6906019 C38.3104541,19.1341077 37.655755,19.4086589 36.937698,19.4931362 C37.8035903,19.6620908 38.6061246,20.0422386 39.281943,20.6124604 C39.8944034,21.1615628 40.3379092,21.8585005 40.5913411,22.6399155 C40.8870116,23.5902851 41.0348469,24.6040127 41.0137276,25.5966209 C41.0137276,26.5469905 40.9081309,27.4973601 40.654699,28.405491 C40.4435058,29.2080253 40.063358,29.9472017 39.5353749,30.5807814 C39.0073918,31.1932418 38.3526927,31.6578669 37.6135164,31.9535375 C36.7265048,32.2914467 35.7972545,32.4604013 34.8468849,32.4392819 L28.468849,32.3970433 Z M31.8268215,18.3949314 L33.812038,18.3949314 C34.7624076,18.3949314 35.5015839,18.2682154 36.0295671,17.9936642 C36.5575502,17.719113 36.9588173,17.2756072 37.1488912,16.7053854 C37.3812038,15.9450898 37.5079197,15.1636748 37.4868004,14.3822598 C37.4868004,13.2840549 37.3178458,12.4815206 36.9799366,11.9746568 C36.5997888,11.467793 36.0295671,11.1298838 35.4171067,11.0454065 C34.4878564,10.8975713 33.5586061,10.8342133 32.6293559,10.8553326 L31.8268215,10.8553326 L31.8268215,18.3949314 Z M31.8268215,30.0105597 L34.0865892,30.0105597 C35.5860612,30.0105597 36.5997888,29.6515312 37.1066526,28.9545935 C37.6135164,28.2576558 37.8669483,27.1172122 37.8669483,25.5543823 C37.8880676,24.68849 37.7613516,23.8225977 37.4656811,23.0200634 C37.2333685,22.3864836 36.7898627,21.8373812 36.1985216,21.4783527 C35.6071806,21.1404435 34.8257656,20.9503696 33.8331573,20.9503696 L31.8479409,20.9503696 L31.8268215,30.0105597 Z" id="Shape" fill="#FFFFFF"></path>
                <path d="M49.6726505,32.6715945 C48.2787751,32.6715945 47.1383316,32.375924 46.2090813,31.7845829 C45.279831,31.1932418 44.561774,30.3273495 44.1182682,29.313622 C43.6114044,28.1520591 43.3368532,26.9271383 43.2734952,25.6599789 L46.2302006,24.8574446 C46.2935586,25.6810982 46.4202746,26.5047518 46.6314678,27.3284055 C46.8004224,28.0464625 47.1594509,28.7222809 47.6451954,29.2713833 C48.1309398,29.7782471 48.7856389,30.031679 49.6304118,30.031679 C50.4751848,30.031679 51.1298838,29.7782471 51.594509,29.313622 C52.0380148,28.8278775 52.2703273,28.1309398 52.2703273,27.2228089 C52.2703273,26.124604 52.0168955,25.2587117 51.531151,24.6040127 C50.9820486,23.8859556 50.3484688,23.2101373 49.6515312,22.5976769 L45.6388596,19.0496304 C44.8996832,18.4160507 44.3083421,17.655755 43.907075,16.7687434 C43.5058078,15.8183738 43.3157339,14.7835269 43.3368532,13.74868 C43.3368532,11.9957761 43.843717,10.6230201 44.8574446,9.65153115 C45.8711721,8.68004224 47.2439282,8.19429778 48.9757128,8.19429778 C49.8204857,8.17317846 50.6652587,8.2998944 51.4889124,8.57444562 C52.1858501,8.80675818 52.7983105,9.18690602 53.3051742,9.71488912 C53.812038,10.2851109 54.2133052,10.9398099 54.4667371,11.6578669 C54.7835269,12.5448786 54.9736008,13.4741288 55.0369588,14.4033791 L52.1858501,15.1636748 C52.1436114,14.4244984 52.0168955,13.7064414 51.8268215,12.9883844 C51.6789863,12.375924 51.3621964,11.8268215 50.8975713,11.3833157 C50.4540655,10.9820486 49.8204857,10.7708553 48.9757128,10.7708553 C48.1309398,10.7708553 47.4973601,11.0031679 47.032735,11.4466737 C46.5681098,11.8901795 46.3357973,12.5448786 46.3357973,13.4107709 C46.3146779,14.0443506 46.4413939,14.656811 46.7159451,15.2270327 C47.032735,15.7761352 47.4340021,16.2618796 47.9197466,16.6842661 L51.9746568,20.2534319 C52.9039071,21.0770855 53.7275607,22.0274551 54.3822598,23.0834213 C55.1003168,24.2661035 55.4593453,25.6177402 55.4171067,26.9904963 C55.438226,28.0675818 55.1847941,29.123548 54.6779303,30.0527983 C54.2133052,30.8975713 53.4952482,31.5733897 52.6504752,32.0168955 C51.7423442,32.4604013 50.7286167,32.6927138 49.6726505,32.6715945" id="Path" fill="#FFFFFF"></path>
                <path d="M76.0506864,32.6715945 C74.656811,32.6715945 73.5163675,32.375924 72.5871172,31.7845829 C71.6578669,31.1932418 70.9398099,30.3273495 70.4963041,29.313622 C69.9894403,28.1520591 69.7148891,26.9271383 69.6726505,25.6599789 L72.6293559,24.8574446 C72.6927138,25.6810982 72.8194298,26.5047518 73.030623,27.3284055 C73.1995776,28.0464625 73.5586061,28.7222809 74.0443506,29.2713833 C74.530095,29.7782471 75.1847941,30.031679 76.0295671,30.031679 C76.87434,30.031679 77.5290391,29.7782471 77.9936642,29.313622 C78.43717,28.8278775 78.6694826,28.1309398 78.6694826,27.2228089 C78.6694826,26.124604 78.4160507,25.2587117 77.9303062,24.6040127 C77.3812038,23.8859556 76.7476241,23.2101373 76.0506864,22.5976769 L72.0168955,19.0496304 C71.2777191,18.4160507 70.686378,17.655755 70.2639916,16.7687434 C69.8627244,15.8183738 69.6726505,14.7835269 69.6937698,13.74868 C69.6937698,11.9957761 70.2006336,10.6230201 71.2143611,9.65153115 C72.2280887,8.68004224 73.6008448,8.19429778 75.3326294,8.19429778 C76.1774023,8.17317846 77.0221753,8.2998944 77.8458289,8.57444562 C78.5427666,8.80675818 79.155227,9.18690602 79.6620908,9.71488912 C80.1689546,10.2851109 80.5702218,10.9398099 80.8236536,11.6578669 C81.1404435,12.5448786 81.3305174,13.4741288 81.3938754,14.4033791 L78.563886,15.1425554 C78.5216473,14.4033791 78.3949314,13.6853221 78.2048574,12.967265 C78.0570222,12.3548046 77.719113,11.8057022 77.2756072,11.3621964 C76.8321014,10.9609293 76.1985216,10.749736 75.3537487,10.749736 C74.5089757,10.749736 73.875396,10.9820486 73.4107709,11.4255544 C72.9461457,11.8690602 72.7138332,12.5237592 72.7138332,13.3896515 C72.6927138,14.0232313 72.8194298,14.6356917 73.093981,15.2059134 C73.4107709,15.7550158 73.812038,16.2407603 74.2977825,16.6631468 L78.3526927,20.2111932 C79.281943,21.0348469 80.1055966,21.9852165 80.7602957,23.0411827 C81.4783527,24.2238648 81.8373812,25.5755016 81.7951426,26.9482577 C81.8162619,28.0253432 81.56283,29.0813094 81.0559662,30.0105597 C80.5913411,30.8553326 79.8732841,31.531151 79.0285111,31.9746568 C78.0992608,32.4604013 77.0644139,32.6927138 76.0506864,32.6715945" id="Path" fill="#FFFFFF"></path>
                <path d="M88.8701162,32.6504752 C87.6029567,32.6504752 86.6103485,32.3970433 85.8711721,31.8901795 C85.1108765,31.3621964 84.561774,30.5807814 84.3083421,29.6937698 C83.9704329,28.6166843 83.8225977,27.4762408 83.843717,26.3357973 L83.843717,21.3305174 C83.8225977,20.1900739 83.9704329,19.0707497 84.3083421,17.9725449 C84.561774,17.0855333 85.1108765,16.3252376 85.8711721,15.7761352 C86.6103485,15.2692714 87.6029567,14.9947202 88.8701162,14.9947202 C90.1372756,14.9947202 91.1298838,15.2481521 91.8479409,15.7761352 C92.5871172,16.3252376 93.1362196,17.0855333 93.3896515,17.9725449 C93.7064414,19.0496304 93.875396,20.1900739 93.8542767,21.3305174 L93.8542767,26.3146779 C93.875396,27.4551214 93.7275607,28.5744456 93.3896515,29.6726505 C93.1362196,30.5596621 92.5871172,31.3199578 91.8479409,31.8690602 C91.1087645,32.3970433 90.1161563,32.6504752 88.8701162,32.6504752 M88.8489968,30.3062302 C89.4614572,30.3062302 89.8838437,30.1372756 90.1372756,29.7782471 C90.4118268,29.3558606 90.5596621,28.8701162 90.5807814,28.3632524 C90.6230201,27.7719113 90.6652587,27.1805702 90.6652587,26.5469905 L90.6652587,21.1826822 C90.6652587,20.5279831 90.6441394,19.9155227 90.5807814,19.345301 C90.5596621,18.8384372 90.4118268,18.3526927 90.1372756,17.9303062 C89.8838437,17.5712777 89.4614572,17.3812038 88.8489968,17.3812038 C88.2365364,17.3812038 87.7930306,17.5712777 87.5395987,17.9303062 C87.2650475,18.3526927 87.1172122,18.8384372 87.0749736,19.345301 C87.032735,19.9155227 86.9904963,20.5279831 86.9904963,21.1826822 L86.9904963,26.5469905 C86.9904963,27.1805702 87.0116156,27.7930306 87.0749736,28.3632524 C87.0960929,28.8701162 87.2650475,29.3558606 87.5395987,29.7782471 C87.8141499,30.1161563 88.2365364,30.3062302 88.8489968,30.3062302" id="Shape" fill="#FFFFFF"></path>
                <path d="M97.2544879,32.3970433 L97.2544879,17.6135164 L95.2059134,17.6135164 L95.2059134,15.2692714 L97.2544879,15.2692714 L97.2544879,14.3611404 C97.2333685,13.4318902 97.3178458,12.5237592 97.5079197,11.6156283 C97.6346357,10.9186906 98.0147835,10.2851109 98.563886,9.84160507 C99.0918691,9.41921859 99.8944034,9.22914467 100.971489,9.20802534 C101.372756,9.20802534 101.710665,9.22914467 102.027455,9.25026399 C102.365364,9.29250264 102.703273,9.33474129 103.041183,9.41921859 L103.041183,11.7423442 C102.872228,11.7001056 102.661035,11.6789863 102.449842,11.6367476 C102.259768,11.6156283 102.048574,11.594509 101.858501,11.594509 C101.24604,11.594509 100.844773,11.8057022 100.696938,12.2069694 C100.506864,12.7349525 100.422386,13.2840549 100.443506,13.8331573 L100.443506,15.2481521 L103.041183,15.2481521 L103.041183,17.592397 L100.422386,17.592397 L100.422386,32.3970433 L97.2544879,32.3970433 L97.2544879,32.3970433 Z" id="Path" fill="#FFFFFF"></path>
                <path d="M109.926082,32.6504752 C109.039071,32.6504752 108.321014,32.4815206 107.771911,32.1436114 C107.222809,31.8057022 106.821542,31.3199578 106.589229,30.7286167 C106.335797,30.031679 106.209081,29.2925026 106.209081,28.5744456 L106.209081,17.3812038 L104.392819,17.3812038 L104.392819,15.2692714 L106.209081,15.2692714 L106.209081,10.2428722 L109.37698,10.2428722 L109.37698,15.2481521 L112.143611,15.2481521 L112.143611,17.3600845 L109.398099,17.3600845 L109.398099,28.3421331 C109.398099,29.0179514 109.503696,29.5036959 109.714889,29.7782471 C109.926082,30.0739176 110.348469,30.2006336 110.960929,30.2006336 C111.151003,30.2006336 111.319958,30.2006336 111.510032,30.1795143 L112.122492,30.1161563 L112.122492,32.4604013 C111.721225,32.5237592 111.362196,32.5659979 111.024287,32.5871172 C110.686378,32.6082365 110.32735,32.6504752 109.926082,32.6504752" id="Path" fill="#FFFFFF"></path>
                <path d="M117.909187,37.0432946 L116.578669,37.0432946 C116.367476,37.0644139 116.156283,36.8954593 116.156283,36.6631468 C116.135164,36.4519535 116.304118,36.2407603 116.536431,36.2407603 C116.55755,36.2407603 116.578669,36.2407603 116.599789,36.2407603 L117.930306,36.2407603 C118.141499,36.2618796 118.310454,36.4519535 118.310454,36.6631468 C118.268215,36.87434 118.12038,37.0432946 117.909187,37.0432946" id="Path" fill="#FFFFFF"></path>
                <path d="M112.988384,37.2196652 L110.454065,37.2196652 C110.242872,37.2454156 110.031679,37.0394126 110.031679,36.7561585 C110.01056,36.4986548 110.179514,36.2411511 110.411827,36.2411511 C110.432946,36.2411511 110.454065,36.2411511 110.475185,36.2411511 L113.030623,36.2411511 C113.241816,36.2669015 113.410771,36.4986548 113.410771,36.7561585 C113.368532,37.0136623 113.199578,37.2196652 112.988384,37.2196652 M106.8849,37.2196652 L104.308342,37.2196652 C104.097149,37.1939148 103.928194,36.9621615 103.928194,36.7046578 C103.949314,36.4729045 104.097149,36.2669015 104.308342,36.2411511 L106.86378,36.2411511 C107.074974,36.2154007 107.286167,36.4214037 107.286167,36.7046578 C107.307286,36.9621615 107.138332,37.2196652 106.906019,37.2196652 C106.906019,37.2454156 106.8849,37.2454156 106.8849,37.2196652 M100.739176,37.2196652 L98.1837381,37.2196652 C97.9725449,37.1939148 97.8035903,36.9621615 97.8035903,36.7046578 C97.8247096,36.4729045 97.9725449,36.2669015 98.1837381,36.2411511 L100.739176,36.2411511 C100.95037,36.2669015 101.119324,36.4986548 101.119324,36.7561585 C101.098205,37.0136623 100.92925,37.2196652 100.739176,37.2196652 M94.6145723,37.2196652 L92.0591341,37.2196652 C91.8479409,37.2454156 91.6367476,37.0394126 91.6367476,36.7561585 C91.6156283,36.4986548 91.7845829,36.2411511 92.0168955,36.2411511 C92.0380148,36.2411511 92.0591341,36.2411511 92.0802534,36.2411511 L94.6145723,36.2411511 C94.8257656,36.2669015 94.9947202,36.4986548 94.9947202,36.7561585 C94.9736008,37.0136623 94.8046463,37.2196652 94.6145723,37.2196652 M88.4899683,37.2196652 L85.9345301,37.2196652 C85.7233369,37.1939148 85.5543823,36.9621615 85.5543823,36.7046578 C85.5755016,36.4729045 85.7233369,36.2669015 85.9345301,36.2411511 L88.4899683,36.2411511 C88.7011616,36.2154007 88.9123548,36.4214037 88.9123548,36.7046578 C88.9334741,36.9621615 88.7645195,37.2196652 88.532207,37.2196652 C88.532207,37.2454156 88.5110876,37.2454156 88.4899683,37.2196652 M82.3653643,37.2196652 L79.8099261,37.2196652 C79.5987328,37.1939148 79.4297782,36.9621615 79.4297782,36.7046578 C79.4508976,36.4729045 79.5987328,36.2669015 79.8099261,36.2411511 L82.3653643,36.2411511 C82.5765576,36.2154007 82.7877508,36.4214037 82.7877508,36.7046578 C82.8088701,36.9621615 82.6399155,37.2196652 82.407603,37.2196652 C82.407603,37.2454156 82.3864836,37.2454156 82.3653643,37.2196652 M76.2407603,37.2196652 L73.6853221,37.2196652 C73.4741288,37.2454156 73.2629356,37.0394126 73.2629356,36.7561585 C73.2418163,36.4986548 73.4107709,36.2411511 73.6430834,36.2411511 C73.6642027,36.2411511 73.6853221,36.2411511 73.7064414,36.2411511 L76.2407603,36.2411511 C76.4519535,36.2669015 76.6209081,36.4986548 76.6209081,36.7561585 C76.5997888,37.0136623 76.4308342,37.2196652 76.2407603,37.2196652 M70.1161563,37.2196652 L67.5395987,37.2196652 C67.3284055,37.1939148 67.1594509,36.9621615 67.1594509,36.7046578 C67.1805702,36.4729045 67.3284055,36.2669015 67.5395987,36.2411511 L70.095037,36.2411511 C70.3062302,36.2669015 70.4751848,36.4986548 70.4751848,36.7561585 C70.4540655,37.0136623 70.3062302,37.2196652 70.1161563,37.2196652" id="Shape" fill="#FFFFFF"></path>
                <path d="M63.9704329,37.0432946 L62.6399155,37.0432946 C62.4287223,37.0432946 62.2386484,36.87434 62.2386484,36.6420275 L62.2386484,36.6420275 L62.2386484,35.31151 C62.2386484,35.1003168 62.407603,34.9102429 62.6399155,34.9102429 C62.8511088,34.9102429 63.0411827,35.0791975 63.0411827,35.31151 C63.0411827,35.31151 63.0411827,35.31151 63.0411827,35.31151 L63.0411827,36.2407603 L63.9704329,36.2407603 C64.1816262,36.219641 64.3928194,36.3885956 64.3928194,36.6209081 C64.4139388,36.8321014 64.2449842,37.0432946 64.0126716,37.0432946 C64.0126716,37.0644139 63.9915523,37.0644139 63.9704329,37.0432946" id="Path" fill="#FFFFFF"></path>
                <path d="M62.6399155,32.0168955 C62.4287223,32.0168955 62.2386484,31.8479409 62.2386484,31.6156283 C62.2386484,31.6156283 62.2386484,31.6156283 62.2386484,31.6156283 L62.2386484,28.9545935 C62.2386484,28.7434002 62.407603,28.5533263 62.6399155,28.5533263 C62.8511088,28.5533263 63.0411827,28.7222809 63.0411827,28.9545935 C63.0411827,28.9545935 63.0411827,28.9545935 63.0411827,28.9545935 L63.0411827,31.6156283 C63.0411827,31.8268215 62.8722281,32.0168955 62.6399155,32.0168955 C62.6399155,32.0168955 62.6399155,32.0168955 62.6399155,32.0168955" id="Path" fill="#FFFFFF"></path>
                <path d="M1.01372756,1.01372756 C2.36536431,-0.337909187 4.56177402,-0.337909187 5.91341077,1.01372756 C7.26504752,2.36536431 7.26504752,4.56177402 5.91341077,5.91341077 C4.56177402,7.26504752 2.36536431,7.26504752 1.01372756,5.91341077 C1.01372756,5.91341077 1.01372756,5.91341077 1.01372756,5.91341077 C-0.337909187,4.56177402 -0.337909187,2.36536431 1.01372756,1.01372756 C1.01372756,1.01372756 1.01372756,1.01372756 1.01372756,1.01372756" id="Path" fill="#009A3F"></path>
                <path d="M125.702218,38.9862724 C124.350581,40.3379092 122.154171,40.3379092 120.802534,38.9862724 C119.450898,37.6346357 119.450898,35.438226 120.802534,34.0865892 C122.154171,32.7349525 124.350581,32.7349525 125.702218,34.0865892 C125.702218,34.0865892 125.702218,34.0865892 125.702218,34.0865892 C127.053854,35.438226 127.053854,37.6346357 125.702218,38.9862724 C125.702218,38.9862724 125.702218,38.9862724 125.702218,38.9862724" id="Path" fill="#D51130"></path>
                <path d="M62.2386484,26.2302006 L56.9799366,20.9714889 C56.7476241,20.7391763 56.7476241,20.3801478 56.9799366,20.1689546 L62.2386484,14.9102429 C62.4709609,14.6779303 62.8299894,14.6779303 63.062302,14.9102429 L68.3210137,20.1689546 C68.5533263,20.4012672 68.5533263,20.7602957 68.3210137,20.9714889 L63.062302,26.2302006 C62.8299894,26.4625132 62.4709609,26.4625132 62.2386484,26.2302006" id="Path" fill="#FFD00A"></path>
            </g>
        </g>
    </g>
</svg>