<svg width="733" height="559" viewBox="0 0 733 559" xmlns="http://www.w3.org/2000/svg" xmlns:xlink="http://www.w3.org/1999/xlink">
    <defs>
        <path id="pputdw84wa" d="M0 0h106.506v61.444H0z"/>
        <path id="4zy0zjb0rc" d="M0 0h19.551v10.955H0z"/>
        <path id="sztz7nhine" d="M0 0h171.475v95.973H0z"/>
    </defs>
    <g fill="none" fill-rule="evenodd">
        <path d="m91 486 523-303m0 303L91 183" stroke="#FEFEFE" stroke-width=".25"/>
        <path d="m453.336 313.642-90.077 51.961c-6.218 3.589-16.3 3.589-22.518 0l-90.077-51.96c-6.218-3.588-6.218-9.405 0-12.992l90.077-51.96c6.217-3.588 16.3-3.588 22.518 0l90.077 51.96c6.219 3.587 6.219 9.404 0 12.991" fill="#307A2E"/>
        <path d="M352 368.294c-4.076 0-8.15-.897-11.26-2.691l-45.038-25.98-45.037-25.98c-3.11-1.794-4.665-4.146-4.665-6.496v39.706c0 2.35 1.554 4.702 4.665 6.495l45.037 25.98 45.038 25.98c3.11 1.796 7.184 2.692 11.26 2.692v-39.706z" fill="#4FA64F"/>
        <path d="M352 408c4.075 0 8.15-.898 11.26-2.691l45.037-25.98 45.038-25.981c3.11-1.793 4.665-4.145 4.665-6.495v-39.706c0 2.35-1.555 4.702-4.665 6.495l-45.038 25.98-45.037 25.981c-3.11 1.794-7.185 2.691-11.26 2.691V408z" fill="#3B9C3D"/>
        <path fill="#307A2E" d="M448 344.228 431 354v-14.228L448 330zM428 356.228 411 366v-14.228L428 342z"/>
        <path d="M263.923 341.893c0 2.248-1.818 3.019-4.062 1.72-2.244-1.297-4.064-4.172-4.064-6.42 0-2.247 1.82-3.016 4.064-1.72 2.244 1.297 4.062 4.172 4.062 6.42M276.681 349.271c0 2.248-1.82 3.02-4.064 1.721-2.242-1.298-4.062-4.172-4.062-6.42s1.82-3.017 4.062-1.72c2.244 1.297 4.064 4.172 4.064 6.42M289.44 356.65c0 2.248-1.819 3.017-4.063 1.72-2.244-1.298-4.064-4.172-4.064-6.42 0-2.247 1.82-3.016 4.064-1.72 2.244 1.297 4.062 4.172 4.062 6.42" fill="#FFF"/>
        <path d="m453.336 252.931-90.077 52.184c-6.218 3.604-16.3 3.604-22.518 0l-90.077-52.184c-6.218-3.602-6.218-9.442 0-13.044l90.077-52.185c6.217-3.603 16.3-3.603 22.518 0l90.077 52.185c6.219 3.602 6.219 9.442 0 13.044" fill="#307A2E"/>
        <path d="M352 307.817c-4.076 0-8.15-.901-11.26-2.702l-45.038-26.092-45.037-26.092c-3.11-1.8-4.665-4.162-4.665-6.522v39.876c0 2.36 1.554 4.721 4.665 6.522l45.037 26.092 45.038 26.091c3.11 1.803 7.184 2.703 11.26 2.703v-39.876z" fill="#4FA64F"/>
        <path d="M352 347.693c4.075 0 8.15-.902 11.26-2.703l45.037-26.091 45.038-26.092c3.11-1.801 4.665-4.162 4.665-6.522v-39.876c0 2.36-1.555 4.721-4.665 6.522l-45.038 26.092-45.037 26.092c-3.11 1.8-7.185 2.702-11.26 2.702v39.876z" fill="#3B9C3D"/>
        <path fill="#307A2E" d="M448 283.228 431 293v-14.228L448 269zM428 295.228 411 305v-14.228L428 281z"/>
        <g>
            <path d="M263.923 280.893c0 2.247-1.818 3.018-4.062 1.72-2.244-1.297-4.064-4.172-4.064-6.42s1.82-3.017 4.064-1.719c2.244 1.298 4.062 4.171 4.062 6.419" fill="#FFF"/>
            <path d="M276.681 288.271c0 2.248-1.82 3.02-4.064 1.72-2.242-1.297-4.062-4.171-4.062-6.42 0-2.247 1.82-3.016 4.062-1.72 2.244 1.298 4.064 4.173 4.064 6.42" fill="#307A2E"/>
            <path d="M289.44 295.65c0 2.247-1.819 3.017-4.063 1.72-2.244-1.297-4.064-4.172-4.064-6.42s1.82-3.017 4.064-1.72c2.244 1.299 4.062 4.172 4.062 6.42" fill="#FFF"/>
            <path d="m453.336 191.932-90.077 52.183c-6.218 3.602-16.3 3.602-22.518 0l-90.077-52.183c-6.218-3.603-6.218-9.445 0-13.047l90.077-52.183c6.217-3.603 16.3-3.603 22.518 0l90.077 52.183c6.219 3.602 6.219 9.444 0 13.047" fill="#53D453"/>
            <path d="M352 246.817c-4.076 0-8.15-.901-11.26-2.703l-45.038-26.091-45.037-26.092c-3.11-1.801-4.665-4.162-4.665-6.522v39.875c0 2.36 1.554 4.722 4.665 6.523l45.037 26.092 45.038 26.091c3.11 1.803 7.184 2.703 11.26 2.703v-39.876z" fill="#4FA64F"/>
            <path d="M352 286.693c4.075 0 8.15-.902 11.26-2.703l45.037-26.091 45.038-26.092c3.11-1.801 4.665-4.163 4.665-6.523V185.41c0 2.36-1.555 4.721-4.665 6.522l-45.038 26.092-45.037 26.091c-3.11 1.802-7.185 2.703-11.26 2.703v39.876z" fill="#3B9C3D"/>
        </g>
        <path fill="#307A2E" d="M448 224.228 431 234v-14.228L448 210zM428 234.228 411 244v-14.228L428 220z"/>
        <g>
            <path d="M263.277 219.982c0 2.246-1.82 3.015-4.068 1.718-2.247-1.295-4.07-4.168-4.07-6.414 0-2.246 1.823-3.015 4.07-1.72 2.247 1.297 4.068 4.17 4.068 6.416" fill="#FFF"/>
            <path d="M276.053 227.355c0 2.246-1.823 3.016-4.07 1.72-2.245-1.297-4.067-4.17-4.067-6.416 0-2.247 1.822-3.015 4.067-1.718 2.247 1.296 4.07 4.168 4.07 6.414M288.828 234.728c0 2.246-1.82 3.015-4.067 1.718-2.248-1.297-4.07-4.168-4.07-6.414 0-2.246 1.822-3.017 4.07-1.72 2.247 1.297 4.067 4.17 4.067 6.416M297.596 184.402c-1.14-.66-1.71-1.454-1.71-2.378 0-.926.57-1.718 1.71-2.38l38.98-22.6 4.103 2.38-38.98 22.6 49.923 28.942-4.103 2.378-49.923-28.942zm16.413 0c-1.14-.66-1.71-1.454-1.71-2.378 0-.926.57-1.718 1.71-2.38l35.561-20.616c1.139-.662 2.508-.991 4.103-.991 1.595 0 2.963.329 4.103.99l17.78 10.309v4.758l21.884 12.686c1.14.662 1.71 1.454 1.71 2.38 0 .924-.57 1.718-1.71 2.378l-31.457 18.238c-1.14.662-2.508.99-4.104.99-1.595 0-2.963-.328-4.103-.99l-43.767-25.374zM160.723 479.888l-44.49 25.721c-3.071 1.775-8.052 1.775-11.123 0l-44.49-25.721c-3.072-1.775-3.072-4.655 0-6.43l44.49-25.721c3.071-1.775 8.052-1.775 11.123 0l44.49 25.722c3.071 1.774 3.071 4.654 0 6.429" fill="#307A2E"/>
            <path d="m126.639 499.603-10.406 6.005c-3.071 1.776-8.052 1.776-11.123 0l-44.49-25.72c-3.072-1.776-3.072-4.654 0-6.43l10.078-5.817 55.94 31.962z" fill="#63B063"/>
            <path d="M110.671 506.94c-2.013 0-4.025-.444-5.56-1.332l-44.49-25.72c-1.537-.889-2.305-2.052-2.305-3.215v4.999c0 1.163.768 2.326 2.304 3.215l44.49 25.72c1.536.887 3.548 1.332 5.561 1.332v-4.999z" fill="#4FA64F"/>
            <path d="M110.671 511.939c2.013 0 4.026-.445 5.561-1.332l44.49-25.72c1.537-.89 2.304-2.052 2.304-3.215v-4.999c0 1.163-.767 2.326-2.303 3.215l-44.49 25.72c-1.536.888-3.549 1.332-5.562 1.332v4.999z" fill="#3B9C3D"/>
            <path d="M188.833 525.007 32.51 434.79c-6.515-3.76-11.797-12.088-11.797-18.6V294.126c0-6.513 5.282-8.744 11.797-4.984l156.323 90.217c11.797 7.116 11.797 19.3 11.797 25.812v114.853c0 6.512-5.282 8.743-11.797 4.983" fill="#4FA64F"/>
            <path d="M194.723 522.903c-1.077 0-2.471-.462-3.924-1.3L34.476 431.386c-5.236-3.023-9.83-10.124-9.83-15.198V294.127c0-2.881 1.334-2.881 1.974-2.881 1.078 0 2.47.461 3.924 1.3l156.287 90.197c9.866 5.973 9.866 16.271 9.866 22.428v114.852c0 2.88-1.332 2.88-1.974 2.88" fill="#FFF"/>
            <path d="M188.833 379.359c5.898 3.558 8.847 8.383 10.322 13.132 1.475 4.75 1.475 9.424 1.475 12.68v114.852c0 3.256-1.321 5.443-3.455 6.344l6.812-3.93c2.133-.903 3.454-3.09 3.454-6.345V401.24c0-3.257 0-7.93-1.475-12.68-1.474-4.749-4.424-9.574-10.322-13.132l-6.811 3.93z" fill="#3B823B"/>
            <path d="m195.644 375.428-78.16-45.108-78.163-45.109c-3.257-1.88-6.206-2.261-8.34-1.36l-6.812 3.93c2.135-.9 5.084-.52 8.34 1.362l78.163 45.108 78.16 45.108 6.812-3.931z" fill="#599659"/>
            <g transform="translate(0 485.226)">
                <mask id="bmfddjyodb" fill="#fff">
                    <use xlink:href="#pputdw84wa"/>
                </mask>
                <path d="M74.472 61.178.462 18.48c-.616-.354-.616-.929 0-1.283L29.808.266c.614-.355 1.61-.355 2.224 0l74.012 42.697c.614.355.614.93 0 1.284L76.697 61.178c-.615.354-1.611.354-2.225 0" fill="#307A2E" mask="url(#bmfddjyodb)"/>
            </g>
            <path d="m95.337 534.114-6.13-3.536c-.308-.177-.308-.464 0-.642l3.337-1.925c.307-.177.804-.177 1.112 0l6.13 3.537c.308.177.308.464 0 .641l-3.337 1.925c-.306.178-.804.178-1.112 0M87.343 529.503l-3.337-1.925c-.306-.178-.306-.465 0-.642l3.337-1.925c.308-.178.806-.178 1.112 0l3.337 1.925c.308.177.308.464 0 .642l-3.337 1.925c-.306.177-.804.177-1.112 0M82.144 526.503l-3.337-1.925c-.308-.177-.308-.465 0-.642l3.337-1.925c.307-.177.806-.177 1.112 0l3.337 1.925c.307.177.307.465 0 .642l-3.337 1.925c-.306.177-.805.177-1.112 0M76.944 523.503l-3.337-1.925c-.308-.177-.308-.465 0-.642l3.337-1.925c.308-.177.806-.177 1.112 0l3.337 1.925c.308.177.308.465 0 .642l-3.337 1.925c-.306.177-.804.177-1.112 0M71.744 520.503l-3.337-1.925c-.308-.177-.308-.465 0-.642l3.337-1.925c.308-.177.806-.177 1.112 0l3.337 1.925c.308.177.308.465 0 .642l-3.337 1.925c-.306.177-.804.177-1.112 0M66.544 517.503l-3.337-1.925c-.307-.177-.307-.464 0-.641l3.337-1.926c.308-.177.806-.177 1.112 0l3.337 1.926c.308.177.308.464 0 .641l-3.337 1.925c-.306.178-.804.178-1.112 0M61.344 514.504l-3.337-1.926c-.307-.177-.307-.464 0-.641l3.337-1.926c.308-.177.806-.177 1.112 0l3.337 1.926c.308.177.308.464 0 .641l-3.337 1.926c-.306.177-.804.177-1.112 0M56.145 511.504l-3.337-1.926c-.308-.177-.308-.464 0-.641l3.337-1.926c.307-.177.805-.177 1.111 0l3.338 1.926c.307.177.307.464 0 .641l-3.338 1.926c-.306.177-.804.177-1.111 0M50.945 508.504l-3.337-1.925c-.308-.178-.308-.465 0-.642l3.337-1.925c.308-.178.806-.178 1.112 0l3.337 1.925c.307.177.307.464 0 .642l-3.337 1.925c-.306.177-.804.177-1.112 0M45.745 505.504l-3.337-1.925c-.306-.177-.306-.465 0-.642l3.337-1.925c.308-.177.806-.177 1.112 0l3.337 1.925c.308.177.308.465 0 .642l-3.337 1.925c-.306.177-.804.177-1.112 0M40.545 502.504l-3.337-1.925c-.307-.177-.307-.465 0-.642l3.337-1.925c.308-.177.806-.177 1.112 0l3.337 1.925c.308.177.308.465 0 .642l-3.337 1.925c-.306.177-.804.177-1.112 0M35.346 499.504l-3.337-1.925c-.308-.177-.308-.464 0-.642l3.337-1.925c.307-.177.805-.177 1.111 0l3.337 1.925c.308.178.308.465 0 .642l-3.337 1.925c-.306.178-.804.178-1.111 0M30.146 496.505l-3.338-1.926c-.305-.177-.305-.464 0-.641l3.338-1.925c.307-.178.805-.178 1.111 0l3.337 1.925c.308.177.308.464 0 .641l-3.337 1.926c-.306.177-.804.177-1.111 0M24.946 493.505l-3.337-1.925c-.308-.177-.308-.465 0-.642l3.337-1.925c.307-.177.806-.177 1.112 0l3.337 1.925c.307.177.307.465 0 .642l-3.337 1.925c-.306.177-.805.177-1.112 0M26.672 488.66l6.13 3.535c.308.177.807.177 1.112 0l3.338-1.923c.307-.177.307-.465 0-.642l-6.131-3.538c-.308-.177-.806-.177-1.112 0l-3.337 1.925c-.308.177-.308.465 0 .642M34.665 493.27l3.338 1.926c.307.177.804.177 1.111 0l3.337-1.925c.308-.177.308-.465 0-.642l-3.337-1.925c-.307-.177-.804-.177-1.111 0l-3.338 1.925c-.307.177-.307.465 0 .642M39.866 496.27l3.337 1.926c.307.177.804.177 1.111 0l3.337-1.925c.308-.177.308-.465 0-.642l-3.337-1.925c-.307-.177-.804-.177-1.111 0l-3.337 1.925c-.308.177-.308.465 0 .642M45.065 499.27l3.337 1.926c.308.177.805.177 1.112 0l3.337-1.925c.308-.178.308-.465 0-.642l-3.337-1.925c-.307-.178-.804-.178-1.112 0l-3.337 1.925c-.307.177-.307.464 0 .642M50.265 502.27l3.337 1.925c.308.178.804.178 1.112 0l3.337-1.925c.308-.177.308-.464 0-.642l-3.337-1.925c-.308-.177-.804-.177-1.112 0l-3.337 1.925c-.308.178-.308.465 0 .642M55.465 505.27l3.337 1.925c.308.177.804.177 1.112 0l3.337-1.925c.307-.177.307-.465 0-.642l-3.337-1.925c-.308-.177-.804-.177-1.112 0l-3.337 1.925c-.308.177-.308.465 0 .642M60.665 508.27l3.337 1.925c.307.177.804.177 1.111 0l3.338-1.925c.307-.177.307-.465 0-.642l-3.338-1.925c-.307-.177-.804-.177-1.111 0l-3.337 1.925c-.308.177-.308.465 0 .642M65.864 511.27l3.338 1.925c.307.177.804.177 1.111 0l3.337-1.925c.308-.177.308-.465 0-.642l-3.337-1.925c-.307-.177-.804-.177-1.111 0l-3.338 1.925c-.307.177-.307.465 0 .642M71.064 514.27l3.337 1.925c.308.177.805.177 1.112 0l3.337-1.925c.308-.178.308-.465 0-.642l-3.337-1.925c-.307-.178-.804-.178-1.112 0l-3.337 1.925c-.307.177-.307.464 0 .642M76.264 517.27l3.337 1.925c.308.177.804.177 1.112 0l3.337-1.926c.308-.177.308-.464 0-.641l-3.337-1.926c-.308-.177-.804-.177-1.112 0l-3.337 1.926c-.308.177-.308.464 0 .641M81.464 520.27l3.337 1.925c.306.177.804.177 1.112 0l3.337-1.926c.308-.177.308-.464 0-.641l-3.337-1.926c-.308-.177-.806-.177-1.112 0l-3.337 1.926c-.308.177-.308.464 0 .641M86.664 523.27 90 525.193c.307.178.804.178 1.112 0l3.337-1.925c.307-.177.307-.464 0-.642l-3.337-1.925c-.308-.177-.805-.177-1.112 0l-3.337 1.925c-.308.178-.308.465 0 .642M91.864 526.269l3.337 1.925c.307.177.804.177 1.111 0l3.338-1.925c.307-.177.307-.465 0-.642l-3.338-1.925c-.307-.177-.804-.177-1.111 0l-3.337 1.925c-.308.177-.308.465 0 .642M97.063 529.269l3.337 1.925c.308.177.805.177 1.112 0l3.337-1.925c.308-.177.308-.465 0-.642l-3.337-1.925c-.307-.177-.804-.177-1.112 0l-3.337 1.925c-.307.177-.307.465 0 .642M16.546 494.5l6.131 3.537c.308.177.804.177 1.112 0l3.337-1.926c.308-.175.308-.462 0-.64l-6.13-3.538c-.308-.177-.807-.177-1.112 0l-3.338 1.926c-.307.177-.307.464 0 .641M24.54 499.112l3.337 1.926c.308.177.804.177 1.112 0l3.337-1.926c.308-.177.308-.464 0-.641l-3.337-1.925c-.308-.178-.804-.178-1.112 0l-3.337 1.925c-.307.177-.307.464 0 .641M29.74 502.112l3.337 1.925c.308.178.804.178 1.112 0l3.337-1.925c.308-.177.308-.464 0-.642l-3.337-1.925c-.308-.177-.804-.177-1.112 0l-3.337 1.925c-.308.178-.308.465 0 .642M34.94 505.112l3.337 1.925c.306.177.804.177 1.112 0l3.337-1.925c.307-.177.307-.465 0-.642l-3.337-1.925c-.308-.177-.806-.177-1.112 0l-3.337 1.925c-.308.177-.308.465 0 .642M40.14 508.112l3.337 1.925c.307.177.804.177 1.111 0l3.338-1.925c.307-.177.307-.465 0-.642l-3.338-1.925c-.307-.177-.804-.177-1.111 0l-3.337 1.925c-.308.177-.308.465 0 .642M45.34 511.112l3.337 1.925c.307.177.804.177 1.111 0l3.337-1.925c.308-.178.308-.465 0-.642l-3.337-1.925c-.307-.178-.804-.178-1.111 0l-3.338 1.925c-.307.177-.307.464 0 .642M50.54 514.111l3.336 1.926c.308.177.804.177 1.112 0l3.337-1.926c.308-.177.308-.464 0-.641l-3.337-1.926c-.308-.177-.804-.177-1.112 0l-3.337 1.926c-.307.177-.307.464 0 .641M55.74 517.111l3.336 1.926c.308.177.804.177 1.112 0l3.337-1.926c.308-.177.308-.464 0-.641l-3.337-1.926c-.308-.177-.804-.177-1.112 0l-3.337 1.926c-.308.177-.308.464 0 .641M60.939 520.111l3.337 1.925c.308.178.804.178 1.112 0l3.337-1.925c.308-.177.308-.464 0-.641l-3.337-1.926c-.308-.177-.804-.177-1.112 0l-3.337 1.926c-.308.177-.308.464 0 .641M66.139 523.11l3.337 1.926c.307.177.804.177 1.112 0l3.337-1.925c.307-.177.307-.465 0-.642l-3.337-1.925c-.308-.177-.805-.177-1.112 0l-3.337 1.925c-.308.177-.308.465 0 .642M71.339 526.11l3.337 1.926c.307.177.804.177 1.111 0l3.338-1.925c.307-.177.307-.465 0-.642l-3.338-1.925c-.307-.177-.804-.177-1.111 0l-3.337 1.925c-.308.177-.308.465 0 .642M76.538 529.11l3.337 1.926c.306.177.805.177 1.112 0l3.337-1.925c.308-.177.308-.465 0-.642l-3.337-1.925c-.307-.177-.806-.177-1.112 0l-3.337 1.925c-.307.177-.307.465 0 .642M81.738 532.11l3.337 1.926c.308.177.804.177 1.112 0l3.337-1.925c.308-.178.308-.465 0-.642l-3.337-1.925c-.308-.178-.804-.178-1.112 0l-3.337 1.925c-.308.177-.308.464 0 .642M86.938 535.11l3.337 1.925c.308.178.804.178 1.112 0l3.337-1.925c.307-.177.307-.464 0-.642l-3.337-1.925c-.308-.177-.804-.177-1.112 0l-3.337 1.925c-.308.178-.308.465 0 .642M11.484 497.421l7.31 4.217c.307.177.805.177 1.11 0l3.338-1.925c.308-.178.308-.465 0-.642l-7.31-4.217c-.307-.177-.804-.177-1.111 0l-3.337 1.926c-.308.177-.308.464 0 .641M20.656 502.713l3.337 1.925c.308.177.804.177 1.112 0l3.337-1.925c.308-.177.308-.465 0-.642l-3.337-1.925c-.308-.177-.804-.177-1.112 0l-3.337 1.925c-.308.177-.308.465 0 .642M25.856 505.713l3.337 1.925c.308.177.804.177 1.112 0l3.337-1.925c.307-.177.307-.465 0-.642l-3.337-1.925c-.308-.177-.804-.177-1.112 0l-3.337 1.925c-.308.177-.308.465 0 .642M31.056 508.713l3.337 1.925c.307.177.804.177 1.112 0l3.337-1.925c.307-.178.307-.465 0-.642l-3.337-1.925c-.308-.178-.805-.178-1.112 0l-3.337 1.925c-.308.177-.308.464 0 .642M36.255 511.712l3.338 1.926c.307.177.804.177 1.111 0l3.337-1.926c.308-.177.308-.464 0-.641l-3.337-1.926c-.307-.177-.804-.177-1.111 0l-3.338 1.926c-.307.177-.307.464 0 .641M41.455 514.712l3.337 1.926c.308.177.804.177 1.112 0l3.337-1.926c.308-.177.308-.464 0-.641l-3.337-1.926c-.308-.177-.804-.177-1.112 0l-3.337 1.926c-.307.177-.307.464 0 .641M46.655 517.712l3.337 1.925c.306.177.804.177 1.112 0l3.337-1.925c.308-.177.308-.465 0-.642l-3.337-1.925c-.308-.177-.806-.177-1.112 0l-3.337 1.925c-.307.177-.307.465 0 .642M51.855 520.712l3.337 1.925c.308.177.804.177 1.112 0l3.337-1.925c.308-.177.308-.465 0-.642l-3.337-1.925c-.308-.177-.804-.177-1.112 0l-3.337 1.925c-.308.177-.308.465 0 .642M57.055 523.712l3.337 1.925c.307.177.804.177 1.112 0l3.337-1.925c.307-.177.307-.465 0-.642l-3.337-1.925c-.308-.177-.805-.177-1.112 0l-3.337 1.925c-.308.177-.308.465 0 .642M62.255 526.712l3.337 1.925c.307.177.804.177 1.111 0l3.337-1.925c.308-.177.308-.465 0-.642l-3.337-1.925c-.307-.177-.804-.177-1.111 0l-3.337 1.925c-.308.177-.308.465 0 .642M67.454 529.711l3.337 1.926c.308.177.805.177 1.112 0l3.337-1.926c.308-.177.308-.464 0-.641l-3.337-1.926c-.307-.177-.804-.177-1.112 0l-3.337 1.926c-.307.177-.307.464 0 .641M72.654 532.711l3.337 1.925c.308.178.804.178 1.112 0l3.337-1.925c.308-.177.308-.464 0-.642l-3.337-1.925c-.308-.177-.804-.177-1.112 0l-3.337 1.925c-.307.178-.307.465 0 .642M85.212 539.956c.308.177.806.177 1.112 0l3.337-1.925c.307-.177.307-.465 0-.642l-7.358-4.245c-.308-.177-.804-.177-1.112 0l-3.337 1.925c-.308.178-.308.465 0 .642l7.358 4.245zM20.702 503.448l-9.832-5.672c-.308-.178-.804-.178-1.112 0L6.42 499.7c-.308.177-.308.464 0 .642l9.832 5.672c.308.177.804.177 1.112 0l3.337-1.926c.308-.177.308-.464 0-.641M25.902 506.447l-3.337-1.925c-.308-.177-.804-.177-1.112 0l-3.337 1.925c-.308.177-.308.465 0 .642l3.337 1.925c.308.177.804.177 1.112 0l3.337-1.925c.308-.177.308-.465 0-.642M31.102 509.447l-3.338-1.925c-.307-.177-.804-.177-1.111 0l-3.337 1.925c-.308.177-.308.465 0 .642l3.337 1.925c.307.177.804.177 1.111 0l3.338-1.925c.307-.177.307-.465 0-.642M36.301 512.447l-3.337-1.925c-.307-.177-.804-.177-1.112 0l-3.337 1.925c-.307.177-.307.465 0 .642l3.337 1.925c.308.177.806.177 1.112 0l3.337-1.925c.308-.177.308-.465 0-.642M41.501 515.447l-3.337-1.925c-.307-.178-.804-.178-1.112 0l-3.337 1.925c-.307.177-.307.464 0 .641l3.337 1.926c.308.177.805.177 1.112 0l3.337-1.926c.308-.177.308-.464 0-.641M46.701 518.447l-3.337-1.926c-.308-.177-.804-.177-1.112 0l-3.337 1.926c-.308.177-.308.464 0 .641l3.337 1.926c.308.177.804.177 1.112 0l3.337-1.926c.308-.177.308-.464 0-.641M51.9 521.447l-3.336-1.926c-.308-.177-.804-.177-1.112 0l-3.337 1.926c-.308.177-.308.464 0 .641l3.337 1.926c.308.177.804.177 1.112 0l3.337-1.926c.308-.177.308-.464 0-.641M57.1 524.446l-3.336-1.925c-.308-.177-.805-.177-1.112 0l-3.337 1.925c-.308.178-.308.465 0 .642l3.337 1.925c.307.178.804.178 1.112 0l3.337-1.925c.307-.177.307-.464 0-.642M62.3 527.446l-3.337-1.925c-.306-.177-.804-.177-1.112 0l-3.337 1.925c-.307.177-.307.465 0 .642l3.337 1.925c.308.177.805.177 1.112 0l3.337-1.925c.308-.177.308-.465 0-.642M67.5 530.446l-3.337-1.925c-.307-.177-.804-.177-1.112 0l-3.337 1.925c-.307.177-.307.465 0 .642l3.337 1.925c.308.177.805.177 1.112 0l3.337-1.925c.308-.177.308-.465 0-.642M72.7 533.446l-3.337-1.925c-.308-.178-.804-.178-1.112 0l-3.337 1.925c-.308.177-.308.464 0 .642l3.337 1.925c.308.177.804.177 1.112 0l3.337-1.925c.308-.178.308-.465 0-.642M84.598 540.31l-6.699-3.864-1.112-.642-2.223-1.283c-.308-.177-.806-.177-1.114 0l-3.335 1.925c-.308.177-.308.465 0 .642l2.223 1.282 1.112.643 6.7 3.864c.307.177.804.177 1.111 0l3.337-1.925c.308-.177.308-.465 0-.642M75.086 545.797l-3.337-1.925c-.307-.177-.307-.464 0-.642l3.337-1.925c.308-.177.806-.177 1.112 0l3.337 1.925c.308.178.308.465 0 .642l-3.337 1.925c-.306.178-.804.178-1.112 0M68.415 539.155l1.473-.849c.305-.177.804-.177 1.111 0l3.337 1.925c.306.178.306.465 0 .642l-1.473.85-4.448-2.568zM68.022 539.382l-1.473.849c-.306.177-.306.464 0 .641l3.337 1.926c.308.177.806.177 1.114 0l1.471-.85-4.449-2.566zM64.687 539.798l-3.337-1.925c-.308-.177-.308-.465 0-.642l3.337-1.925c.308-.177.806-.177 1.112 0l3.337 1.925c.307.177.307.465 0 .642l-3.337 1.925c-.306.177-.804.177-1.112 0M59.487 536.798l-3.337-1.925c-.308-.177-.308-.465 0-.642l3.337-1.925c.308-.177.806-.177 1.112 0l3.337 1.925c.308.177.308.465 0 .642l-3.337 1.925c-.306.177-.804.177-1.112 0M54.287 533.798l-4.758-2.744c-.306-.177-.306-.465 0-.642l3.337-1.925c.308-.177.806-.177 1.112 0l4.758 2.744c.308.177.308.465 0 .642l-3.337 1.925c-.306.177-.804.177-1.112 0M23.464 516.016c-.307-.177-.307-.465 0-.642l3.337-1.925c.308-.177.805-.177 1.112 0l24.202 13.963c.308.177.308.465 0 .642l-3.337 1.925c-.306.177-.804.177-1.111 0l-24.203-13.963zM21.601 514.941l-4.644-2.679c-.306-.177-.306-.464 0-.641l3.337-1.926c.307-.177.806-.177 1.113 0l4.643 2.68c.308.177.308.464 0 .641l-3.337 1.925c-.306.178-.804.178-1.112 0M15.095 511.187l-3.337-1.925c-.308-.177-.308-.465 0-.642l3.337-1.925c.307-.177.805-.177 1.111 0l3.337 1.925c.308.177.308.465 0 .642l-3.337 1.925c-.306.177-.804.177-1.111 0M9.895 508.188l-3.337-1.926c-.306-.177-.306-.464 0-.641l3.337-1.926c.307-.177.806-.177 1.112 0l3.337 1.926c.307.177.307.464 0 .641l-3.337 1.926c-.306.177-.805.177-1.112 0M4.695 505.188l-3.337-1.925c-.306-.178-.306-.465 0-.642l3.337-1.925c.307-.178.805-.178 1.111 0l3.338 1.925c.307.177.307.464 0 .642l-3.338 1.925c-.306.177-.804.177-1.111 0" fill="#63B063"/>
            <path d="M126.737 548.116c.068-.387.082-.792.035-1.208-.177-1.594-1.209-3.342-3.173-4.8l-2.975-2.207c-1.962-1.456-4.485-2.345-6.881-2.661-8.313-1.375-18.732 6.718-20.73 11.964.178 1.596 1.21 3.344 3.174 4.802l2.974 2.206c1.963 1.457 4.486 2.346 6.881 2.66.385.052.768.085 1.144.105 2.859-5.05 11.959-11.691 19.55-10.86" fill="#3B9C3D"/>
            <g transform="translate(107.185 548.045)">
                <mask id="znnz2ww33d" fill="#fff">
                    <use xlink:href="#4zy0zjb0rc"/>
                </mask>
                <path d="M4.979 10.041C8.614 6.72 12.842 4.301 17.63 2.74c1.077-.622 1.727-1.571 1.921-2.67C11.959-.76 2.861 5.883 0 10.935c1.961.108 3.757-.187 4.979-.893" fill="#307A2E" mask="url(#znnz2ww33d)"/>
            </g>
            <path d="m552.052 479.888 44.49 25.721c3.072 1.775 8.052 1.775 11.123 0l44.49-25.721c3.072-1.775 3.072-4.655 0-6.43l-44.49-25.721c-3.07-1.775-8.051-1.775-11.123 0l-44.49 25.722c-3.071 1.774-3.071 4.654 0 6.429" fill="#307A2E"/>
            <path d="m586.136 499.603 10.406 6.005c3.071 1.776 8.052 1.776 11.123 0l44.49-25.72c3.072-1.776 3.072-4.654 0-6.43l-10.077-5.817-55.942 31.962z" fill="#63B063"/>
            <path d="M602.103 506.94c2.013 0 4.026-.444 5.561-1.332l44.49-25.72c1.537-.889 2.304-2.052 2.304-3.215v4.999c0 1.163-.767 2.326-2.304 3.215l-44.49 25.72c-1.535.887-3.548 1.332-5.56 1.332v-4.999z" fill="#4FA64F"/>
            <path d="M602.103 511.939c-2.013 0-4.026-.445-5.56-1.332l-44.49-25.72c-1.537-.89-2.305-2.052-2.305-3.215v-4.999c0 1.163.768 2.326 2.304 3.215l44.49 25.72c1.535.888 3.548 1.332 5.561 1.332v4.999z" fill="#3B9C3D"/>
            <path d="m523.942 525.007 156.323-90.217c6.515-3.76 11.797-12.088 11.797-18.6V294.126c0-6.513-5.282-8.744-11.797-4.984L523.942 379.36c-11.797 7.116-11.797 19.3-11.797 25.812v114.853c0 6.512 5.282 8.743 11.797 4.983" fill="#4FA64F"/>
            <path d="M518.052 522.903c1.078 0 2.471-.462 3.924-1.3l156.323-90.216c5.236-3.023 9.83-10.124 9.83-15.198V294.127c0-2.881-1.334-2.881-1.974-2.881-1.079 0-2.471.461-3.924 1.3l-156.288 90.197c-9.865 5.973-9.865 16.271-9.865 22.428v114.852c0 2.88 1.334 2.88 1.974 2.88" fill="#FFF"/>
            <path d="M523.942 379.359c-5.898 3.558-8.847 8.383-10.322 13.132-1.475 4.75-1.475 9.424-1.475 12.68v114.852c0 3.256 1.321 5.443 3.454 6.344l-6.81-3.93c-2.134-.903-3.455-3.09-3.455-6.345V401.24c0-3.257 0-7.93 1.475-12.68 1.474-4.749 4.424-9.574 10.322-13.132l6.811 3.93z" fill="#3B823B"/>
            <path d="m517.13 375.428 78.161-45.108 78.163-45.109c3.256-1.88 6.207-2.261 8.34-1.36l6.812 3.93c-2.135-.9-5.084-.52-8.341 1.362l-78.162 45.108-78.16 45.108-6.812-3.931z" fill="#599659"/>
            <path d="m638.303 546.404 74.01-42.698c.616-.354.616-.93 0-1.284l-29.347-16.93c-.614-.355-1.61-.355-2.224 0l-74.013 42.697c-.613.354-.613.93 0 1.284l29.349 16.93c.615.355 1.611.355 2.225 0" fill="#307A2E"/>
            <path d="m617.438 534.114 6.13-3.536c.308-.177.308-.464 0-.642l-3.337-1.925c-.307-.177-.804-.177-1.111 0l-6.131 3.537c-.308.177-.308.464 0 .641l3.337 1.925c.306.178.804.178 1.112 0M625.431 529.503l3.337-1.925c.308-.178.308-.465 0-.642l-3.337-1.925c-.307-.178-.806-.178-1.112 0l-3.337 1.925c-.307.177-.307.464 0 .642l3.337 1.925c.306.177.805.177 1.112 0M630.631 526.503l3.337-1.925c.308-.177.308-.465 0-.642l-3.337-1.925c-.307-.177-.806-.177-1.111 0l-3.338 1.925c-.307.177-.307.465 0 .642l3.338 1.925c.305.177.804.177 1.111 0M635.831 523.503l3.337-1.925c.308-.177.308-.465 0-.642l-3.337-1.925c-.308-.177-.806-.177-1.112 0l-3.337 1.925c-.307.177-.307.465 0 .642l3.337 1.925c.306.177.804.177 1.112 0M641.03 520.503l3.338-1.925c.306-.177.306-.465 0-.642l-3.337-1.925c-.308-.177-.806-.177-1.112 0l-3.337 1.925c-.308.177-.308.465 0 .642l3.337 1.925c.306.177.804.177 1.112 0M646.23 517.503l3.338-1.925c.307-.177.307-.464 0-.641l-3.337-1.926c-.308-.177-.806-.177-1.112 0l-3.337 1.926c-.308.177-.308.464 0 .641l3.337 1.925c.306.178.804.178 1.112 0M651.43 514.504l3.337-1.926c.308-.177.308-.464 0-.641l-3.337-1.926c-.307-.177-.805-.177-1.111 0l-3.338 1.926c-.307.177-.307.464 0 .641l3.338 1.926c.306.177.804.177 1.111 0M656.63 511.504l3.337-1.926c.308-.177.308-.464 0-.641l-3.337-1.926c-.308-.177-.806-.177-1.112 0l-3.337 1.926c-.307.177-.307.464 0 .641l3.337 1.926c.306.177.804.177 1.112 0M661.83 508.504l3.337-1.925c.308-.178.308-.465 0-.642l-3.337-1.925c-.307-.178-.806-.178-1.112 0l-3.337 1.925c-.307.177-.307.464 0 .642l3.337 1.925c.306.177.805.177 1.112 0M667.03 505.504l3.337-1.925c.308-.177.308-.465 0-.642l-3.337-1.925c-.308-.177-.806-.177-1.112 0l-3.337 1.925c-.308.177-.308.465 0 .642l3.337 1.925c.306.177.804.177 1.112 0M672.23 502.504l3.337-1.925c.307-.177.307-.465 0-.642l-3.337-1.925c-.308-.177-.806-.177-1.112 0l-3.337 1.925c-.308.177-.308.465 0 .642l3.337 1.925c.306.177.804.177 1.112 0M677.43 499.504l3.337-1.925c.307-.177.307-.464 0-.642l-3.338-1.925c-.307-.177-.805-.177-1.111 0l-3.337 1.925c-.308.178-.308.465 0 .642l3.337 1.925c.306.178.804.178 1.111 0M682.63 496.505l3.336-1.926c.306-.177.306-.464 0-.641l-3.337-1.925c-.307-.178-.805-.178-1.111 0l-3.338 1.925c-.307.177-.307.464 0 .641l3.338 1.926c.306.177.804.177 1.111 0M687.83 493.505l3.336-1.925c.308-.177.308-.465 0-.642l-3.337-1.925c-.308-.177-.806-.177-1.112 0l-3.337 1.925c-.307.177-.307.465 0 .642l3.337 1.925c.306.177.804.177 1.112 0M686.103 488.66l-6.13 3.535c-.308.177-.806.177-1.112 0l-3.337-1.923c-.308-.177-.308-.465 0-.642l6.13-3.538c.308-.177.804-.177 1.112 0l3.337 1.925c.308.177.308.465 0 .642M678.11 493.27l-3.338 1.926c-.307.177-.804.177-1.111 0l-3.338-1.925c-.307-.177-.307-.465 0-.642l3.338-1.925c.307-.177.804-.177 1.111 0l3.337 1.925c.308.177.308.465 0 .642M672.91 496.27l-3.338 1.926c-.307.177-.804.177-1.111 0l-3.337-1.925c-.308-.177-.308-.465 0-.642l3.337-1.925c.307-.177.804-.177 1.111 0l3.338 1.925c.307.177.307.465 0 .642M667.71 499.27l-3.337 1.926c-.308.177-.805.177-1.112 0l-3.337-1.925c-.308-.178-.308-.465 0-.642l3.337-1.925c.307-.178.804-.178 1.112 0l3.337 1.925c.307.177.307.464 0 .642M662.51 502.27l-3.337 1.925c-.308.178-.804.178-1.112 0l-3.337-1.925c-.308-.177-.308-.464 0-.642l3.337-1.925c.308-.177.804-.177 1.112 0l3.337 1.925c.308.178.308.465 0 .642M657.31 505.27l-3.337 1.925c-.307.177-.804.177-1.112 0l-3.337-1.925c-.307-.177-.307-.465 0-.642l3.337-1.925c.308-.177.805-.177 1.112 0l3.337 1.925c.308.177.308.465 0 .642M652.11 508.27l-3.337 1.925c-.306.177-.804.177-1.112 0l-3.337-1.925c-.307-.177-.307-.465 0-.642l3.337-1.925c.308-.177.806-.177 1.112 0l3.337 1.925c.308.177.308.465 0 .642M646.91 511.27l-3.337 1.925c-.307.177-.804.177-1.111 0l-3.338-1.925c-.307-.177-.307-.465 0-.642l3.338-1.925c.307-.177.804-.177 1.111 0l3.337 1.925c.308.177.308.465 0 .642M641.71 514.27l-3.336 1.925c-.308.177-.805.177-1.112 0l-3.337-1.925c-.308-.178-.308-.465 0-.642l3.337-1.925c.307-.178.804-.178 1.112 0l3.337 1.925c.307.177.307.464 0 .642M636.51 517.27l-3.336 1.925c-.308.177-.804.177-1.112 0l-3.337-1.926c-.308-.177-.308-.464 0-.641l3.337-1.926c.308-.177.804-.177 1.112 0l3.337 1.926c.307.177.307.464 0 .641M631.311 520.27l-3.337 1.925c-.308.177-.804.177-1.112 0l-3.337-1.926c-.307-.177-.307-.464 0-.641l3.337-1.926c.308-.177.804-.177 1.112 0l3.337 1.926c.308.177.308.464 0 .641M626.111 523.27l-3.337 1.924c-.307.178-.804.178-1.112 0l-3.337-1.925c-.307-.177-.307-.464 0-.642l3.337-1.925c.308-.177.805-.177 1.112 0l3.337 1.925c.308.178.308.465 0 .642M620.911 526.269l-3.337 1.925c-.307.177-.804.177-1.112 0l-3.337-1.925c-.307-.177-.307-.465 0-.642l3.337-1.925c.308-.177.805-.177 1.112 0l3.337 1.925c.308.177.308.465 0 .642M615.712 529.269l-3.337 1.925c-.308.177-.805.177-1.112 0l-3.337-1.925c-.308-.177-.308-.465 0-.642l3.337-1.925c.307-.177.804-.177 1.112 0l3.337 1.925c.307.177.307.465 0 .642M696.229 494.5l-6.131 3.537c-.308.177-.806.177-1.112 0l-3.337-1.926c-.308-.175-.308-.462 0-.64l6.13-3.538c.308-.177.805-.177 1.113 0l3.337 1.926c.307.177.307.464 0 .641M688.235 499.112l-3.337 1.926c-.308.177-.804.177-1.112 0l-3.337-1.926c-.308-.177-.308-.464 0-.641l3.337-1.925c.308-.178.804-.178 1.112 0l3.337 1.925c.307.177.307.464 0 .641M683.035 502.112l-3.337 1.925c-.308.178-.804.178-1.112 0l-3.337-1.925c-.308-.177-.308-.464 0-.642l3.337-1.925c.308-.177.804-.177 1.112 0l3.337 1.925c.308.178.308.465 0 .642M677.835 505.112l-3.337 1.925c-.307.177-.804.177-1.112 0l-3.337-1.925c-.307-.177-.307-.465 0-.642l3.337-1.925c.308-.177.805-.177 1.112 0l3.337 1.925c.308.177.308.465 0 .642M672.635 508.112l-3.337 1.925c-.307.177-.804.177-1.112 0l-3.337-1.925c-.307-.177-.307-.465 0-.642l3.337-1.925c.308-.177.805-.177 1.112 0l3.337 1.925c.308.177.308.465 0 .642M667.435 511.112l-3.337 1.925c-.307.177-.804.177-1.111 0l-3.337-1.925c-.308-.178-.308-.465 0-.642l3.337-1.925c.307-.178.804-.178 1.111 0l3.337 1.925c.308.177.308.464 0 .642M662.236 514.111l-3.337 1.926c-.308.177-.805.177-1.112 0l-3.337-1.926c-.308-.177-.308-.464 0-.641l3.337-1.926c.307-.177.804-.177 1.112 0l3.337 1.926c.307.177.307.464 0 .641M657.036 517.111l-3.337 1.926c-.306.177-.804.177-1.112 0l-3.337-1.926c-.308-.177-.308-.464 0-.641l3.337-1.926c.308-.177.806-.177 1.112 0l3.337 1.926c.307.177.307.464 0 .641M651.836 520.111l-3.337 1.925c-.308.178-.804.178-1.112 0l-3.337-1.925c-.307-.177-.307-.464 0-.641l3.337-1.926c.308-.177.804-.177 1.112 0l3.337 1.926c.308.177.308.464 0 .641M646.636 523.11l-3.337 1.926c-.307.177-.804.177-1.112 0l-3.337-1.925c-.307-.177-.307-.465 0-.642l3.337-1.925c.308-.177.805-.177 1.112 0l3.337 1.925c.308.177.308.465 0 .642M641.437 526.11l-3.338 1.926c-.306.177-.804.177-1.111 0l-3.337-1.925c-.308-.177-.308-.465 0-.642l3.337-1.925c.307-.177.805-.177 1.111 0l3.338 1.925c.307.177.307.465 0 .642M636.237 529.11l-3.337 1.926c-.308.177-.805.177-1.112 0l-3.337-1.925c-.308-.177-.308-.465 0-.642l3.337-1.925c.307-.177.804-.177 1.112 0l3.337 1.925c.307.177.307.465 0 .642M631.037 532.11l-3.337 1.926c-.308.177-.804.177-1.112 0l-3.337-1.925c-.308-.178-.308-.465 0-.642l3.337-1.925c.308-.178.804-.178 1.112 0l3.337 1.925c.308.177.308.464 0 .642M625.837 535.11l-3.337 1.925c-.308.178-.804.178-1.112 0l-3.337-1.925c-.308-.177-.308-.464 0-.642l3.337-1.925c.308-.177.804-.177 1.112 0l3.337 1.925c.308.178.308.465 0 .642M701.291 497.421l-7.31 4.217c-.307.177-.805.177-1.11 0l-3.338-1.925c-.308-.178-.308-.465 0-.642l7.31-4.217c.307-.177.804-.177 1.111 0l3.337 1.926c.308.177.308.464 0 .641M692.119 502.713l-3.337 1.925c-.308.177-.804.177-1.112 0l-3.337-1.925c-.308-.177-.308-.465 0-.642l3.337-1.925c.308-.177.804-.177 1.112 0l3.337 1.925c.308.177.308.465 0 .642M686.92 505.713l-3.338 1.925c-.306.177-.804.177-1.112 0l-3.337-1.925c-.308-.177-.308-.465 0-.642l3.337-1.925c.308-.177.806-.177 1.112 0l3.337 1.925c.308.177.308.465 0 .642M681.72 508.713l-3.338 1.925c-.307.177-.804.177-1.112 0l-3.337-1.925c-.307-.178-.307-.465 0-.642l3.337-1.925c.308-.178.805-.178 1.112 0l3.337 1.925c.308.177.308.464 0 .642M676.52 511.712l-3.338 1.926c-.307.177-.804.177-1.111 0l-3.337-1.926c-.308-.177-.308-.464 0-.641l3.337-1.926c.307-.177.804-.177 1.111 0l3.337 1.926c.308.177.308.464 0 .641M671.32 514.712l-3.337 1.926c-.306.177-.805.177-1.112 0l-3.337-1.926c-.308-.177-.308-.464 0-.641l3.337-1.926c.307-.177.806-.177 1.112 0l3.337 1.926c.307.177.307.464 0 .641M666.12 517.712l-3.337 1.925c-.308.177-.804.177-1.112 0l-3.337-1.925c-.308-.177-.308-.465 0-.642l3.337-1.925c.308-.177.804-.177 1.112 0l3.337 1.925c.307.177.307.465 0 .642M660.92 520.712l-3.337 1.925c-.308.177-.804.177-1.112 0l-3.337-1.925c-.307-.177-.307-.465 0-.642l3.337-1.925c.308-.177.804-.177 1.112 0l3.337 1.925c.308.177.308.465 0 .642M655.72 523.712l-3.337 1.925c-.307.177-.804.177-1.112 0l-3.337-1.925c-.307-.177-.307-.465 0-.642l3.337-1.925c.308-.177.805-.177 1.112 0l3.337 1.925c.308.177.308.465 0 .642M650.52 526.712l-3.337 1.925c-.307.177-.804.177-1.111 0l-3.337-1.925c-.308-.177-.308-.465 0-.642l3.337-1.925c.307-.177.804-.177 1.111 0l3.338 1.925c.307.177.307.465 0 .642M645.32 529.711l-3.336 1.926c-.308.177-.804.177-1.112 0l-3.337-1.926c-.308-.177-.308-.464 0-.641l3.337-1.926c.308-.177.804-.177 1.112 0l3.337 1.926c.307.177.307.464 0 .641M640.12 532.711l-3.336 1.925c-.308.178-.804.178-1.112 0l-3.337-1.925c-.308-.177-.308-.464 0-.642l3.337-1.925c.308-.177.804-.177 1.112 0l3.337 1.925c.307.178.307.465 0 .642M627.563 539.956c-.308.177-.806.177-1.112 0l-3.337-1.925c-.307-.177-.307-.465 0-.642l7.358-4.245c.308-.177.804-.177 1.112 0l3.337 1.925c.308.178.308.465 0 .642l-7.358 4.245zM692.073 503.448l9.832-5.672c.306-.178.805-.178 1.112 0l3.337 1.925c.308.177.308.464 0 .642l-9.832 5.672c-.308.177-.806.177-1.112 0l-3.337-1.926c-.307-.177-.307-.464 0-.641M686.873 506.447l3.337-1.925c.308-.177.805-.177 1.112 0l3.337 1.925c.308.177.308.465 0 .642l-3.337 1.925c-.307.177-.804.177-1.112 0l-3.337-1.925c-.307-.177-.307-.465 0-.642M681.673 509.447l3.337-1.925c.308-.177.804-.177 1.112 0l3.337 1.925c.308.177.308.465 0 .642l-3.337 1.925c-.308.177-.804.177-1.112 0l-3.337-1.925c-.307-.177-.307-.465 0-.642M676.473 512.447l3.338-1.925c.307-.177.804-.177 1.111 0l3.337 1.925c.308.177.308.465 0 .642l-3.337 1.925c-.307.177-.804.177-1.111 0l-3.338-1.925c-.307-.177-.307-.465 0-.642M671.274 515.447l3.337-1.925c.307-.178.804-.178 1.112 0l3.337 1.925c.307.177.307.464 0 .641l-3.337 1.926c-.308.177-.805.177-1.112 0l-3.337-1.926c-.308-.177-.308-.464 0-.641M666.074 518.447l3.337-1.926c.306-.177.804-.177 1.112 0l3.337 1.926c.308.177.308.464 0 .641l-3.337 1.926c-.308.177-.806.177-1.112 0l-3.337-1.926c-.308-.177-.308-.464 0-.641M660.874 521.447l3.337-1.926c.308-.177.804-.177 1.112 0l3.337 1.926c.308.177.308.464 0 .641l-3.337 1.926c-.308.177-.804.177-1.112 0l-3.337-1.926c-.307-.177-.307-.464 0-.641M655.674 524.446l3.338-1.925c.307-.177.804-.177 1.111 0l3.337 1.925c.308.178.308.465 0 .642l-3.337 1.925c-.307.178-.804.178-1.111 0l-3.338-1.925c-.307-.177-.307-.464 0-.642M650.474 527.446l3.337-1.925c.308-.177.805-.177 1.112 0l3.337 1.925c.308.177.308.465 0 .642l-3.337 1.925c-.307.177-.804.177-1.112 0l-3.337-1.925c-.307-.177-.307-.465 0-.642M645.275 530.446l3.337-1.925c.307-.177.804-.177 1.112 0l3.337 1.925c.307.177.307.465 0 .642l-3.337 1.925c-.308.177-.805.177-1.112 0l-3.337-1.925c-.308-.177-.308-.465 0-.642M640.075 533.446l3.337-1.925c.307-.178.804-.178 1.112 0l3.337 1.925c.307.177.307.464 0 .642l-3.337 1.925c-.308.177-.805.177-1.112 0l-3.337-1.925c-.308-.178-.308-.465 0-.642M628.177 540.31l6.697-3.864 1.114-.642 2.223-1.283c.308-.177.806-.177 1.114 0l3.335 1.925c.308.177.308.465 0 .642l-2.223 1.282-1.112.643-6.7 3.864c-.307.177-.804.177-1.111 0l-3.337-1.925c-.308-.177-.308-.465 0-.642M637.688 545.797l3.337-1.925c.308-.177.308-.464 0-.642l-3.337-1.925c-.307-.177-.806-.177-1.111 0l-3.338 1.925c-.307.178-.307.465 0 .642l3.338 1.925c.305.178.804.178 1.111 0M644.36 539.155l-1.472-.849c-.306-.177-.805-.177-1.112 0l-3.337 1.925c-.306.178-.306.465 0 .642l1.473.85 4.448-2.568zM644.753 539.382l1.473.849c.306.177.306.464 0 .641l-3.337 1.926c-.308.177-.806.177-1.114 0l-1.471-.85 4.449-2.566zM648.088 539.798l3.337-1.925c.308-.177.308-.465 0-.642l-3.337-1.925c-.308-.177-.806-.177-1.112 0l-3.337 1.925c-.307.177-.307.465 0 .642l3.337 1.925c.306.177.804.177 1.112 0M653.288 536.798l3.337-1.925c.308-.177.308-.465 0-.642l-3.337-1.925c-.308-.177-.806-.177-1.112 0l-3.337 1.925c-.308.177-.308.465 0 .642l3.337 1.925c.306.177.804.177 1.112 0M658.488 533.798l4.758-2.744c.306-.177.306-.465 0-.642l-3.337-1.925c-.308-.177-.806-.177-1.112 0l-4.758 2.744c-.308.177-.308.465 0 .642l3.337 1.925c.306.177.804.177 1.112 0M689.31 516.016c.308-.177.308-.465 0-.642l-3.336-1.925c-.308-.177-.805-.177-1.112 0l-24.202 13.963c-.308.177-.308.465 0 .642l3.337 1.925c.306.177.804.177 1.112 0l24.202-13.963zM691.174 514.941l4.644-2.679c.306-.177.306-.464 0-.641l-3.337-1.926c-.308-.177-.806-.177-1.113 0l-4.643 2.68c-.308.177-.308.464 0 .641l3.337 1.925c.306.178.804.178 1.112 0M697.68 511.187l3.338-1.925c.307-.177.307-.465 0-.642l-3.338-1.925c-.307-.177-.805-.177-1.111 0l-3.337 1.925c-.308.177-.308.465 0 .642l3.337 1.925c.306.177.804.177 1.111 0M702.88 508.188l3.337-1.926c.308-.177.308-.464 0-.641l-3.337-1.926c-.307-.177-.806-.177-1.112 0l-3.337 1.926c-.307.177-.307.464 0 .641l3.337 1.926c.306.177.805.177 1.112 0M708.08 505.188l3.337-1.925c.308-.178.308-.465 0-.642l-3.337-1.925c-.308-.178-.806-.178-1.112 0l-3.337 1.925c-.308.177-.308.464 0 .642l3.337 1.925c.306.177.804.177 1.112 0" fill="#63B063"/>
            <path d="M699.276 482.754a4.215 4.215 0 0 1-.035-1.208c.178-1.595 1.21-3.343 3.174-4.8l2.974-2.208c1.963-1.457 4.486-2.344 6.881-2.66 8.313-1.376 18.732 6.718 20.73 11.964-.177 1.596-1.209 3.344-3.173 4.801l-2.975 2.206c-1.962 1.458-4.485 2.347-6.881 2.66-.385.051-.767.086-1.144.106-2.858-5.052-11.959-11.692-19.55-10.861" fill="#3B9C3D"/>
            <path d="M713.85 492.724c-3.635-3.323-7.864-5.74-12.652-7.302-1.077-.621-1.727-1.57-1.92-2.669 7.591-.83 16.69 5.811 19.55 10.863-1.961.109-3.757-.187-4.979-.892M69.143 198.61l44.49 25.72c3.072 1.776 8.053 1.776 11.124 0l44.49-25.72c3.072-1.776 3.072-4.655 0-6.432l-44.49-25.72c-3.071-1.776-8.052-1.776-11.123 0l-44.49 25.72c-3.072 1.777-3.072 4.656 0 6.431" fill="#307A2E"/>
            <path d="m103.228 218.325 10.405 6.006c3.072 1.775 8.052 1.775 11.124 0l44.49-25.722c3.071-1.776 3.071-4.654 0-6.43l-10.078-5.816-55.941 31.962z" fill="#63B063"/>
            <path d="M119.195 225.662c2.013 0 4.026-.445 5.56-1.332l44.491-25.72c1.537-.889 2.304-2.052 2.304-3.215v4.998c0 1.163-.767 2.328-2.304 3.216l-44.49 25.72c-1.535.887-3.548 1.332-5.561 1.332v-5z" fill="#4FA64F"/>
            <path d="M119.195 230.66c-2.013 0-4.026-.443-5.56-1.332l-44.491-25.72c-1.537-.887-2.304-2.052-2.304-3.215v-4.999c0 1.164.767 2.328 2.304 3.216l44.49 25.72c1.535.887 3.548 1.332 5.561 1.332v4.998z" fill="#3B9C3D"/>
            <path d="M197.356 153.511c6.515-3.76 11.797-12.087 11.797-18.6V12.847c0-6.512-5.282-8.744-11.797-4.983L41.034 98.08c-11.797 7.116-11.797 19.299-11.797 25.812v114.852c0 6.513 5.281 8.744 11.797 4.983l156.322-90.217z" fill="#009A3D"/>
            <path d="M41.034 98.08c-5.899 3.559-8.848 8.383-10.323 13.133-1.474 4.75-1.474 9.422-1.474 12.68v114.852c0 3.255 1.32 5.441 3.454 6.344l-6.81-3.931c-2.135-.903-3.456-3.088-3.456-6.344V119.962c0-3.257 0-7.93 1.475-12.68s4.424-9.574 10.322-13.132l6.812 3.93z" fill="#3B823B"/>
            <path d="m34.222 94.15 78.16-45.108 78.163-45.11c3.257-1.88 6.208-2.26 8.341-1.36l6.811 3.932c-2.135-.902-5.084-.52-8.34 1.36l-78.163 45.108-78.16 45.108-6.812-3.93z" fill="#599659"/>
            <path d="m642.811 196.503-44.49 25.72c-3.071 1.776-8.052 1.776-11.123 0l-44.49-25.72c-3.072-1.777-3.072-4.655 0-6.431l44.49-25.72c3.071-1.776 8.052-1.776 11.123 0l44.49 25.72c3.072 1.776 3.072 4.654 0 6.43" fill="#307A2E"/>
            <path d="m608.727 216.218-10.406 6.006c-3.071 1.775-8.052 1.775-11.123 0l-44.49-25.721c-3.072-1.775-3.072-4.655 0-6.431l10.078-5.816 55.941 31.962z" fill="#63B063"/>
            <path d="M592.76 223.555c-2.013 0-4.026-.443-5.56-1.332l-44.491-25.72c-1.537-.887-2.304-2.052-2.304-3.215v4.998c0 1.163.767 2.328 2.304 3.216l44.49 25.72c1.535.887 3.548 1.331 5.56 1.331v-4.998z" fill="#4FA64F"/>
            <path d="M592.76 228.554c2.013 0 4.026-.445 5.56-1.332l44.491-25.72c1.536-.89 2.304-2.053 2.304-3.216v-4.998c0 1.163-.768 2.326-2.304 3.215l-44.49 25.72c-1.535.888-3.548 1.332-5.561 1.332v4.999z" fill="#3B9C3D"/>
            <path d="M670.921 241.622 514.6 151.405c-6.516-3.76-11.797-12.088-11.797-18.6V10.74c0-6.513 5.281-8.744 11.797-4.984L670.92 95.974c11.797 7.116 11.797 19.3 11.797 25.812v114.852c0 6.513-5.282 8.744-11.797 4.984" fill="#009A3D"/>
            <path d="M670.921 95.974c5.899 3.558 8.848 8.382 10.322 13.132 1.475 4.75 1.475 9.422 1.475 12.68v114.852c0 3.255-1.32 5.441-3.454 6.344l6.81-3.931c2.134-.902 3.455-3.088 3.455-6.344V117.855c0-3.257 0-7.93-1.474-12.68-1.475-4.75-4.424-9.574-10.323-13.132l-6.81 3.93z" fill="#3B823B"/>
            <g transform="translate(506.257)">
                <mask id="kmpqdflraf" fill="#fff">
                    <use xlink:href="#sztz7nhine"/>
                </mask>
                <path d="m171.475 92.043-78.16-45.108-78.163-45.11c-3.257-1.88-6.207-2.26-8.34-1.36L0 4.396c2.135-.9 5.084-.52 8.341 1.36l78.162 45.11 78.16 45.107 6.812-3.93z" fill="#599659" mask="url(#kmpqdflraf)"/>
            </g>
        </g>
    </g>
</svg>
