<svg width="751" height="238" viewBox="0 0 751 238" xmlns="http://www.w3.org/2000/svg">
    <g fill-rule="nonzero" fill="none">
        <path d="M58.673 22h-8.346a2.508 2.508 0 0 1 0-5h8.346a2.508 2.508 0 0 1 0 5M339.787 21.993h-16.705c-.892.068-1.745-.392-2.21-1.191a2.602 2.602 0 0 1 0-2.604c.465-.8 1.318-1.26 2.21-1.191h16.705c1.247.095 2.213 1.183 2.213 2.493 0 1.31-.966 2.398-2.213 2.493m-40.092 0h-16.704c-1.248-.095-2.214-1.183-2.214-2.493 0-1.31.966-2.398 2.214-2.493h16.704c1.248.095 2.214 1.183 2.214 2.493 0 1.31-.966 2.398-2.214 2.493m-40.09 0h-16.706c-1.247-.095-2.213-1.183-2.213-2.493 0-1.31.966-2.398 2.213-2.493h16.705c.892-.068 1.745.392 2.21 1.191.466.8.466 1.805 0 2.604-.465.8-1.318 1.26-2.21 1.191m-40.079 0h-16.704c-.892.068-1.745-.392-2.21-1.191a2.602 2.602 0 0 1 0-2.604c.465-.8 1.318-1.26 2.21-1.191h16.704c1.248.095 2.214 1.183 2.214 2.493 0 1.31-.966 2.398-2.214 2.493m-40.09 0h-16.706c-1.247-.095-2.213-1.183-2.213-2.493 0-1.31.966-2.398 2.213-2.493h16.705c1.248.095 2.213 1.183 2.213 2.493 0 1.31-.965 2.398-2.213 2.493m-40.091 0h-16.705c-1.247-.095-2.213-1.183-2.213-2.493 0-1.31.966-2.398 2.213-2.493h16.705c.891-.068 1.744.392 2.21 1.191.466.8.466 1.805 0 2.604-.466.8-1.319 1.26-2.21 1.191m-40.091 0H82.559c-.891.068-1.744-.392-2.21-1.191a2.602 2.602 0 0 1 0-2.604c.466-.8 1.319-1.26 2.21-1.191h16.693c.891-.068 1.744.392 2.21 1.191.465.8.465 1.805 0 2.604-.466.8-1.319 1.26-2.21 1.191M371.6 31c-1.325 0-2.4-1.089-2.4-2.431v-5.687h-5.612a2.404 2.404 0 0 1-2.235-1.165 2.472 2.472 0 0 1 0-2.546 2.404 2.404 0 0 1 2.235-1.165h8.012c1.326 0 2.4 1.09 2.4 2.432v8.13c0 1.343-1.074 2.432-2.4 2.432M371.5 75a2.54 2.54 0 0 1-1.777-.719 2.385 2.385 0 0 1-.723-1.73V53.423c0-1.338 1.12-2.423 2.5-2.423s2.5 1.085 2.5 2.423v19.128c0 1.339-1.12 2.423-2.5 2.423M74 193V50h30.89c10.53 0 18.86 1.617 24.99 4.851a27.768 27.768 0 0 1 13.159 14.567c2.632 6.477 3.953 14.541 3.961 24.193v52.598c0 10.13-1.32 18.664-3.961 25.601a30.366 30.366 0 0 1-12.808 15.798c-5.907 3.595-13.82 5.392-23.742 5.392H74zm19.83-14.303h11.247c7.264 0 12.416-1.411 15.457-4.235 3.04-2.824 4.882-6.946 5.523-12.367.696-6.507 1.018-13.05.962-19.594V96.075a93.391 93.391 0 0 0-1.412-18.01c-.933-4.584-2.982-7.935-6.148-10.055-3.165-2.12-8.138-3.18-14.92-3.18H93.832v113.867zM167 192.964V50.01h32.884a59.69 59.69 0 0 1 16.896 2.123 29.641 29.641 0 0 1 11.935 6.52 26.629 26.629 0 0 1 7.075 11.208 50.25 50.25 0 0 1 2.292 15.969 47.09 47.09 0 0 1-2.204 15.265 22.034 22.034 0 0 1-6.723 10.152 23.24 23.24 0 0 1-11.532 4.762 31.099 31.099 0 0 1 13.975 6.621 28.114 28.114 0 0 1 7.868 11.999 53.673 53.673 0 0 1 2.518 17.59 62.26 62.26 0 0 1-2.115 16.76 33.534 33.534 0 0 1-6.634 12.891 30 30 0 0 1-11.495 8.204 42.883 42.883 0 0 1-16.53 2.915l-38.21-.025zm19.98-83.3h11.847c5.665 0 10.088-.796 13.27-2.387a13.364 13.364 0 0 0 6.71-7.677 40.63 40.63 0 0 0 1.951-13.82c0-6.584-1.003-11.346-3.009-14.286a13.665 13.665 0 0 0-9.367-5.566 97.286 97.286 0 0 0-16.63-1.143h-4.772v44.88zm0 69.002h13.433c8.964 0 14.948-2.094 17.953-6.282 3.005-4.188 4.507-10.918 4.507-20.19a41.66 41.66 0 0 0-2.38-15.077 17.9 17.9 0 0 0-7.553-9.172c-3.492-2.06-8.18-3.09-14.063-3.09H187.03l-.05 53.811zM293.853 193.992c-8.217 0-15.052-1.766-20.505-5.297a33.456 33.456 0 0 1-12.4-14.672A60.804 60.804 0 0 1 256 152.281l17.536-4.77a80.045 80.045 0 0 0 2.38 14.672 26.464 26.464 0 0 0 6.062 11.576c2.823 3.012 6.756 4.513 11.8 4.505 5.043-.009 8.943-1.451 11.699-4.329 2.643-2.881 3.958-7.046 3.958-12.456 0-6.485-1.466-11.702-4.397-15.653a83.463 83.463 0 0 0-11.085-11.929l-23.862-21.202a40.32 40.32 0 0 1-10.333-13.526 43.558 43.558 0 0 1-3.382-18.056c0-10.486 2.99-18.614 8.968-24.386 5.98-5.77 14.138-8.677 24.475-8.72a45.603 45.603 0 0 1 14.856 2.203 26.063 26.063 0 0 1 10.735 6.807 33.426 33.426 0 0 1 6.864 11.576 65.688 65.688 0 0 1 3.432 16.357l-16.91 4.593a69.898 69.898 0 0 0-2.104-12.998 19.422 19.422 0 0 0-5.537-9.537c-2.647-2.416-6.43-3.624-11.348-3.624-4.918 0-8.76 1.325-11.524 3.976-2.764 2.65-4.146 6.568-4.146 11.752a23.343 23.343 0 0 0 2.205 10.809 31.539 31.539 0 0 0 7.127 8.657l24.1 21.214a75.283 75.283 0 0 1 14.254 16.873 42.804 42.804 0 0 1 6.162 23.24 36.245 36.245 0 0 1-4.346 18.27 29.66 29.66 0 0 1-12.05 11.753 37.175 37.175 0 0 1-17.674 4.064M451.874 193.992c-8.225 0-15.065-1.766-20.523-5.3a33.474 33.474 0 0 1-12.412-14.677A61.072 61.072 0 0 1 414 152.263l17.614-4.771a80.046 80.046 0 0 0 2.382 14.677 26.471 26.471 0 0 0 6.068 11.581c2.825 3.013 6.761 4.515 11.81 4.507 5.048-.008 8.95-1.452 11.709-4.33 2.633-2.883 3.962-7.05 3.962-12.463 0-6.482-1.48-11.707-4.4-15.66a84.205 84.205 0 0 0-11.096-11.933l-23.958-21.21a40.551 40.551 0 0 1-10.393-13.533 43.573 43.573 0 0 1-3.334-18.064c0-10.49 2.992-18.622 8.976-24.396 5.984-5.774 14.141-8.66 24.472-8.66a45.874 45.874 0 0 1 14.893 2.202 26.213 26.213 0 0 1 10.732 6.81 33.437 33.437 0 0 1 6.87 11.582 65.69 65.69 0 0 1 3.435 16.364l-16.937 4.532a72.022 72.022 0 0 0-2.119-13.004 19.44 19.44 0 0 0-5.554-9.541c-2.632-2.417-6.418-3.626-11.358-3.626s-8.784 1.326-11.534 3.978c-2.758 2.652-4.137 6.571-4.137 11.757a23.344 23.344 0 0 0 2.244 10.814 31.329 31.329 0 0 0 7.134 8.66l24.07 21.199a75.324 75.324 0 0 1 14.267 16.88 42.808 42.808 0 0 1 6.168 23.25 36.247 36.247 0 0 1-4.413 18.304 29.756 29.756 0 0 1-12.06 11.757 37.222 37.222 0 0 1-17.69 4.066M526.63 194c-7.476 0-13.37-1.531-17.681-4.594a24.626 24.626 0 0 1-9.196-13.089 65.826 65.826 0 0 1-2.741-19.973v-29.701a65.941 65.941 0 0 1 2.704-19.973 24.638 24.638 0 0 1 9.196-13.076c4.311-3.071 10.205-4.602 17.681-4.594 7.477.008 13.337 1.54 17.582 4.594a24.918 24.918 0 0 1 9.109 13.076 65.941 65.941 0 0 1 2.704 19.973v29.701a65.827 65.827 0 0 1-2.704 19.973 24.893 24.893 0 0 1-9.109 13.09c-4.261 3.07-10.122 4.601-17.582 4.593m0-13.97c3.614 0 6.148-1.057 7.601-3.171a17.033 17.033 0 0 0 2.63-8.407c.299-3.474.436-7.099.436-10.874v-31.992c0-3.89-.137-7.551-.436-10.962a17.414 17.414 0 0 0-2.63-8.395c-1.453-2.181-3.987-3.272-7.6-3.272-3.614 0-6.185 1.091-7.714 3.272a17.044 17.044 0 0 0-2.704 8.395c-.299 3.423-.436 7.073-.436 10.962v31.992c0 3.775.137 7.4.436 10.874a16.663 16.663 0 0 0 2.704 8.407c1.52 2.114 4.091 3.171 7.713 3.171M577.272 193v-88.123H565V90.92h12.272v-5.356a75.98 75.98 0 0 1 1.52-16.345 17.58 17.58 0 0 1 6.333-10.511c3.208-2.464 8.013-3.7 14.413-3.709 2.368 0 4.483.1 6.332.277 2.06.213 4.106.536 6.13.968v13.83a48.675 48.675 0 0 0-3.546-.616 27.018 27.018 0 0 0-3.56-.264c-3.689 0-6.032 1.207-7.028 3.62a25.341 25.341 0 0 0-1.52 9.632v8.474h15.616v13.956h-15.654V193h-19.036zM652.802 193.962c-5.292 0-9.553-.998-12.785-2.996a17.208 17.208 0 0 1-7.057-8.45 34.203 34.203 0 0 1-2.21-12.852v-66.45H620V90.677h10.75V61h18.837v29.765H666v12.537h-16.325v65.196c0 3.996.648 6.846 1.946 8.551 1.256 1.705 3.767 2.508 7.41 2.508 1.09-.004 2.18-.063 3.264-.176l3.617-.351v13.917c-2.36.35-4.533.614-6.53.79a75.03 75.03 0 0 1-6.53.263M700.708 220.993h-8.088a2.428 2.428 0 0 1-2.263-1.191 2.55 2.55 0 0 1 0-2.604c.477-.8 1.35-1.26 2.263-1.191h8.114c1.277.095 2.266 1.183 2.266 2.493 0 1.31-.989 2.398-2.266 2.493M670.735 220.993h-15.147c-.893.068-1.746-.392-2.212-1.191a2.6 2.6 0 0 1 0-2.604c.466-.8 1.32-1.26 2.212-1.191h15.197c1.248.095 2.215 1.183 2.215 2.493 0 1.31-.967 2.398-2.215 2.493m-36.453 0h-15.273c-1.248-.095-2.215-1.183-2.215-2.493 0-1.31.967-2.398 2.215-2.493h15.16c.892-.068 1.746.392 2.212 1.191a2.6 2.6 0 0 1 0 2.604c-.466.8-1.32 1.26-2.212 1.191m-36.453 0h-15.21c-1.249-.095-2.215-1.183-2.215-2.493 0-1.31.966-2.398 2.215-2.493h15.21c1.248.095 2.215 1.183 2.215 2.493 0 1.31-.967 2.398-2.215 2.493m-36.453 0h-15.198c-.892.068-1.746-.392-2.212-1.191a2.6 2.6 0 0 1 0-2.604c.466-.8 1.32-1.26 2.212-1.191h15.198c1.248.095 2.215 1.183 2.215 2.493 0 1.31-.967 2.398-2.215 2.493m-36.454 0h-15.222c-1.248-.095-2.215-1.183-2.215-2.493 0-1.31.967-2.398 2.215-2.493h15.222c.893-.068 1.747.392 2.212 1.191a2.6 2.6 0 0 1 0 2.604c-.465.8-1.32 1.26-2.212 1.191m-36.453 0H473.16c-1.249-.095-2.215-1.183-2.215-2.493 0-1.31.966-2.398 2.215-2.493h15.247c.893-.068 1.746.392 2.212 1.191a2.6 2.6 0 0 1 0 2.604c-.466.8-1.32 1.26-2.212 1.191m-36.453 0h-15.26c-.892.068-1.746-.392-2.212-1.191a2.6 2.6 0 0 1 0-2.604c.466-.8 1.32-1.26 2.212-1.191h15.26c1.249.095 2.216 1.183 2.216 2.493 0 1.31-.967 2.398-2.216 2.493m-36.453 0h-15.285c-1.248-.095-2.215-1.183-2.215-2.493 0-1.31.967-2.398 2.215-2.493h15.197c1.249.095 2.215 1.183 2.215 2.493 0 1.31-.966 2.398-2.215 2.493M379.412 219.994H371.4c-1.326 0-2.4-1.09-2.4-2.432v-8.13c0-1.343 1.074-2.432 2.4-2.432 1.325 0 2.4 1.089 2.4 2.431v5.687h5.612a2.404 2.404 0 0 1 2.235 1.165c.47.781.47 1.764 0 2.546a2.404 2.404 0 0 1-2.235 1.165M371.5 190a2.606 2.606 0 0 1-1.772-.681 2.226 2.226 0 0 1-.728-1.643v-15.364c0-1.277 1.12-2.312 2.5-2.312s2.5 1.035 2.5 2.312v15.364a2.226 2.226 0 0 1-.728 1.643 2.606 2.606 0 0 1-1.772.681" fill="#1D1D1B"/>
        <path d="M5.858 5.869A19.99 19.99 0 0 1 27.65 1.52 20 20 0 0 1 40 20a20 20 0 0 1-12.35 18.48A19.99 19.99 0 0 1 5.859 34.13a20.002 20.002 0 0 1 0-28.287" fill="#009A3F"/>
        <path d="M745.139 232.14A19.996 19.996 0 0 1 711 218a19.996 19.996 0 0 1 34.139-14.14 19.988 19.988 0 0 1 0 28.28" fill="#D51130"/>
        <path d="m369.089 156.007-31.097-31.103a3.41 3.41 0 0 1 0-4.808l31.097-31.103a3.424 3.424 0 0 1 4.822 0l31.097 31.103a3.41 3.41 0 0 1 0 4.808l-31.097 31.103a3.424 3.424 0 0 1-4.822 0" fill="#FFD00A"/>
    </g>
</svg>
