<svg width="140" height="44" viewBox="0 0 140 44" xmlns="http://www.w3.org/2000/svg">
    <g fill-rule="nonzero" fill="none">
        <path d="M11.642 4h-1.284c-.202-.02-.358-.237-.358-.5s.156-.48.358-.5h1.284c.202.02.358.237.358.5s-.156.48-.358.5M63.594 3.999h-3.06a.424.424 0 0 1-.405-.239.562.562 0 0 1 0-.52.424.424 0 0 1 .405-.239h3.06c.23.02.406.237.406.499s-.177.48-.406.499m-7.344 0h-3.06c-.23-.02-.406-.237-.406-.499s.177-.48.405-.499h3.06c.23.02.406.237.406.499s-.177.48-.405.499m-7.345 0h-3.06c-.23-.02-.406-.237-.406-.499s.177-.48.405-.499h3.06a.424.424 0 0 1 .405.239c.086.16.086.36 0 .52a.424.424 0 0 1-.404.239m-7.343 0h-3.06a.424.424 0 0 1-.405-.239.562.562 0 0 1 0-.52A.424.424 0 0 1 38.5 3h3.06c.23.02.406.237.406.499s-.177.48-.405.499m-7.345 0h-3.06c-.229-.02-.406-.237-.406-.499s.177-.48.406-.499h3.06c.228.02.405.237.405.499s-.177.48-.405.499m-7.345 0h-3.06c-.229-.02-.406-.237-.406-.499s.177-.48.406-.499h3.06a.424.424 0 0 1 .405.239c.085.16.085.36 0 .52a.424.424 0 0 1-.405.239m-7.345 0h-3.058a.424.424 0 0 1-.405-.239.562.562 0 0 1 0-.52.424.424 0 0 1 .405-.239h3.058a.424.424 0 0 1 .405.239c.085.16.085.36 0 .52a.424.424 0 0 1-.405.239M68.63 5a.372.372 0 0 1-.368-.374V3.75h-.864a.37.37 0 0 1-.344-.18.38.38 0 0 1 0-.39.37.37 0 0 1 .344-.18h1.233c.204 0 .369.167.369.374v1.25a.372.372 0 0 1-.37.375M69.5 13a.565.565 0 0 1-.355-.12.368.368 0 0 1-.145-.288V9.404c0-.223.224-.404.5-.404s.5.18.5.404v3.188c0 .223-.224.404-.5.404M14 35V9h5.924c2.02 0 3.617.294 4.793.882a5.155 5.155 0 0 1 2.523 2.648c.505 1.178.758 2.644.76 4.4v9.563c0 1.841-.253 3.393-.76 4.654a5.592 5.592 0 0 1-2.456 2.873c-1.133.653-2.65.98-4.553.98H14zm3.803-2.6h2.157c1.393 0 2.381-.257 2.964-.77.583-.514.937-1.263 1.06-2.25a29.43 29.43 0 0 0 .184-3.562v-8.44a16.119 16.119 0 0 0-.27-3.275c-.18-.834-.573-1.443-1.18-1.828-.607-.386-1.56-.579-2.861-.579h-2.054V32.4zM32 34.993V9.002h6.138a11.423 11.423 0 0 1 3.154.386c.827.222 1.59.628 2.228 1.185a4.827 4.827 0 0 1 1.32 2.038c.303.94.447 1.92.429 2.904.02.94-.119 1.878-.412 2.775a4 4 0 0 1-1.255 1.846 4.401 4.401 0 0 1-2.152.866c.96.18 1.857.595 2.608 1.204a5.102 5.102 0 0 1 1.47 2.181 9.524 9.524 0 0 1 .47 3.198 11.043 11.043 0 0 1-.396 3.048 6.042 6.042 0 0 1-1.238 2.343 5.6 5.6 0 0 1-2.146 1.492 8.195 8.195 0 0 1-3.086.53L32 34.993zm3.73-15.145h2.211c1.058 0 1.883-.145 2.477-.434a2.45 2.45 0 0 0 1.253-1.396 7.21 7.21 0 0 0 .364-2.513c0-1.197-.187-2.062-.562-2.597a2.564 2.564 0 0 0-1.748-1.012 18.636 18.636 0 0 0-3.105-.208h-.89v8.16zm0 12.546h2.507c1.673 0 2.79-.38 3.351-1.142.561-.762.842-1.985.842-3.671a7.396 7.396 0 0 0-.445-2.742 3.275 3.275 0 0 0-1.41-1.667c-.651-.375-1.526-.562-2.625-.562H35.74l-.01 9.784zM54.835 35.999c-1.484 0-2.718-.327-3.703-.98a6.151 6.151 0 0 1-2.239-2.713A11.473 11.473 0 0 1 48 28.285l3.166-.882c.061.916.205 1.824.43 2.713a4.935 4.935 0 0 0 1.095 2.14c.51.558 1.22.835 2.13.834.91-.002 1.615-.268 2.112-.8.477-.533.715-1.304.715-2.304 0-1.2-.265-2.164-.794-2.895-.596-.8-1.266-1.54-2.001-2.206l-4.309-3.92a7.44 7.44 0 0 1-1.866-2.502 8.227 8.227 0 0 1-.61-3.34c0-1.939.54-3.442 1.62-4.509 1.079-1.067 2.552-1.605 4.418-1.613.91-.017 1.816.121 2.683.408a4.693 4.693 0 0 1 1.938 1.258c.55.62.972 1.348 1.24 2.141.33.977.539 1.994.619 3.025l-3.053.85a13.215 13.215 0 0 0-.38-2.404 3.612 3.612 0 0 0-1-1.764c-.478-.447-1.16-.67-2.049-.67-.888 0-1.582.245-2.08.735-.5.49-.75 1.215-.75 2.174-.024.69.112 1.375.399 1.998.332.609.768 1.151 1.287 1.601l4.351 3.924a13.844 13.844 0 0 1 2.574 3.12 8.064 8.064 0 0 1 1.112 4.298 6.835 6.835 0 0 1-.784 3.379 5.417 5.417 0 0 1-2.176 2.173 6.582 6.582 0 0 1-3.191.752M83.838 35.999c-1.485 0-2.72-.327-3.705-.98a6.155 6.155 0 0 1-2.241-2.715A11.524 11.524 0 0 1 77 28.281l3.18-.882c.061.917.205 1.825.43 2.715a4.936 4.936 0 0 0 1.096 2.141c.51.557 1.22.835 2.132.834.912-.002 1.616-.269 2.114-.801.476-.533.716-1.304.716-2.305 0-1.199-.267-2.165-.795-2.896-.597-.8-1.267-1.54-2.003-2.207l-4.326-3.922a7.48 7.48 0 0 1-1.876-2.503 8.23 8.23 0 0 1-.602-3.34c0-1.94.54-3.444 1.62-4.512 1.08-1.068 2.554-1.602 4.419-1.602.912-.016 1.82.121 2.689.408a4.72 4.72 0 0 1 1.938 1.26c.55.619.972 1.348 1.24 2.14.332.978.54 1.995.62 3.027l-3.058.838a13.616 13.616 0 0 0-.382-2.404 3.615 3.615 0 0 0-1.003-1.765c-.475-.447-1.159-.67-2.05-.67-.893 0-1.587.245-2.083.735-.498.49-.747 1.215-.747 2.174-.023.69.116 1.377.405 2 .332.61.768 1.152 1.288 1.602l4.346 3.92a13.852 13.852 0 0 1 2.576 3.122 8.064 8.064 0 0 1 1.114 4.3 6.834 6.834 0 0 1-.797 3.384 5.435 5.435 0 0 1-2.178 2.175 6.59 6.59 0 0 1-3.194.752M98.524 35c-1.394 0-2.492-.277-3.296-.831a4.46 4.46 0 0 1-1.715-2.369 11.585 11.585 0 0 1-.51-3.614v-5.374a11.604 11.604 0 0 1 .503-3.615 4.462 4.462 0 0 1 1.715-2.366c.804-.555 1.902-.833 3.296-.831 1.394.002 2.487.279 3.278.831a4.511 4.511 0 0 1 1.699 2.366c.357 1.172.527 2.392.504 3.615v5.374a11.584 11.584 0 0 1-.504 3.614 4.507 4.507 0 0 1-1.699 2.369c-.794.555-1.887.833-3.278.831m0-2.528c.674 0 1.146-.191 1.418-.574.297-.455.466-.98.49-1.521.055-.629.081-1.284.081-1.968V22.62c0-.703-.026-1.366-.081-1.983a3.086 3.086 0 0 0-.49-1.52c-.272-.394-.744-.591-1.418-.591-.673 0-1.153.197-1.438.592a3.022 3.022 0 0 0-.504 1.519c-.056.62-.081 1.28-.081 1.983v5.79c0 .683.025 1.338.081 1.967.024.542.199 1.068.504 1.521.284.383.763.574 1.438.574M107.35 35V19.036H105v-2.529h2.35v-.97c-.016-.994.081-1.987.291-2.96a3.16 3.16 0 0 1 1.213-1.905c.614-.447 1.534-.67 2.76-.672.453 0 .858.018 1.212.05.395.039.786.097 1.174.175v2.506a9.806 9.806 0 0 0-.68-.112 5.463 5.463 0 0 0-.68-.047c-.707 0-1.156.218-1.347.655a4.366 4.366 0 0 0-.29 1.745v1.535h2.99v2.529h-2.998V35h-3.645zM121.418 35.993c-1.036 0-1.87-.188-2.502-.563a3.27 3.27 0 0 1-1.38-1.589 6.203 6.203 0 0 1-.433-2.415V18.935H115v-2.357h2.103V11h3.686v5.595H124v2.357h-3.194v12.254c0 .751.127 1.287.38 1.608.246.32.738.471 1.45.471.214 0 .427-.012.64-.033l.707-.066v2.616c-.462.066-.887.116-1.278.149-.39.033-.818.049-1.277.049M129.647 40.999h-1.244c-.14.013-.275-.079-.348-.239a.644.644 0 0 1 0-.52c.073-.16.208-.252.348-.239h1.248c.197.02.349.237.349.499s-.152.48-.349.499M124.58 40.999h-2.81a.43.43 0 0 1-.41-.239.556.556 0 0 1 0-.52.43.43 0 0 1 .41-.239h2.82c.23.02.41.237.41.499s-.18.48-.41.499m-6.761 0h-2.833c-.231-.02-.41-.237-.41-.499s.179-.48.41-.499h2.812a.43.43 0 0 1 .41.239c.086.16.086.36 0 .52a.43.43 0 0 1-.41.239m-6.76 0h-2.821c-.232-.02-.411-.237-.411-.499s.18-.48.41-.499h2.821c.232.02.411.237.411.499s-.179.48-.41.499m-6.76 0h-2.82a.43.43 0 0 1-.41-.239.556.556 0 0 1 0-.52.43.43 0 0 1 .41-.239h2.82c.23.02.41.237.41.499s-.18.48-.41.499m-6.761 0h-2.823c-.232-.02-.411-.237-.411-.499s.18-.48.41-.499h2.824a.43.43 0 0 1 .41.239c.086.16.086.36 0 .52a.43.43 0 0 1-.41.239m-6.76 0h-2.828c-.232-.02-.411-.237-.411-.499s.179-.48.41-.499h2.828a.43.43 0 0 1 .41.239c.087.16.087.36 0 .52a.43.43 0 0 1-.41.239m-6.76 0h-2.83a.43.43 0 0 1-.41-.239.556.556 0 0 1 0-.52.43.43 0 0 1 .41-.239h2.83c.231.02.41.237.41.499s-.179.48-.41.499m-6.76 0H74.41c-.232-.02-.411-.237-.411-.499s.18-.48.41-.499h2.82c.23.02.41.237.41.499s-.18.48-.41.499M70.602 39.999h-1.233a.372.372 0 0 1-.369-.374v-1.25c0-.208.165-.375.37-.375.203 0 .368.167.368.374v.875h.864a.37.37 0 0 1 .344.18.38.38 0 0 1 0 .39.37.37 0 0 1-.344.18M69.5 35a.521.521 0 0 1-.354-.136.445.445 0 0 1-.146-.329v-3.073c0-.255.224-.462.5-.462s.5.207.5.462v3.073a.445.445 0 0 1-.146.329.521.521 0 0 1-.354.136" fill="#1D1D1B"/>
        <path d="M1.172 1.174A3.998 3.998 0 0 1 8 4a4 4 0 1 1-6.828-2.831" fill="#009A3F"/>
        <path d="M138.828 42.828a4 4 0 1 1-5.657-5.655 4 4 0 0 1 5.657 5.655" fill="#D51130"/>
        <path d="m69.046 28.813-5.86-5.86a.642.642 0 0 1 0-.906l5.86-5.86a.645.645 0 0 1 .908 0l5.86 5.86c.248.25.248.655 0 .906l-5.86 5.86a.645.645 0 0 1-.908 0" fill="#FFD00A"/>
    </g>
</svg>
