<svg xmlns="http://www.w3.org/2000/svg" viewBox="0 0 78 78"><defs><style>.cls-1,.cls-2,.cls-3{fill:none;stroke-miterlimit:10;}.cls-1{stroke:#00b948;}.cls-2{stroke:#8d959b;}.cls-2,.cls-3{stroke-width:0.98px;}.cls-3{stroke:#d5112f;}</style></defs><title>blocks-corporate</title><g id="Layer_2" data-name="Layer 2"><g id="Layer_1_copy" data-name="Layer 1 copy"><rect class="cls-1" x="0.5" y="0.5" width="77" height="77"/><path class="cls-2" d="M22.69,26.07V22.59a4,4,0,0,1,4-4h37.7a4,4,0,0,1,4,4V48.11a4,4,0,0,1-4,4h-3.3"/><rect class="cls-3" x="15.39" y="25.89" width="45.7" height="33.52" rx="4"/><path class="cls-3" d="M19.39,26.07h37.7a4,4,0,0,1,4,4V34.2a0,0,0,0,1,0,0H15.39a0,0,0,0,1,0,0V30.07A4,4,0,0,1,19.39,26.07Z"/></g></g></svg>