<svg xmlns="http://www.w3.org/2000/svg" viewBox="0 0 78 78"><defs><style>.cls-1,.cls-2,.cls-3{fill:none;stroke-miterlimit:10;}.cls-1,.cls-3{stroke:#00b948;}.cls-2{stroke:#8d959b;}.cls-2,.cls-3{stroke-width:0.98px;}</style></defs><title>blocks-AXO</title><g id="Layer_2" data-name="Layer 2"><g id="Layer_1_copy" data-name="Layer 1 copy"><rect class="cls-1" x="0.5" y="0.5" width="77" height="77"/><path class="cls-2" d="M46,19.57h8.43a4,4,0,0,1,4,4V65.5"/><path class="cls-2" d="M19.57,65.5V23.57a4,4,0,0,1,4-4H32"/><path class="cls-3" d="M35,65.5v-12a.91.91,0,0,1,.82-1h6.36a.91.91,0,0,1,.82,1v12"/><line class="cls-2" x1="13.45" y1="65.5" x2="64.55" y2="65.5"/><rect class="cls-2" x="32" y="12.57" width="14" height="14" rx="2"/><rect class="cls-3" x="28.97" y="32.55" width="6.68" height="6.68" rx="1"/><rect class="cls-3" x="42.34" y="32.55" width="6.68" height="6.68" rx="1"/><rect class="cls-3" x="28.97" y="42.53" width="6.68" height="6.68" rx="1"/><rect class="cls-3" x="42.34" y="42.53" width="6.68" height="6.68" rx="1"/></g></g></svg>