<svg xmlns="http://www.w3.org/2000/svg" viewBox="0 0 78 78"><defs><style>.cls-1,.cls-2,.cls-3{fill:none;stroke-miterlimit:10;}.cls-1{stroke:#00b948;}.cls-2{stroke:#d5112f;stroke-width:0.98px;}.cls-3{stroke:#8d959b;}</style></defs><title>blocks-HR</title><g id="Layer_2" data-name="Layer 2"><g id="Layer_1_copy" data-name="Layer 1 copy"><rect class="cls-1" x="0.5" y="0.5" width="77" height="77"/><rect class="cls-2" x="12.5" y="19.57" width="53" height="38.87" rx="4"/><circle class="cls-3" cx="25.86" cy="35.66" r="4.25"/><path class="cls-3" d="M19.79,42.48v3.2a.91.91,0,0,0,.91.91H31a.91.91,0,0,0,.91-.91v-3.2a1.83,1.83,0,0,0-1.3-1.75l-1-.3a6.06,6.06,0,0,1-7.5,0l-1,.3A1.83,1.83,0,0,0,19.79,42.48Z"/><line class="cls-3" x1="37.39" y1="31.41" x2="58.31" y2="31.41"/><line class="cls-3" x1="37.39" y1="35.96" x2="58.31" y2="35.96"/><line class="cls-3" x1="37.39" y1="40.5" x2="47.97" y2="40.5"/></g></g></svg>