<svg xmlns="http://www.w3.org/2000/svg" viewBox="0 0 78 78"><defs><style>.cls-1,.cls-2{fill:none;}.cls-1{stroke:#00b948;}.cls-1,.cls-2,.cls-3{stroke-miterlimit:10;}.cls-2{stroke:#d5112f;}.cls-3{fill:#fff;stroke:#8d959b;}</style></defs><title>blocks-it</title><g id="Layer_2" data-name="Layer 2"><g id="Layer_1_copy" data-name="Layer 1 copy"><rect class="cls-1" x="0.5" y="0.5" width="77" height="77"/><path class="cls-2" d="M51.93,61.5H26.07a3.59,3.59,0,0,1-3.57-3.6V20.1a3.59,3.59,0,0,1,3.57-3.6h18.5a3.56,3.56,0,0,1,2.52,1.05L54.46,25a3.68,3.68,0,0,1,1,2.55V57.9A3.59,3.59,0,0,1,51.93,61.5Z"/><path class="cls-2" d="M46.05,16.5v7.74A1.79,1.79,0,0,0,47.83,26H55.5"/><polyline class="cls-1" points="30.04 56.96 25.87 52.8 30.04 48.63"/><polyline class="cls-1" points="36.91 56.96 41.07 52.8 36.91 48.63"/><line class="cls-3" x1="34.47" y1="47.8" x2="32.47" y2="57.8"/></g></g></svg>