<?xml version="1.0" encoding="UTF-8"?>
<svg width="86px" height="71px" viewBox="0 0 86 71" version="1.1" xmlns="http://www.w3.org/2000/svg" xmlns:xlink="http://www.w3.org/1999/xlink">
    <title>icon__clien__service</title>
    <g id="Page-4" stroke="none" stroke-width="1" fill="none" fill-rule="evenodd">
        <g id="Solutions-mobile" transform="translate(-43.000000, -1356.000000)" fill-rule="nonzero">
            <g id="Group-17" transform="translate(24.000000, 127.000000)">
                <g id="icon__clien__service" transform="translate(20.000000, 1229.000000)">
                    <path d="M33.6842105,0.5 C38.1691228,0.5 41.8433718,1.91889959 44.6990782,4.77460602 C47.5547846,7.63031245 48.9736842,11.3045614 48.9736842,15.7894737 C48.9736842,20.274386 47.5547846,23.9486349 44.6990782,26.8043413 C41.8433718,29.6600478 38.1691228,31.0789474 33.6842105,31.0789474 C29.1992982,31.0789474 25.5250493,29.6600478 22.6693429,26.8043413 C19.8136364,23.9486349 18.3947368,20.274386 18.3947368,15.7894737 C18.3947368,11.3045614 19.8136364,7.63031245 22.6693429,4.77460602 C25.5250493,1.91889959 29.1992982,0.5 33.6842105,0.5 Z" id="Path" stroke="#434C52"></path>
                    <path d="M0,65.3684211 L0,55.3684211 C0,52.9122807 0.631578947,50.7017544 1.89473684,48.7368421 C3.15789474,46.7719298 4.9122807,45.2982456 7.15789474,44.3157895 C11.3684211,42.4912281 15.6842105,40.9824561 20.1052632,39.7894737 C24.5263158,38.5964912 29.0526316,38 33.6842105,38 L36.1052632,38 C34.7017544,42.4912281 34.1754386,47.0701754 34.5263158,51.7368421 C34.877193,56.4035088 35.9298246,60.9473684 37.6842105,65.3684211 L0,65.3684211 Z" id="Path" stroke="#FFD109"></path>
                    <path d="M67.4736842,27.6842105 L68.5263158,34.6315789 C69.7192982,34.9824561 70.9298246,35.4912281 72.1578947,36.1578947 C73.3859649,36.8245614 74.4210526,37.5789474 75.2631579,38.4210526 L81.0526316,37.1578947 L83.6842105,41.5789474 L78.7368421,46.2105263 C78.877193,46.8421053 78.9473684,47.7192982 78.9473684,48.8421053 C78.9473684,49.9649123 78.877193,50.8421053 78.7368421,51.4736842 L83.6842105,56.1052632 L81.0526316,60.5263158 L75.2631579,59.2631579 C74.4210526,60.1052632 73.3859649,60.8596491 72.1578947,61.5263158 C70.9298246,62.1929825 69.7192982,62.7017544 68.5263158,63.0526316 L67.4736842,70 L61.7894737,70 L60.7368421,63.0526316 C59.5438596,62.7017544 58.3333333,62.1929825 57.1052632,61.5263158 C55.877193,60.8596491 54.8421053,60.1052632 54,59.2631579 L48.2105263,60.5263158 L45.5789474,56.1052632 L50.5263158,51.4736842 C50.3859649,50.8421053 50.3157895,49.9649123 50.3157895,48.8421053 C50.3157895,47.7192982 50.3859649,46.8421053 50.5263158,46.2105263 L45.5789474,41.5789474 L48.2105263,37.1578947 L54,38.4210526 C54.8421053,37.5789474 55.877193,36.8245614 57.1052632,36.1578947 C58.3333333,35.4912281 59.5438596,34.9824561 60.7368421,34.6315789 L61.7894737,27.6842105 L67.4736842,27.6842105 Z M64.6315789,40.4210526 C62.1052632,40.4210526 60.0701754,41.1929825 58.5263158,42.7368421 C56.9824561,44.2807018 56.2105263,46.3157895 56.2105263,48.8421053 C56.2105263,51.3684211 56.9824561,53.4035088 58.5263158,54.9473684 C60.0701754,56.4912281 62.1052632,57.2631579 64.6315789,57.2631579 C67.1578947,57.2631579 69.1929825,56.4912281 70.7368421,54.9473684 C72.2807018,53.4035088 73.0526316,51.3684211 73.0526316,48.8421053 C73.0526316,46.3157895 72.2807018,44.2807018 70.7368421,42.7368421 C69.1929825,41.1929825 67.1578947,40.4210526 64.6315789,40.4210526 Z" id="Combined-Shape" stroke="#00B948"></path>
                </g>
            </g>
        </g>
    </g>
</svg>