<svg xmlns="http://www.w3.org/2000/svg" viewBox="0 0 59.06 24.51"><defs><style>.cls-1{fill:#3a9b3e;}.cls-2{fill:#b9002e;}.cls-3{fill:#f1cd2b;}</style></defs><title>favicon_1</title><g id="Layer_2" data-name="Layer 2"><g id="Layer_1-2" data-name="Layer 1"><path class="cls-1" d="M2.13,7.1a7.28,7.28,0,1,1,0,10.3,7.29,7.29,0,0,1,0-10.3"/><path class="cls-2" d="M56.92,17.4a7.28,7.28,0,1,1,0-10.3,7.27,7.27,0,0,1,0,10.3"/><path class="cls-3" d="M28.67,24.16l-11-11a1.21,1.21,0,0,1,0-1.71l11-11a1.21,1.21,0,0,1,1.71,0L41.43,11.4a1.21,1.21,0,0,1,0,1.71l-11,11.05a1.21,1.21,0,0,1-1.71,0"/></g></g></svg>