<svg xmlns="http://www.w3.org/2000/svg" viewBox="0 0 369.33 342.1"><defs><style>.cls-1{fill:#1d1d1c;}.cls-2{fill:#3d3c3b;}.cls-3{fill:#2e2e2d;}.cls-4{fill:#fff;}.cls-5{fill:#4d4b4a;}.cls-6{fill:#353434;}.cls-7{fill:#3e3c3b;}</style></defs><title>tech</title><g id="Layer_2" data-name="Layer 2"><g id="Layer_1-2" data-name="Layer 1"><path class="cls-1" d="M132.76,120.55,75.08,153.91a15.93,15.93,0,0,1-14.42,0L3,120.55c-4-2.3-4-6,0-8.34L60.66,78.86a15.87,15.87,0,0,1,14.42,0l57.68,33.35C136.74,114.52,136.74,118.25,132.76,120.55Z"/><path class="cls-2" d="M67.87,155.64a14.73,14.73,0,0,1-7.21-1.73L31.82,137.23,3,120.55c-2-1.15-3-2.66-3-4.17v25.49c0,1.51,1,3,3,4.17l28.83,16.68L60.66,179.4a14.73,14.73,0,0,0,7.21,1.73Z"/><path class="cls-3" d="M67.87,181.13a14.73,14.73,0,0,0,7.21-1.73l28.84-16.68L132.76,146c2-1.15,3-2.66,3-4.17V116.38c0,1.51-1,3-3,4.17l-28.84,16.68L75.08,153.91a14.73,14.73,0,0,1-7.21,1.73Z"/><polygon class="cls-1" points="130.25 140.54 119.28 146.88 119.28 137.65 130.25 131.31 130.25 140.54"/><polygon class="cls-1" points="116.81 148.14 105.83 154.48 105.83 145.25 116.81 138.91 116.81 148.14"/><ellipse class="cls-4" cx="8.87" cy="137.35" rx="1.96" ry="3.46" transform="translate(-80.78 32.92) rotate(-36.95)"/><ellipse class="cls-4" cx="17.04" cy="142.07" rx="1.96" ry="3.46" transform="translate(-81.97 38.78) rotate(-36.95)"/><ellipse class="cls-4" cx="25.21" cy="146.78" rx="1.96" ry="3.46" transform="translate(-83.17 44.63) rotate(-36.95)"/><path class="cls-1" d="M132.76,82,75.08,115.34a15.87,15.87,0,0,1-14.42,0L3,82c-4-2.3-4-6,0-8.34L60.66,40.29a15.93,15.93,0,0,1,14.42,0l57.68,33.36C136.74,76,136.74,79.69,132.76,82Z"/><path class="cls-2" d="M67.87,117.07a14.62,14.62,0,0,1-7.21-1.73L31.82,98.67,3,82c-2-1.15-3-2.66-3-4.17v25.49c0,1.51,1,3,3,4.17l28.83,16.68,28.84,16.67a14.62,14.62,0,0,0,7.21,1.73Z"/><path class="cls-3" d="M67.87,142.56a14.62,14.62,0,0,0,7.21-1.73l28.84-16.67,28.84-16.68c2-1.15,3-2.66,3-4.17V77.82c0,1.51-1,3-3,4.17L103.92,98.67,75.08,115.34a14.62,14.62,0,0,1-7.21,1.73Z"/><polygon class="cls-1" points="130.25 101.97 119.28 108.31 119.28 99.08 130.25 92.75 130.25 101.97"/><polygon class="cls-1" points="116.81 109.57 105.83 115.91 105.83 106.68 116.81 100.34 116.81 109.57"/><ellipse class="cls-4" cx="8.87" cy="98.79" rx="1.96" ry="3.46" transform="translate(-57.6 25.17) rotate(-36.95)"/><ellipse class="cls-1" cx="17.04" cy="103.5" rx="1.96" ry="3.46" transform="translate(-58.79 31.03) rotate(-36.95)"/><ellipse class="cls-4" cx="25.21" cy="108.22" rx="1.96" ry="3.46" transform="translate(-59.99 36.89) rotate(-36.95)"/><path class="cls-5" d="M132.76,43.42,75.08,76.78a15.93,15.93,0,0,1-14.42,0L3,43.42c-4-2.3-4-6,0-8.34L60.66,1.73a15.87,15.87,0,0,1,14.42,0l57.68,33.35C136.74,37.39,136.74,41.12,132.76,43.42Z"/><path class="cls-2" d="M67.87,78.51a14.73,14.73,0,0,1-7.21-1.73L31.82,60.1,3,43.42c-2-1.15-3-2.66-3-4.17V64.74c0,1.51,1,3,3,4.17L31.82,85.59l28.84,16.68A14.73,14.73,0,0,0,67.87,104Z"/><path class="cls-3" d="M67.87,104a14.73,14.73,0,0,0,7.21-1.73l28.84-16.68,28.84-16.68c2-1.15,3-2.66,3-4.17V39.25c0,1.51-1,3-3,4.17L103.92,60.1,75.08,76.78a14.73,14.73,0,0,1-7.21,1.73Z"/><polygon class="cls-1" points="130.25 63.19 119.28 69.53 119.28 60.3 130.25 53.96 130.25 63.19"/><polygon class="cls-1" points="116.81 70.79 105.83 77.13 105.83 67.9 116.81 61.56 116.81 70.79"/><ellipse class="cls-4" cx="8.87" cy="60" rx="1.96" ry="3.46" transform="translate(-34.29 17.38) rotate(-36.95)"/><ellipse class="cls-1" cx="17.04" cy="64.72" rx="1.96" ry="3.46" transform="translate(-35.48 23.24) rotate(-36.95)"/><ellipse class="cls-1" cx="25.21" cy="69.44" rx="1.96" ry="3.46" transform="translate(-36.68 29.1) rotate(-36.95)"/><path class="cls-1" d="M33.42,38.75a1.61,1.61,0,0,1,0-3L58.35,21.25,61,22.77,36,37.22h0L68,55.74l-2.63,1.52Zm10.49,0a1.61,1.61,0,0,1,0-3L66.65,22.51a5.78,5.78,0,0,1,5.25,0l11.37,6.6v3l14,8.12a1.6,1.6,0,0,1,0,3L77.15,55a5.78,5.78,0,0,1-5.25,0Z"/><path class="cls-2" d="M363.4,315.07l-54.55-31.49c-2.27-1.32-4.11-4.22-4.11-6.5v-42.6c0-2.28,1.84-3,4.11-1.74l54.55,31.49c4.11,2.48,4.11,6.73,4.11,9v40.09C367.51,315.6,365.67,316.38,363.4,315.07Z"/><path class="cls-1" d="M310.27,281.12a5.8,5.8,0,0,1-2.69-4v-41.8L362,266.67c2.51,1.53,2.72,4,2.72,6.57v39.28Z"/><path class="cls-6" d="M363.4,264.23a8,8,0,0,1,3.6,4.58,14.77,14.77,0,0,1,.51,4.43v40.09a2.2,2.2,0,0,1-1.2,2.21l2.37-1.37c.75-.32.64-.76.64-1.9V272.18a14.74,14.74,0,0,0-.51-4.42,8,8,0,0,0-3.6-4.59Z"/><path class="cls-5" d="M365.21,263.17l-27.28-15.74-27.27-15.75a3.38,3.38,0,0,0-2.91-.47l-1.81,1a3.35,3.35,0,0,1,2.91.48l27.28,15.74,27.27,15.75Z"/><path class="cls-7" d="M364.92,320.35l-32.13,18.58a8.88,8.88,0,0,1-8,0l-56.34-32.48c-2.22-1.28-2.22-3.36,0-4.64l32.12-18.58a8.81,8.81,0,0,1,8,0l56.35,32.48C367.14,317,367.14,319.07,364.92,320.35Z"/><path class="cls-5" d="M312.37,320l-7,4a1.93,1.93,0,0,1-1.75,0l-12.27-7.07a.53.53,0,0,1,0-1l7-4.05a1.93,1.93,0,0,1,1.75,0L312.37,319A.53.53,0,0,1,312.37,320Z"/><path class="cls-2" d="M328.78,339.89a8.21,8.21,0,0,1-4-1l-56.34-32.48a2.83,2.83,0,0,1-1.67-2.32v2.21a2.83,2.83,0,0,0,1.67,2.32l56.34,32.48a8.21,8.21,0,0,0,4,1Z"/><path class="cls-6" d="M328.78,342.1a8.2,8.2,0,0,0,4-1l32.13-18.58a2.82,2.82,0,0,0,1.66-2.32V318a2.82,2.82,0,0,1-1.66,2.32l-32.13,18.58a8.2,8.2,0,0,1-4,1Z"/><path class="cls-1" d="M335.2,330.61l-53.45-30.85a.49.49,0,0,1,0-.92L303,286.61a1.74,1.74,0,0,1,1.6,0L358,317.45a.49.49,0,0,1,0,.93l-21.2,12.23A1.8,1.8,0,0,1,335.2,330.61Z"/><path class="cls-5" d="M350.26,321.73l-4.42-2.55c-.23-.13-.23-.34,0-.47l2.41-1.39a.87.87,0,0,1,.8,0l4.43,2.56c.22.13.22.33,0,.46l-2.41,1.39A.89.89,0,0,1,350.26,321.73Z"/><path class="cls-5" d="M344.49,318.4,342.08,317c-.22-.13-.22-.34,0-.46l2.41-1.4a.93.93,0,0,1,.8,0l2.41,1.4c.23.12.23.33,0,.46l-2.41,1.39A.87.87,0,0,1,344.49,318.4Z"/><path class="cls-5" d="M340.74,316.23l-2.41-1.39c-.22-.13-.22-.33,0-.46l2.41-1.39a.87.87,0,0,1,.8,0l2.41,1.39c.22.13.22.33,0,.46l-2.41,1.39A.87.87,0,0,1,340.74,316.23Z"/><path class="cls-5" d="M337,314.07l-2.41-1.4c-.22-.12-.22-.33,0-.46l2.41-1.39a.87.87,0,0,1,.8,0l2.41,1.39c.23.13.23.34,0,.46l-2.41,1.4A.93.93,0,0,1,337,314.07Z"/><path class="cls-5" d="M333.23,311.9l-2.41-1.39a.25.25,0,0,1,0-.47l2.41-1.39a.93.93,0,0,1,.8,0l2.41,1.39a.25.25,0,0,1,0,.47L334,311.9A.87.87,0,0,1,333.23,311.9Z"/><path class="cls-5" d="M329.47,309.73l-2.41-1.39c-.22-.13-.22-.33,0-.46l2.41-1.39a.89.89,0,0,1,.81,0l2.4,1.39c.23.13.23.33,0,.46l-2.4,1.39A.89.89,0,0,1,329.47,309.73Z"/><path class="cls-5" d="M325.72,307.56l-2.41-1.39c-.22-.12-.22-.33,0-.46l2.41-1.39a.87.87,0,0,1,.8,0l2.41,1.39c.22.13.22.34,0,.46l-2.41,1.39A.87.87,0,0,1,325.72,307.56Z"/><path class="cls-5" d="M322,305.4,319.55,304a.25.25,0,0,1,0-.47l2.41-1.39a.89.89,0,0,1,.81,0l2.4,1.39c.23.13.23.34,0,.47l-2.4,1.39A.89.89,0,0,1,322,305.4Z"/><path class="cls-5" d="M318.21,303.23l-2.41-1.39c-.22-.13-.22-.34,0-.46l2.41-1.39a.87.87,0,0,1,.8,0l2.41,1.39c.22.12.22.33,0,.46L319,303.23A.87.87,0,0,1,318.21,303.23Z"/><path class="cls-5" d="M314.45,301.06,312,299.67c-.22-.13-.22-.33,0-.46l2.41-1.39a.89.89,0,0,1,.81,0l2.41,1.39c.22.13.22.33,0,.46l-2.41,1.39A.89.89,0,0,1,314.45,301.06Z"/><path class="cls-5" d="M310.7,298.9l-2.41-1.39a.25.25,0,0,1,0-.47l2.41-1.39a.87.87,0,0,1,.8,0l2.41,1.39a.25.25,0,0,1,0,.47l-2.41,1.39A.93.93,0,0,1,310.7,298.9Z"/><path class="cls-5" d="M306.94,296.73l-2.41-1.39a.25.25,0,0,1,0-.47l2.41-1.39a1,1,0,0,1,.81,0l2.41,1.39a.25.25,0,0,1,0,.47l-2.41,1.39A.89.89,0,0,1,306.94,296.73Z"/><path class="cls-5" d="M303.19,294.56l-2.41-1.39c-.22-.13-.22-.33,0-.46l2.41-1.39a.87.87,0,0,1,.8,0l2.41,1.39c.22.13.22.33,0,.46L304,294.56A.87.87,0,0,1,303.19,294.56Z"/><path class="cls-5" d="M299.43,292.39,297,291c-.22-.12-.22-.33,0-.46l2.41-1.39a.89.89,0,0,1,.81,0l2.41,1.39c.22.13.22.34,0,.46l-2.41,1.39A.89.89,0,0,1,299.43,292.39Z"/><path class="cls-5" d="M300.68,288.89l4.43,2.56a.87.87,0,0,0,.8,0l2.41-1.39c.22-.13.22-.34,0-.46L303.89,287a.87.87,0,0,0-.8,0l-2.41,1.39C300.46,288.56,300.46,288.77,300.68,288.89Z"/><path class="cls-5" d="M306.45,292.23l2.41,1.39a.93.93,0,0,0,.8,0l2.41-1.39c.23-.13.23-.34,0-.47l-2.41-1.39a.87.87,0,0,0-.8,0l-2.41,1.39A.25.25,0,0,0,306.45,292.23Z"/><path class="cls-5" d="M310.21,294.39l2.41,1.39a.87.87,0,0,0,.8,0l2.41-1.39c.22-.13.22-.33,0-.46l-2.41-1.39a.87.87,0,0,0-.8,0l-2.41,1.39C310,294.06,310,294.26,310.21,294.39Z"/><path class="cls-5" d="M314,296.56l2.41,1.39a.87.87,0,0,0,.8,0l2.41-1.39c.23-.13.23-.34,0-.46l-2.41-1.39a.87.87,0,0,0-.8,0L314,296.1C313.74,296.22,313.74,296.43,314,296.56Z"/><path class="cls-5" d="M317.72,298.73l2.41,1.39a.87.87,0,0,0,.8,0l2.41-1.39a.25.25,0,0,0,0-.47l-2.41-1.39a.87.87,0,0,0-.8,0l-2.41,1.39C317.49,298.39,317.49,298.6,317.72,298.73Z"/><path class="cls-5" d="M321.47,300.89l2.41,1.39a.87.87,0,0,0,.8,0l2.41-1.39c.23-.12.23-.33,0-.46L324.68,299a.87.87,0,0,0-.8,0l-2.41,1.39C321.25,300.56,321.25,300.77,321.47,300.89Z"/><path class="cls-5" d="M325.23,303.06l2.41,1.39a.87.87,0,0,0,.8,0l2.41-1.39c.22-.13.22-.33,0-.46l-2.41-1.39a.87.87,0,0,0-.8,0l-2.41,1.39C325,302.73,325,302.93,325.23,303.06Z"/><path class="cls-5" d="M329,305.23l2.41,1.39a.87.87,0,0,0,.8,0l2.41-1.39c.23-.13.23-.34,0-.47l-2.41-1.39a.93.93,0,0,0-.8,0L329,304.76A.25.25,0,0,0,329,305.23Z"/><path class="cls-5" d="M332.74,307.4l2.41,1.39a.93.93,0,0,0,.8,0l2.41-1.39a.25.25,0,0,0,0-.47L336,305.54a.87.87,0,0,0-.8,0l-2.41,1.39C332.51,307.06,332.51,307.27,332.74,307.4Z"/><path class="cls-5" d="M336.49,309.56,338.9,311a.87.87,0,0,0,.8,0l2.41-1.39c.22-.13.22-.33,0-.46l-2.41-1.39a.87.87,0,0,0-.8,0l-2.41,1.39C336.27,309.23,336.27,309.43,336.49,309.56Z"/><path class="cls-5" d="M340.25,311.73l2.41,1.39a.87.87,0,0,0,.8,0l2.41-1.39c.22-.13.22-.34,0-.46l-2.41-1.39a.87.87,0,0,0-.8,0l-2.41,1.39C340,311.39,340,311.6,340.25,311.73Z"/><path class="cls-5" d="M344,313.9l2.41,1.39a.87.87,0,0,0,.8,0l2.41-1.39a.25.25,0,0,0,0-.47L347.21,312a.87.87,0,0,0-.8,0L344,313.43A.25.25,0,0,0,344,313.9Z"/><path class="cls-5" d="M347.76,316.06l2.4,1.39a.89.89,0,0,0,.81,0l2.41-1.39c.22-.12.22-.33,0-.46L351,314.21a.89.89,0,0,0-.81,0l-2.4,1.39C347.53,315.73,347.53,315.94,347.76,316.06Z"/><path class="cls-5" d="M351.51,318.23l2.41,1.39a.87.87,0,0,0,.8,0l2.41-1.39c.22-.13.22-.33,0-.46l-2.41-1.39a.87.87,0,0,0-.8,0l-2.41,1.39C351.29,317.9,351.29,318.1,351.51,318.23Z"/><path class="cls-5" d="M293.37,293.11l4.43,2.56a.87.87,0,0,0,.8,0l2.41-1.39c.22-.13.22-.34,0-.46l-4.43-2.56a.87.87,0,0,0-.8,0l-2.41,1.39C293.15,292.78,293.15,293,293.37,293.11Z"/><path class="cls-5" d="M299.14,296.45l2.41,1.39a.93.93,0,0,0,.8,0l2.41-1.39a.25.25,0,0,0,0-.47l-2.41-1.39a.87.87,0,0,0-.8,0L299.14,296A.25.25,0,0,0,299.14,296.45Z"/><path class="cls-5" d="M302.9,298.61l2.4,1.39a.89.89,0,0,0,.81,0l2.41-1.39c.22-.13.22-.33,0-.46l-2.41-1.39a.89.89,0,0,0-.81,0l-2.4,1.39C302.67,298.28,302.67,298.48,302.9,298.61Z"/><path class="cls-5" d="M306.65,300.78l2.41,1.39a.87.87,0,0,0,.8,0l2.41-1.39c.22-.13.22-.34,0-.46l-2.41-1.39a.87.87,0,0,0-.8,0l-2.41,1.39C306.43,300.44,306.43,300.65,306.65,300.78Z"/><path class="cls-5" d="M310.4,303l2.41,1.39a.89.89,0,0,0,.81,0L316,303a.25.25,0,0,0,0-.47l-2.41-1.39a.89.89,0,0,0-.81,0l-2.41,1.39A.25.25,0,0,0,310.4,303Z"/><path class="cls-5" d="M314.16,305.11l2.41,1.39a.87.87,0,0,0,.8,0l2.41-1.39c.22-.12.22-.33,0-.46l-2.41-1.39a.87.87,0,0,0-.8,0l-2.41,1.39C313.94,304.78,313.94,305,314.16,305.11Z"/><path class="cls-5" d="M317.91,307.28l2.41,1.39a.89.89,0,0,0,.81,0l2.41-1.39c.22-.13.22-.33,0-.46l-2.41-1.39a.89.89,0,0,0-.81,0l-2.41,1.39C317.69,307,317.69,307.15,317.91,307.28Z"/><path class="cls-5" d="M321.67,309.45l2.41,1.39a.87.87,0,0,0,.8,0l2.41-1.39a.25.25,0,0,0,0-.47l-2.41-1.39a.93.93,0,0,0-.8,0L321.67,309A.25.25,0,0,0,321.67,309.45Z"/><path class="cls-5" d="M325.42,311.62l2.41,1.39a1,1,0,0,0,.81,0l2.41-1.39a.25.25,0,0,0,0-.47l-2.41-1.39a.89.89,0,0,0-.81,0l-2.41,1.39A.25.25,0,0,0,325.42,311.62Z"/><path class="cls-5" d="M329.18,313.78l2.41,1.39a.87.87,0,0,0,.8,0l2.41-1.39c.22-.13.22-.33,0-.46l-2.41-1.39a.87.87,0,0,0-.8,0l-2.41,1.39C329,313.45,329,313.65,329.18,313.78Z"/><path class="cls-5" d="M332.93,316l2.41,1.39a.89.89,0,0,0,.81,0l2.41-1.39c.22-.13.22-.34,0-.46l-2.41-1.39a.89.89,0,0,0-.81,0l-2.41,1.39C332.71,315.61,332.71,315.82,332.93,316Z"/><path class="cls-5" d="M336.69,318.12l2.41,1.39a.93.93,0,0,0,.8,0l2.41-1.39a.25.25,0,0,0,0-.47l-2.41-1.39a.87.87,0,0,0-.8,0l-2.41,1.39A.25.25,0,0,0,336.69,318.12Z"/><path class="cls-5" d="M340.44,320.28l2.41,1.39a.89.89,0,0,0,.81,0l2.41-1.39c.22-.12.22-.33,0-.46l-2.41-1.39a.89.89,0,0,0-.81,0l-2.41,1.39C340.22,320,340.22,320.16,340.44,320.28Z"/><path class="cls-5" d="M344.2,322.45l2.41,1.39a.87.87,0,0,0,.8,0l2.41-1.39c.22-.13.22-.34,0-.46l-2.41-1.39a.87.87,0,0,0-.8,0L344.2,322C344,322.11,344,322.32,344.2,322.45Z"/><path class="cls-5" d="M289.71,295.22l5.28,3a.87.87,0,0,0,.8,0l2.41-1.39c.22-.13.22-.34,0-.46l-5.28-3.05a.87.87,0,0,0-.8,0l-2.41,1.39C289.49,294.89,289.49,295.1,289.71,295.22Z"/><path class="cls-5" d="M296.34,299.05l2.41,1.39a.87.87,0,0,0,.8,0l2.41-1.39a.25.25,0,0,0,0-.47l-2.41-1.39a.87.87,0,0,0-.8,0l-2.41,1.39C296.11,298.71,296.11,298.92,296.34,299.05Z"/><path class="cls-5" d="M300.09,301.21l2.41,1.39a.87.87,0,0,0,.8,0l2.41-1.39c.22-.12.22-.33,0-.46l-2.41-1.39a.87.87,0,0,0-.8,0l-2.41,1.39C299.87,300.88,299.87,301.09,300.09,301.21Z"/><path class="cls-5" d="M303.85,303.38l2.4,1.39a.89.89,0,0,0,.81,0l2.41-1.39c.22-.13.22-.33,0-.46l-2.41-1.39a.89.89,0,0,0-.81,0l-2.4,1.39C303.62,303.05,303.62,303.25,303.85,303.38Z"/><path class="cls-5" d="M307.6,305.55l2.41,1.39a.87.87,0,0,0,.8,0l2.41-1.39a.25.25,0,0,0,0-.47l-2.41-1.39a.93.93,0,0,0-.8,0l-2.41,1.39A.25.25,0,0,0,307.6,305.55Z"/><path class="cls-5" d="M311.35,307.72l2.41,1.39a1,1,0,0,0,.81,0l2.41-1.39a.25.25,0,0,0,0-.47l-2.41-1.39a.89.89,0,0,0-.81,0l-2.41,1.39A.25.25,0,0,0,311.35,307.72Z"/><path class="cls-5" d="M315.11,309.88l2.41,1.39a.87.87,0,0,0,.8,0l2.41-1.39c.22-.13.22-.33,0-.46L318.32,308a.87.87,0,0,0-.8,0l-2.41,1.39C314.89,309.55,314.89,309.75,315.11,309.88Z"/><path class="cls-5" d="M318.86,312.05l2.41,1.39a.89.89,0,0,0,.81,0l2.41-1.39c.22-.13.22-.34,0-.46l-2.41-1.39a.89.89,0,0,0-.81,0l-2.41,1.39C318.64,311.71,318.64,311.92,318.86,312.05Z"/><path class="cls-5" d="M322.62,314.22l2.41,1.39a.93.93,0,0,0,.8,0l2.41-1.39a.25.25,0,0,0,0-.47l-2.41-1.39a.87.87,0,0,0-.8,0l-2.41,1.39A.25.25,0,0,0,322.62,314.22Z"/><path class="cls-5" d="M326.37,316.38l2.41,1.39a.89.89,0,0,0,.81,0l2.41-1.39c.22-.12.22-.33,0-.46l-2.41-1.39a.89.89,0,0,0-.81,0l-2.41,1.39C326.15,316.05,326.15,316.26,326.37,316.38Z"/><path class="cls-5" d="M330.13,318.55l2.41,1.39a.87.87,0,0,0,.8,0l2.41-1.39c.22-.13.22-.34,0-.46l-2.41-1.39a.87.87,0,0,0-.8,0l-2.41,1.39C329.91,318.21,329.91,318.42,330.13,318.55Z"/><path class="cls-5" d="M333.88,320.72l2.41,1.39a.89.89,0,0,0,.81,0l2.41-1.39a.25.25,0,0,0,0-.47l-2.41-1.39a1,1,0,0,0-.81,0l-2.41,1.39A.25.25,0,0,0,333.88,320.72Z"/><path class="cls-5" d="M343,326a.89.89,0,0,0,.81,0l2.4-1.39c.23-.13.23-.34,0-.46L340.85,321a.87.87,0,0,0-.8,0l-2.41,1.39c-.22.13-.22.34,0,.46Z"/><path class="cls-5" d="M296.37,299.58l-7.1-4.1a.87.87,0,0,0-.8,0l-2.41,1.39c-.23.13-.23.34,0,.46l7.1,4.1a.87.87,0,0,0,.8,0l2.41-1.39C296.59,299.91,296.59,299.71,296.37,299.58Z"/><path class="cls-5" d="M300.12,301.74l-2.41-1.39a.93.93,0,0,0-.8,0l-2.41,1.39a.25.25,0,0,0,0,.47l2.41,1.39a.87.87,0,0,0,.8,0l2.41-1.39C300.35,302.08,300.35,301.87,300.12,301.74Z"/><path class="cls-5" d="M303.88,303.91l-2.41-1.39a.87.87,0,0,0-.8,0l-2.41,1.39c-.23.13-.23.34,0,.47l2.41,1.39a.93.93,0,0,0,.8,0l2.41-1.39A.25.25,0,0,0,303.88,303.91Z"/><path class="cls-5" d="M307.63,306.08l-2.41-1.39a.87.87,0,0,0-.8,0L302,306.08c-.22.13-.22.33,0,.46l2.41,1.39a.87.87,0,0,0,.8,0l2.41-1.39C307.86,306.41,307.86,306.21,307.63,306.08Z"/><path class="cls-5" d="M311.39,308.25,309,306.86a.87.87,0,0,0-.8,0l-2.41,1.39c-.23.12-.23.33,0,.46l2.41,1.39a.87.87,0,0,0,.8,0l2.41-1.39C311.61,308.58,311.61,308.37,311.39,308.25Z"/><path class="cls-5" d="M315.14,310.41,312.73,309a.87.87,0,0,0-.8,0l-2.41,1.39a.25.25,0,0,0,0,.47l2.41,1.39a.93.93,0,0,0,.8,0l2.41-1.39A.25.25,0,0,0,315.14,310.41Z"/><path class="cls-5" d="M318.9,312.58l-2.41-1.39a.87.87,0,0,0-.8,0l-2.41,1.39c-.23.13-.23.34,0,.46l2.41,1.39a.87.87,0,0,0,.8,0L318.9,313C319.12,312.92,319.12,312.71,318.9,312.58Z"/><path class="cls-5" d="M322.65,314.75l-2.41-1.39a.87.87,0,0,0-.8,0L317,314.75c-.22.12-.22.33,0,.46l2.41,1.39a.87.87,0,0,0,.8,0l2.41-1.39C322.87,315.08,322.87,314.87,322.65,314.75Z"/><path class="cls-5" d="M326.41,316.91,324,315.52a1,1,0,0,0-.81,0l-2.4,1.39c-.23.13-.23.34,0,.47l2.4,1.39a.89.89,0,0,0,.81,0l2.41-1.39A.25.25,0,0,0,326.41,316.91Z"/><path class="cls-5" d="M330.16,319.08l-2.41-1.39a.87.87,0,0,0-.8,0l-2.41,1.39c-.22.13-.22.34,0,.46l2.41,1.4a.93.93,0,0,0,.8,0l2.41-1.4C330.38,319.42,330.38,319.21,330.16,319.08Z"/><path class="cls-5" d="M333.92,321.25l-2.41-1.39a.89.89,0,0,0-.81,0l-2.41,1.39c-.22.13-.22.33,0,.46l2.41,1.39a.89.89,0,0,0,.81,0l2.41-1.39C334.14,321.58,334.14,321.38,333.92,321.25Z"/><path class="cls-5" d="M342.51,326.21l-4.84-2.79-.8-.47-1.61-.93a.93.93,0,0,0-.8,0l-2.41,1.4c-.22.12-.22.33,0,.46l1.61.93.8.46,4.84,2.79a.87.87,0,0,0,.8,0l2.41-1.39C342.73,326.54,342.73,326.33,342.51,326.21Z"/><path class="cls-5" d="M335.64,330.17l-2.41-1.39c-.22-.13-.22-.34,0-.46l2.41-1.39a.87.87,0,0,1,.8,0l2.41,1.39c.22.12.22.33,0,.46l-2.41,1.39A.87.87,0,0,1,335.64,330.17Z"/><path class="cls-5" d="M330.82,325.37l1.07-.61a.87.87,0,0,1,.8,0l2.41,1.39c.22.13.22.34,0,.46l-1.06.62Z"/><path class="cls-5" d="M330.54,325.54l-1.06.61c-.23.13-.23.34,0,.46l2.41,1.39a.87.87,0,0,0,.8,0l1.06-.61Z"/><path class="cls-5" d="M328.13,325.84l-2.41-1.39a.25.25,0,0,1,0-.47l2.41-1.39a.87.87,0,0,1,.8,0l2.41,1.39c.23.13.23.34,0,.47l-2.41,1.39A.93.93,0,0,1,328.13,325.84Z"/><path class="cls-5" d="M324.38,323.67,322,322.28c-.23-.13-.23-.34,0-.46l2.41-1.4a.93.93,0,0,1,.8,0l2.41,1.4c.22.12.22.33,0,.46l-2.41,1.39A.87.87,0,0,1,324.38,323.67Z"/><path class="cls-5" d="M320.62,321.5l-3.43-2c-.23-.13-.23-.34,0-.46l2.41-1.39a.87.87,0,0,1,.8,0l3.43,2c.23.13.23.33,0,.46l-2.41,1.39A.87.87,0,0,1,320.62,321.5Z"/><path class="cls-5" d="M298.36,308.66a.25.25,0,0,1,0-.47l2.41-1.39a.89.89,0,0,1,.81,0l17.47,10.09c.22.13.22.33,0,.46l-2.41,1.39a.87.87,0,0,1-.8,0Z"/><path class="cls-5" d="M297,307.88,293.66,306a.25.25,0,0,1,0-.47l2.41-1.39a.89.89,0,0,1,.81,0l3.35,1.94c.22.12.22.33,0,.46l-2.41,1.39A.87.87,0,0,1,297,307.88Z"/><path class="cls-5" d="M292.32,305.17l-2.41-1.39a.25.25,0,0,1,0-.47l2.41-1.39a.93.93,0,0,1,.8,0l2.41,1.39a.25.25,0,0,1,0,.47l-2.41,1.39A.87.87,0,0,1,292.32,305.17Z"/><path class="cls-5" d="M288.56,303l-2.4-1.39c-.23-.13-.23-.33,0-.46l2.4-1.39a.89.89,0,0,1,.81,0l2.41,1.39c.22.13.22.33,0,.46L289.37,303A.89.89,0,0,1,288.56,303Z"/><path class="cls-5" d="M284.81,300.83l-2.41-1.39c-.22-.12-.22-.33,0-.46l2.41-1.39a.87.87,0,0,1,.8,0L288,299c.22.13.22.34,0,.46l-2.41,1.39A.87.87,0,0,1,284.81,300.83Z"/><path class="cls-1" d="M249.72,223.43l-28.45,16.45a7.82,7.82,0,0,1-7.11,0l-28.45-16.45c-2-1.14-2-3,0-4.12l28.45-16.45a7.82,7.82,0,0,1,7.11,0l28.45,16.45C251.69,220.45,251.69,222.29,249.72,223.43Z"/><path class="cls-5" d="M227.93,236l-6.66,3.84a7.82,7.82,0,0,1-7.11,0l-28.45-16.45c-2-1.14-2-3,0-4.12l6.45-3.72Z"/><path class="cls-2" d="M217.72,240.73a7.24,7.24,0,0,1-3.56-.85l-28.45-16.45a2.52,2.52,0,0,1-1.47-2.06v3.2a2.49,2.49,0,0,0,1.47,2.05l28.45,16.46a7.24,7.24,0,0,0,3.56.85Z"/><path class="cls-3" d="M217.72,243.93a7.23,7.23,0,0,0,3.55-.85l28.45-16.46a2.49,2.49,0,0,0,1.47-2.05v-3.2a2.52,2.52,0,0,1-1.47,2.06l-28.45,16.45a7.23,7.23,0,0,1-3.55.85Z"/><path class="cls-2" d="M267.7,252.29l-100-57.71c-4.17-2.41-7.54-7.73-7.54-11.9V104.6c0-4.17,3.37-5.59,7.54-3.19l100,57.71c7.54,4.55,7.54,12.35,7.54,16.51V249.1C275.24,253.27,271.86,254.69,267.7,252.29Z"/><path class="cls-1" d="M271.46,250.94a5.34,5.34,0,0,1-2.51-.83L169,192.4c-3.35-1.93-6.29-6.47-6.29-9.72V104.6c0-1.84.85-1.84,1.26-1.84a5.34,5.34,0,0,1,2.51.83l99.94,57.7c6.3,3.82,6.3,10.4,6.3,14.34V249.1C272.72,250.94,271.87,250.94,271.46,250.94Z"/><path class="cls-6" d="M267.7,159.12a14.58,14.58,0,0,1,6.6,8.4,26.89,26.89,0,0,1,.94,8.11V249.1c0,2.08-.85,3.48-2.21,4.06l4.35-2.52c1.37-.57,2.21-2,2.21-4V173.12a26.83,26.83,0,0,0-.94-8.11,14.51,14.51,0,0,0-6.6-8.4Z"/><path class="cls-5" d="M272.05,156.61l-50-28.86-50-28.85c-2.08-1.21-4-1.45-5.33-.87l-4.35,2.51c1.36-.58,3.25-.33,5.33.87l50,28.86,50,28.85Z"/><path class="cls-1" d="M194.57,266l-47.32-27.32c-.4-.22-.4-.59,0-.82L166,227a1.55,1.55,0,0,1,1.42,0l47.33,27.31a.44.44,0,0,1,0,.83L196,266A1.61,1.61,0,0,1,194.57,266Z"/><path class="cls-5" d="M207.91,258.11,204,255.85a.22.22,0,0,1,0-.41l2.14-1.23a.8.8,0,0,1,.71,0l3.92,2.26c.19.12.19.3,0,.41l-2.14,1.23A.75.75,0,0,1,207.91,258.11Z"/><path class="cls-5" d="M202.8,255.16l-2.13-1.23c-.2-.11-.2-.29,0-.41l2.13-1.23a.8.8,0,0,1,.71,0l2.14,1.23c.19.12.19.3,0,.41l-2.14,1.23A.75.75,0,0,1,202.8,255.16Z"/><path class="cls-5" d="M199.48,253.25,197.34,252c-.19-.11-.19-.29,0-.41l2.14-1.23a.8.8,0,0,1,.71,0l2.13,1.23c.2.12.2.3,0,.41l-2.13,1.24A.8.8,0,0,1,199.48,253.25Z"/><path class="cls-5" d="M196.15,251.33,194,250.1c-.2-.12-.2-.3,0-.42l2.13-1.23a.8.8,0,0,1,.71,0l2.14,1.23a.23.23,0,0,1,0,.42l-2.14,1.23A.8.8,0,0,1,196.15,251.33Z"/><path class="cls-5" d="M192.83,249.41l-2.14-1.23c-.19-.12-.19-.3,0-.41l2.14-1.24a.8.8,0,0,1,.71,0l2.13,1.24c.2.11.2.29,0,.41l-2.13,1.23A.8.8,0,0,1,192.83,249.41Z"/><path class="cls-5" d="M189.5,247.49l-2.13-1.23c-.2-.12-.2-.3,0-.41l2.13-1.23a.75.75,0,0,1,.71,0l2.14,1.23c.19.11.19.29,0,.41l-2.14,1.23A.8.8,0,0,1,189.5,247.49Z"/><path class="cls-5" d="M186.18,245.57,184,244.34a.22.22,0,0,1,0-.41l2.14-1.23a.75.75,0,0,1,.71,0l2.13,1.23a.22.22,0,0,1,0,.41l-2.13,1.23A.8.8,0,0,1,186.18,245.57Z"/><path class="cls-5" d="M182.85,243.65l-2.13-1.23a.22.22,0,0,1,0-.41l2.13-1.23a.75.75,0,0,1,.71,0L185.7,242a.22.22,0,0,1,0,.41l-2.14,1.23A.8.8,0,0,1,182.85,243.65Z"/><path class="cls-5" d="M179.53,241.73l-2.14-1.23a.22.22,0,0,1,0-.41l2.14-1.23a.8.8,0,0,1,.71,0l2.13,1.23a.22.22,0,0,1,0,.41l-2.13,1.23A.75.75,0,0,1,179.53,241.73Z"/><path class="cls-5" d="M176.2,239.81l-2.13-1.23a.22.22,0,0,1,0-.41l2.13-1.23a.8.8,0,0,1,.71,0l2.14,1.23a.22.22,0,0,1,0,.41l-2.14,1.23A.75.75,0,0,1,176.2,239.81Z"/><path class="cls-5" d="M172.88,237.89l-2.14-1.23c-.19-.11-.19-.29,0-.41l2.14-1.23a.8.8,0,0,1,.71,0l2.13,1.23c.2.12.2.3,0,.41l-2.13,1.23A.75.75,0,0,1,172.88,237.89Z"/><path class="cls-5" d="M169.55,236l-2.13-1.24c-.2-.11-.2-.29,0-.41l2.13-1.23a.8.8,0,0,1,.71,0l2.14,1.23c.19.12.19.3,0,.41L170.26,236A.8.8,0,0,1,169.55,236Z"/><path class="cls-5" d="M166.23,234.06l-2.14-1.24c-.19-.11-.19-.29,0-.41l2.14-1.23a.8.8,0,0,1,.71,0l2.13,1.23c.2.12.2.3,0,.41l-2.13,1.24A.8.8,0,0,1,166.23,234.06Z"/><path class="cls-5" d="M162.9,232.14l-2.13-1.23c-.2-.12-.2-.3,0-.41l2.13-1.24a.8.8,0,0,1,.71,0l2.14,1.24c.19.11.19.29,0,.41l-2.14,1.23A.8.8,0,0,1,162.9,232.14Z"/><path class="cls-5" d="M164,229l3.92,2.26a.8.8,0,0,0,.71,0l2.13-1.23a.22.22,0,0,0,0-.41l-3.92-2.26a.75.75,0,0,0-.71,0L164,228.63C163.81,228.74,163.81,228.92,164,229Z"/><path class="cls-5" d="M169.12,232l2.13,1.23a.8.8,0,0,0,.71,0L174.1,232c.19-.12.19-.3,0-.41L172,230.35a.75.75,0,0,0-.71,0l-2.13,1.23C168.92,231.69,168.92,231.87,169.12,232Z"/><path class="cls-5" d="M172.44,233.91l2.14,1.23a.8.8,0,0,0,.71,0l2.13-1.23c.2-.12.2-.3,0-.41l-2.13-1.24a.8.8,0,0,0-.71,0l-2.14,1.24C172.25,233.61,172.25,233.79,172.44,233.91Z"/><path class="cls-5" d="M175.77,235.83l2.13,1.23a.8.8,0,0,0,.71,0l2.14-1.23c.19-.12.19-.3,0-.41l-2.14-1.24a.8.8,0,0,0-.71,0l-2.13,1.24C175.57,235.53,175.57,235.71,175.77,235.83Z"/><path class="cls-5" d="M179.09,237.74l2.14,1.24a.8.8,0,0,0,.71,0l2.13-1.24c.2-.11.2-.29,0-.41l-2.13-1.23a.8.8,0,0,0-.71,0l-2.14,1.23C178.9,237.45,178.9,237.63,179.09,237.74Z"/><path class="cls-5" d="M182.42,239.66l2.13,1.23a.75.75,0,0,0,.71,0l2.14-1.23c.19-.11.19-.29,0-.41L185.26,238a.8.8,0,0,0-.71,0l-2.13,1.23C182.22,239.37,182.22,239.55,182.42,239.66Z"/><path class="cls-5" d="M185.74,241.58l2.14,1.23a.75.75,0,0,0,.71,0l2.13-1.23c.2-.11.2-.29,0-.41l-2.13-1.23a.8.8,0,0,0-.71,0l-2.14,1.23C185.55,241.29,185.55,241.47,185.74,241.58Z"/><path class="cls-5" d="M189.07,243.5l2.13,1.23a.75.75,0,0,0,.71,0l2.14-1.23a.22.22,0,0,0,0-.41l-2.14-1.23a.8.8,0,0,0-.71,0l-2.13,1.23A.22.22,0,0,0,189.07,243.5Z"/><path class="cls-5" d="M192.39,245.42l2.14,1.23a.8.8,0,0,0,.71,0l2.13-1.23a.22.22,0,0,0,0-.41l-2.13-1.23a.75.75,0,0,0-.71,0L192.39,245A.22.22,0,0,0,192.39,245.42Z"/><path class="cls-5" d="M195.72,247.34l2.13,1.23a.81.81,0,0,0,.71,0l2.13-1.23a.22.22,0,0,0,0-.41l-2.13-1.23a.75.75,0,0,0-.71,0l-2.13,1.23A.22.22,0,0,0,195.72,247.34Z"/><path class="cls-5" d="M199,249.26l2.13,1.23a.83.83,0,0,0,.72,0l2.13-1.23c.2-.12.2-.3,0-.41l-2.13-1.23a.77.77,0,0,0-.72,0L199,248.85C198.84,249,198.84,249.14,199,249.26Z"/><path class="cls-5" d="M202.37,251.18l2.13,1.23a.81.81,0,0,0,.71,0l2.13-1.23c.2-.12.2-.3,0-.41l-2.13-1.23a.75.75,0,0,0-.71,0l-2.13,1.23C202.17,250.88,202.17,251.06,202.37,251.18Z"/><path class="cls-5" d="M205.69,253.1l2.13,1.23a.83.83,0,0,0,.72,0l2.13-1.23c.2-.12.2-.3,0-.41l-2.13-1.24a.83.83,0,0,0-.72,0l-2.13,1.24C205.49,252.8,205.49,253,205.69,253.1Z"/><path class="cls-5" d="M209,255l2.13,1.24a.81.81,0,0,0,.71,0L214,255c.2-.11.2-.29,0-.41l-2.13-1.23a.81.81,0,0,0-.71,0L209,254.6C208.82,254.72,208.82,254.9,209,255Z"/><path class="cls-5" d="M157.53,232.77l3.92,2.27a.8.8,0,0,0,.71,0l2.14-1.23a.23.23,0,0,0,0-.42l-3.92-2.26a.8.8,0,0,0-.71,0l-2.14,1.23C157.34,232.48,157.34,232.66,157.53,232.77Z"/><path class="cls-5" d="M162.64,235.72l2.14,1.24a.8.8,0,0,0,.71,0l2.13-1.24c.2-.11.2-.29,0-.41l-2.13-1.23a.8.8,0,0,0-.71,0l-2.14,1.23C162.45,235.43,162.45,235.61,162.64,235.72Z"/><path class="cls-5" d="M166,237.64l2.13,1.23a.75.75,0,0,0,.71,0l2.14-1.23c.19-.11.19-.29,0-.41L168.81,236a.8.8,0,0,0-.71,0L166,237.23C165.77,237.35,165.77,237.53,166,237.64Z"/><path class="cls-5" d="M169.29,239.56l2.14,1.23a.75.75,0,0,0,.71,0l2.13-1.23c.2-.11.2-.29,0-.41l-2.13-1.23a.8.8,0,0,0-.71,0l-2.14,1.23C169.1,239.27,169.1,239.45,169.29,239.56Z"/><path class="cls-5" d="M172.62,241.48l2.13,1.23a.75.75,0,0,0,.71,0l2.14-1.23a.22.22,0,0,0,0-.41l-2.14-1.23a.8.8,0,0,0-.71,0l-2.13,1.23A.22.22,0,0,0,172.62,241.48Z"/><path class="cls-5" d="M175.94,243.4l2.14,1.23a.8.8,0,0,0,.71,0l2.13-1.23a.22.22,0,0,0,0-.41l-2.13-1.23a.75.75,0,0,0-.71,0L175.94,243A.22.22,0,0,0,175.94,243.4Z"/><path class="cls-5" d="M179.27,245.32l2.13,1.23a.8.8,0,0,0,.71,0l2.14-1.23a.22.22,0,0,0,0-.41l-2.14-1.23a.75.75,0,0,0-.71,0l-2.13,1.23A.22.22,0,0,0,179.27,245.32Z"/><path class="cls-5" d="M182.59,247.24l2.14,1.23a.8.8,0,0,0,.71,0l2.13-1.23c.2-.12.2-.3,0-.41l-2.13-1.23a.75.75,0,0,0-.71,0l-2.14,1.23C182.4,246.94,182.4,247.12,182.59,247.24Z"/><path class="cls-5" d="M185.92,249.16l2.13,1.23a.8.8,0,0,0,.71,0l2.14-1.23c.19-.12.19-.3,0-.41l-2.14-1.24a.8.8,0,0,0-.71,0l-2.13,1.24C185.72,248.86,185.72,249,185.92,249.16Z"/><path class="cls-5" d="M189.24,251.08l2.14,1.23a.8.8,0,0,0,.71,0l2.13-1.23c.2-.12.2-.3,0-.41l-2.13-1.24a.8.8,0,0,0-.71,0l-2.14,1.24C189.05,250.78,189.05,251,189.24,251.08Z"/><path class="cls-5" d="M192.57,253l2.13,1.24a.8.8,0,0,0,.71,0l2.14-1.24c.19-.11.19-.29,0-.41l-2.14-1.23a.8.8,0,0,0-.71,0l-2.13,1.23C192.37,252.7,192.37,252.88,192.57,253Z"/><path class="cls-5" d="M195.89,254.91l2.14,1.24a.8.8,0,0,0,.71,0l2.13-1.24c.2-.11.2-.29,0-.41l-2.13-1.23a.8.8,0,0,0-.71,0l-2.14,1.23C195.7,254.62,195.7,254.8,195.89,254.91Z"/><path class="cls-5" d="M199.22,256.83l2.13,1.23a.75.75,0,0,0,.71,0l2.13-1.23c.2-.11.2-.29,0-.41l-2.13-1.23a.81.81,0,0,0-.71,0l-2.13,1.23C199,256.54,199,256.72,199.22,256.83Z"/><path class="cls-5" d="M202.54,258.75l2.14,1.23a.75.75,0,0,0,.71,0l2.13-1.23a.22.22,0,0,0,0-.41l-2.13-1.23a.8.8,0,0,0-.71,0l-2.14,1.23A.22.22,0,0,0,202.54,258.75Z"/><path class="cls-5" d="M154.29,234.64l4.68,2.7a.8.8,0,0,0,.71,0l2.13-1.23a.22.22,0,0,0,0-.41l-4.67-2.7a.8.8,0,0,0-.71,0l-2.14,1.23C154.1,234.35,154.1,234.53,154.29,234.64Z"/><path class="cls-5" d="M160.16,238l2.13,1.23a.8.8,0,0,0,.71,0l2.14-1.23c.19-.12.19-.3,0-.41L163,236.39a.75.75,0,0,0-.71,0l-2.13,1.23C160,237.73,160,237.91,160.16,238Z"/><path class="cls-5" d="M163.48,240l2.14,1.23a.8.8,0,0,0,.71,0l2.13-1.23c.2-.12.2-.3,0-.41l-2.13-1.24a.8.8,0,0,0-.71,0l-2.14,1.24C163.29,239.65,163.29,239.83,163.48,240Z"/><path class="cls-5" d="M166.81,241.87l2.13,1.23a.8.8,0,0,0,.71,0l2.14-1.23a.23.23,0,0,0,0-.42l-2.14-1.23a.8.8,0,0,0-.71,0l-2.13,1.23C166.61,241.57,166.61,241.75,166.81,241.87Z"/><path class="cls-5" d="M170.13,243.78l2.14,1.24a.8.8,0,0,0,.71,0l2.13-1.24c.2-.11.2-.29,0-.41L173,242.14a.8.8,0,0,0-.71,0l-2.14,1.23C169.94,243.49,169.94,243.67,170.13,243.78Z"/><path class="cls-5" d="M173.46,245.7l2.13,1.23a.75.75,0,0,0,.71,0l2.14-1.23c.19-.11.19-.29,0-.41l-2.14-1.23a.8.8,0,0,0-.71,0l-2.13,1.23C173.26,245.41,173.26,245.59,173.46,245.7Z"/><path class="cls-5" d="M176.78,247.62l2.14,1.23a.75.75,0,0,0,.71,0l2.13-1.23c.2-.11.2-.29,0-.41L179.63,246a.8.8,0,0,0-.71,0l-2.14,1.23C176.59,247.33,176.59,247.51,176.78,247.62Z"/><path class="cls-5" d="M180.11,249.54l2.13,1.23a.75.75,0,0,0,.71,0l2.14-1.23a.22.22,0,0,0,0-.41L183,247.9a.8.8,0,0,0-.71,0l-2.13,1.23A.22.22,0,0,0,180.11,249.54Z"/><path class="cls-5" d="M183.43,251.46l2.14,1.23a.8.8,0,0,0,.71,0l2.13-1.23a.22.22,0,0,0,0-.41l-2.13-1.23a.75.75,0,0,0-.71,0l-2.14,1.23A.22.22,0,0,0,183.43,251.46Z"/><path class="cls-5" d="M186.76,253.38l2.13,1.23a.8.8,0,0,0,.71,0l2.14-1.23a.22.22,0,0,0,0-.41l-2.14-1.23a.75.75,0,0,0-.71,0L186.76,253A.22.22,0,0,0,186.76,253.38Z"/><path class="cls-5" d="M190.08,255.3l2.14,1.23a.8.8,0,0,0,.71,0l2.13-1.23c.2-.12.2-.3,0-.41l-2.13-1.23a.75.75,0,0,0-.71,0l-2.14,1.23C189.89,255,189.89,255.18,190.08,255.3Z"/><path class="cls-5" d="M193.41,257.22l2.13,1.23a.8.8,0,0,0,.71,0l2.14-1.23c.19-.12.19-.3,0-.41l-2.14-1.23a.75.75,0,0,0-.71,0l-2.13,1.23C193.21,256.92,193.21,257.1,193.41,257.22Z"/><path class="cls-5" d="M201.44,261.85a.8.8,0,0,0,.71,0l2.13-1.23a.22.22,0,0,0,0-.41l-4.7-2.72a.8.8,0,0,0-.71,0l-2.14,1.24c-.19.11-.19.29,0,.41Z"/><path class="cls-5" d="M160.19,238.5l-6.29-3.63a.8.8,0,0,0-.71,0l-2.13,1.23a.22.22,0,0,0,0,.41l6.28,3.63a.8.8,0,0,0,.71,0l2.14-1.23C160.38,238.79,160.39,238.61,160.19,238.5Z"/><path class="cls-5" d="M163.51,240.42l-2.13-1.23a.75.75,0,0,0-.71,0l-2.13,1.23c-.2.11-.2.29,0,.41l2.13,1.23a.81.81,0,0,0,.71,0l2.13-1.23C163.71,240.71,163.71,240.53,163.51,240.42Z"/><path class="cls-5" d="M166.84,242.34l-2.14-1.24a.8.8,0,0,0-.71,0l-2.13,1.24c-.2.11-.2.29,0,.41L164,244a.8.8,0,0,0,.71,0l2.14-1.23C167,242.63,167,242.45,166.84,242.34Z"/><path class="cls-5" d="M170.16,244.25,168,243a.8.8,0,0,0-.71,0l-2.14,1.23c-.19.12-.19.3,0,.41l2.14,1.24a.8.8,0,0,0,.71,0l2.13-1.24C170.36,244.55,170.36,244.37,170.16,244.25Z"/><path class="cls-5" d="M173.49,246.17l-2.14-1.23a.8.8,0,0,0-.71,0l-2.13,1.23c-.2.12-.2.3,0,.41l2.13,1.24a.8.8,0,0,0,.71,0l2.14-1.24C173.68,246.47,173.68,246.29,173.49,246.17Z"/><path class="cls-5" d="M176.81,248.09l-2.13-1.23a.8.8,0,0,0-.71,0l-2.14,1.23c-.19.12-.19.3,0,.41l2.14,1.23a.75.75,0,0,0,.71,0l2.13-1.23C177,248.39,177,248.21,176.81,248.09Z"/><path class="cls-5" d="M180.14,250,178,248.78a.8.8,0,0,0-.71,0L175.16,250a.22.22,0,0,0,0,.41l2.13,1.23a.75.75,0,0,0,.71,0l2.14-1.23A.22.22,0,0,0,180.14,250Z"/><path class="cls-5" d="M183.46,251.93l-2.13-1.23a.8.8,0,0,0-.71,0l-2.14,1.23a.22.22,0,0,0,0,.41l2.14,1.23a.75.75,0,0,0,.71,0l2.13-1.23A.22.22,0,0,0,183.46,251.93Z"/><path class="cls-5" d="M186.79,253.85l-2.14-1.23a.75.75,0,0,0-.71,0l-2.13,1.23a.22.22,0,0,0,0,.41l2.13,1.23a.8.8,0,0,0,.71,0l2.14-1.23A.22.22,0,0,0,186.79,253.85Z"/><path class="cls-5" d="M190.11,255.77,188,254.54a.75.75,0,0,0-.71,0l-2.14,1.23c-.19.11-.19.29,0,.41l2.14,1.23a.8.8,0,0,0,.71,0l2.13-1.23C190.31,256.06,190.31,255.88,190.11,255.77Z"/><path class="cls-5" d="M193.44,257.69l-2.14-1.23a.75.75,0,0,0-.71,0l-2.13,1.23c-.2.11-.2.29,0,.41l2.13,1.23a.8.8,0,0,0,.71,0l2.14-1.23C193.63,258,193.63,257.8,193.44,257.69Z"/><path class="cls-5" d="M201.05,262.08l-4.29-2.47-.71-.41-1.42-.83a.8.8,0,0,0-.71,0l-2.14,1.24c-.19.11-.19.29,0,.41l1.43.82.71.41,4.28,2.47a.8.8,0,0,0,.71,0l2.14-1.23C201.24,262.37,201.24,262.19,201.05,262.08Z"/><path class="cls-5" d="M195,265.59l-2.13-1.23c-.2-.12-.2-.3,0-.41l2.13-1.24a.8.8,0,0,1,.71,0l2.14,1.24c.19.11.19.29,0,.41l-2.14,1.23A.8.8,0,0,1,195,265.59Z"/><path class="cls-5" d="M190.7,261.34l.94-.54a.75.75,0,0,1,.71,0l2.13,1.23c.2.11.2.29,0,.41l-.94.54Z"/><path class="cls-5" d="M190.45,261.48l-.95.55c-.19.11-.19.29,0,.41l2.14,1.23a.8.8,0,0,0,.71,0l.94-.54Z"/><path class="cls-5" d="M188.31,261.75l-2.13-1.23a.22.22,0,0,1,0-.41l2.13-1.23a.75.75,0,0,1,.71,0l2.14,1.23a.22.22,0,0,1,0,.41L189,261.75A.8.8,0,0,1,188.31,261.75Z"/><path class="cls-5" d="M185,259.83l-2.13-1.23a.22.22,0,0,1,0-.41L185,257a.75.75,0,0,1,.71,0l2.13,1.23a.22.22,0,0,1,0,.41l-2.13,1.23A.81.81,0,0,1,185,259.83Z"/><path class="cls-5" d="M181.66,257.91l-3-1.75c-.19-.12-.19-.3,0-.41l2.14-1.24a.8.8,0,0,1,.71,0l3,1.76a.22.22,0,0,1,0,.41l-2.13,1.23A.76.76,0,0,1,181.66,257.91Z"/><path class="cls-5" d="M162,246.54c-.19-.12-.19-.3,0-.41l2.14-1.23a.75.75,0,0,1,.71,0l15.48,8.93c.19.11.19.29,0,.41l-2.14,1.23a.8.8,0,0,1-.71,0Z"/><path class="cls-5" d="M160.76,245.85l-3-1.71c-.19-.12-.19-.3,0-.41l2.14-1.24a.8.8,0,0,1,.71,0l3,1.72a.22.22,0,0,1,0,.41l-2.14,1.23A.8.8,0,0,1,160.76,245.85Z"/><path class="cls-5" d="M156.6,243.45l-2.13-1.23c-.2-.12-.2-.3,0-.41l2.13-1.23a.75.75,0,0,1,.71,0l2.14,1.23c.19.11.19.29,0,.41l-2.14,1.23A.8.8,0,0,1,156.6,243.45Z"/><path class="cls-5" d="M153.28,241.53l-2.14-1.23c-.19-.12-.19-.3,0-.41l2.14-1.23a.75.75,0,0,1,.71,0l2.13,1.23c.2.11.2.29,0,.41L154,241.53A.8.8,0,0,1,153.28,241.53Z"/><path class="cls-5" d="M150,239.61l-2.13-1.23a.22.22,0,0,1,0-.41l2.13-1.23a.75.75,0,0,1,.71,0L152.8,238a.22.22,0,0,1,0,.41l-2.14,1.23A.8.8,0,0,1,150,239.61Z"/><path class="cls-5" d="M228,267.07a2.83,2.83,0,0,0,0-.77,4.61,4.61,0,0,0-2-3.07l-1.9-1.41a9.65,9.65,0,0,0-4.4-1.71c-5.31-.88-12,4.3-13.25,7.66a4.63,4.63,0,0,0,2,3.07l1.91,1.41a9.63,9.63,0,0,0,4.4,1.7c.24,0,.49.06.73.07C217.32,270.79,223.14,266.54,228,267.07Z"/><path class="cls-1" d="M218.67,273.45a21.9,21.9,0,0,1,8.09-4.67,2.44,2.44,0,0,0,1.23-1.71c-4.85-.53-10.67,3.72-12.5,6.95A5.92,5.92,0,0,0,218.67,273.45Z"/></g></g></svg>