<?xml version="1.0" encoding="UTF-8"?>
<svg width="122px" height="113px" viewBox="0 0 122 113" version="1.1" xmlns="http://www.w3.org/2000/svg" xmlns:xlink="http://www.w3.org/1999/xlink">
    <title>icon__clock</title>
    <g id="Page-4" stroke="none" stroke-width="1" fill="none" fill-rule="evenodd">
        <g id="Solutions" transform="translate(-1008.000000, -2423.000000)" fill-rule="nonzero">
            <g id="Card__new" transform="translate(-274.000000, 2379.000000)">
                <g id="icon__clock" transform="translate(1282.000000, 44.000000)">
                    <path d="M61,112 C53.9916435,112 47.3857939,110.674095 41.1824513,108.022284 C34.9791086,105.370474 29.5807799,101.724234 24.9874652,97.0835655 C20.3941504,92.4428969 16.7479109,87.0445682 14.0487465,80.8885794 C11.3495822,74.7325905 10,68.1030641 10,61 C10,53.9916435 11.3495822,47.3857939 14.0487465,41.1824513 C16.7479109,34.9791086 20.3941504,29.5571031 24.9874652,24.9164345 C29.5807799,20.275766 34.9791086,16.6295265 41.1824513,13.9777159 C47.3857939,11.3259053 53.9916435,10 61,10 C68.0083565,10 74.6142061,11.3259053 80.8175487,13.9777159 C87.0208914,16.6295265 92.4428969,20.275766 97.0835655,24.9164345 C101.724234,29.5571031 105.370474,34.9791086 108.022284,41.1824513 C110.674095,47.3857939 112,53.9916435 112,61 C112,68.1030641 110.674095,74.7325905 108.022284,80.8885794 C105.370474,87.0445682 101.724234,92.4428969 97.0835655,97.0835655 C92.4428969,101.724234 87.0208914,105.370474 80.8175487,108.022284 C74.6142061,110.674095 68.0083565,112 61,112 L61,112 Z" id="Path" stroke="#00B948"></path>
                    <polygon id="Path" fill="#D51130" points="5.91262136 29 0 22.91 23.0873786 0 29 6.09"></polygon>
                    <polygon id="Path" fill="#D51130" points="116.087379 29 93 6.09 98.9126214 0 122 22.91"></polygon>
                    <polygon id="Path" fill="#22272A" points="54.9118457 80 87 48.1198502 80.6969697 42 54.9118457 67.6179775 41.7327824 54.3820225 35 61.071161"></polygon>
                </g>
            </g>
        </g>
    </g>
</svg>