<?xml version="1.0" encoding="UTF-8"?>
<svg width="68px" height="71px" viewBox="0 0 68 71" version="1.1" xmlns="http://www.w3.org/2000/svg" xmlns:xlink="http://www.w3.org/1999/xlink">
    <title>icon__digital__doc</title>
    <g id="Page-4" stroke="none" stroke-width="1" fill="none" fill-rule="evenodd">
        <g id="Solutions-mobile" transform="translate(-44.000000, -990.000000)" fill-rule="nonzero">
            <g id="Group-17" transform="translate(24.000000, 127.000000)">
                <g id="icon__digital__doc" transform="translate(20.000000, 863.000000)">
                    <polygon id="Path" fill="#D51130" points="12.5 1 12.5 24.1666667 20.5 19.25 28.5 24.1666667 28.5 1"></polygon>
                    <path d="M50.6666667,70 C46.2222222,70 42.4444444,68.4444444 39.3333333,65.3333333 C36.2222222,62.2222222 34.6666667,58.4444444 34.6666667,54 C34.6666667,49.5555556 36.2222222,45.7777778 39.3333333,42.6666667 C42.4444444,39.5555556 46.25,38 50.75,38 C55.1388889,38 58.8888889,39.5555556 62,42.6666667 C65.1111111,45.7777778 66.6666667,49.5555556 66.6666667,54 C66.6666667,58.4444444 65.1111111,62.2222222 62,65.3333333 C58.8888889,68.4444444 55.1111111,70 50.6666667,70 Z" id="Path" stroke="#D51130"></path>
                    <polygon id="Path" fill="#22272A" points="46.5833333 61.6666667 58.5 54 46.5833333 46.3333333"></polygon>
                    <path d="M48.3333333,0.5 C49.5833333,0.5 50.6462783,0.936718374 51.5214466,1.81188672 C52.396615,2.68705507 52.8333333,3.75 52.8333333,5 L52.8333333,5 L52.8333333,32.6901254 C52.5757179,32.6639755 52.3229151,32.64264 52.0749262,32.6261074 C51.6475306,32.5976144 51.2058894,32.5833333 50.75,32.5833333 C44.7791162,32.5833333 39.6900804,34.6596926 35.4821932,38.8107164 C31.2724292,42.9635917 29.1666667,48.0264393 29.1666667,54 C29.1666667,56.3774841 29.4640819,58.6841693 30.0584478,60.9201172 C30.5724658,62.8538039 31.3901699,64.6304057 32.5114052,66.25 L32.5114052,66.25 L5,66.25 C3.75,66.25 2.68705507,65.8132816 1.81188672,64.9381133 C0.936718374,64.0629449 0.5,63 0.5,61.75 L0.5,61.75 L0.5,5 C0.5,3.75 0.936718374,2.68705507 1.81188672,1.81188672 C2.68705507,0.936718374 3.75,0.5 5,0.5 L5,0.5 Z" id="Path" stroke="#00B948"></path>
                </g>
            </g>
        </g>
    </g>
</svg>