<?xml version="1.0" encoding="UTF-8"?>
<svg width="113px" height="113px" viewBox="0 0 113 113" version="1.1" xmlns="http://www.w3.org/2000/svg" xmlns:xlink="http://www.w3.org/1999/xlink">
    <title>icon__puzzle</title>
    <g id="Page-4" stroke="none" stroke-width="1" fill="none" fill-rule="evenodd">
        <g id="Carosel-cards" transform="translate(-2834.000000, -44.000000)">
            <g id="icon__puzzle" transform="translate(2835.000000, 44.000000)">
                <path d="M58.0615836,23.5921747 C57.2420659,20.1464755 55.6899492,17.4904933 53.3096229,15.7285303 C50.5505802,13.6859447 47.570516,12.6652727 44.3694304,12.6652727 C41.0590758,12.6652727 38.0231354,13.6859447 35.2640927,15.7285303 C32.8837664,17.4904933 31.3316497,20.1464755 30.512132,23.5921747 L0,23.5921747 L0,49.5857844 C3.42210702,51.3502307 6.0420801,53.8894937 7.86364433,57.1998483 C9.68520855,60.5114446 10.5953698,64.0986969 10.5953698,67.9616051 C10.5953698,71.7152442 9.68520855,75.247862 7.86364433,78.5582166 C6.0420801,81.8698129 3.42210702,84.3531997 0,86.008377 L0,112.000745 L26.4890454,112.000745 C28.1442227,108.689149 30.5170988,106.095251 33.6089154,104.220294 C36.6982485,102.342854 40.2308663,101.405375 44.2042852,101.405375 C48.1777041,101.405375 51.7090801,102.342854 54.799655,104.220294 C57.8902299,106.095251 60.263106,108.689149 61.9182833,112.000745 L88.4085703,112.000745 L88.4085703,81.6152657 C91.7723178,80.7858145 94.3736655,79.244873 96.1070694,76.9030393 C98.1484134,74.1427548 99.1690854,71.1639324 99.1690854,67.9616051 C99.1690854,64.7605195 98.1484134,61.753138 96.1070694,58.9394608 C94.3736655,56.549201 91.7723178,54.9834256 88.4085703,54.1452826" id="Stroke-1" stroke="#00B948"></path>
                <polygon id="Fill-3" fill="#434C52" points="112 19.8670945 92.1329055 19.8670945 92.1329055 0 84.6827451 0 84.6827451 19.8670945 64.8156507 19.8670945 64.8156507 27.3172549 84.6827451 27.3172549 84.6827451 47.1843493 92.1329055 47.1843493 92.1329055 27.3172549 112 27.3172549"></polygon>
                <line x1="23.1522427" y1="46.9345206" x2="71.0505657" y2="46.9345206" id="Stroke-6" stroke="#D51130"></line>
                <line x1="23.1522427" y1="65.1027302" x2="71.0505657" y2="65.1027302" id="Stroke-8" stroke="#FFD109"></line>
                <line x1="23.1522427" y1="83.2710639" x2="46.5507132" y2="83.2710639" id="Stroke-10" stroke="#434C52"></line>
            </g>
        </g>
    </g>
</svg>