<?xml version="1.0" encoding="UTF-8"?>
<svg width="97px" height="114px" viewBox="0 0 97 114" version="1.1" xmlns="http://www.w3.org/2000/svg" xmlns:xlink="http://www.w3.org/1999/xlink">
    <title>icon__doc</title>
    <g id="Page-4" stroke="none" stroke-width="1" fill="none" fill-rule="evenodd">
        <g id="Solutions" transform="translate(-247.000000, -2422.000000)">
            <g id="Card__new" transform="translate(-274.000000, 2379.000000)">
                <g id="icon__doc" transform="translate(522.000000, 44.000000)">
                    <path d="M86.6428571,95 C91.2089798,94.8825093 94.8828626,91.1975439 95,86.6176471 L95,8.38235294 C94.8828626,3.80245614 91.2089798,0.117490715 86.6428571,0 L25.3571429,0 C20.7910202,0.117490715 17.1171374,3.80245614 17,8.38235294 L17,86.6176471 C17.1171374,91.1975439 20.7910202,94.8825093 25.3571429,95 L86.6428571,95 Z" id="Path" stroke="#FFD109" fill-rule="nonzero"></path>
                    <path d="M0,19 L0,103.57863 C0.118116035,108.179845 3.82269393,111.881962 8.42696629,112 L75,112" id="Path" stroke="#D51130" fill-rule="nonzero"></path>
                    <g id="Group-3-Copy" transform="translate(34.000000, 26.000000)">
                        <polygon id="Fill-1" stroke="#00B948" points="28.7 0 21.999 3.101 15.3 0 11.5 6.55 3.95 8.1 4.8 15.45 0 21.001 4.8 26.6 3.95 33.951 11.5 35.501 15.3 42 21.999 38.901 28.7 42 32.55 35.501 40.05 33.951 39.2 26.6 44 21.001 39.2 15.45 40.05 8.1 32.55 6.55"></polygon>
                        <polygon id="Fill-2" fill="#22272A" points="19.8499 23.3503 15.0999 18.4003 12.7999 20.6503 19.8499 27.6503 31.1999 16.4003 28.9499 14.3503"></polygon>
                    </g>
                </g>
            </g>
        </g>
    </g>
</svg>