<?xml version="1.0" encoding="UTF-8"?>
<svg width="124px" height="81px" viewBox="0 0 124 81" version="1.1" xmlns="http://www.w3.org/2000/svg" xmlns:xlink="http://www.w3.org/1999/xlink">
    <title>Icon__spped</title>
    <g id="Page-4" stroke="none" stroke-width="1" fill="none" fill-rule="evenodd">
        <g id="Artboard" transform="translate(-1667.000000, -58.000000)">
            <g id="Icon__spped" transform="translate(1668.000000, 59.000000)">
                <g id="Group-3" transform="translate(50.000000, 58.000000)" fill="#3C3C3B">
                    <path d="M11,22 C4.93428833,22 0,17.0657117 0,11 C0,4.93520446 4.93428833,0 11,0 C17.0657117,0 22,4.93520446 22,11 C22,17.0657117 17.0657117,22 11,22" id="Fill-1"></path>
                </g>
                <path d="M86.6711,5.5915 C86.2471,4.9985 85.6961,4.6175 85.0191,4.4475 C84.3411,4.2785 83.6851,4.3205 83.0491,4.5745 C82.4131,4.8285 81.9691,5.2525 81.7151,5.8455 L59.4761,51.8245 C59.9791,51.7805 60.4851,51.7475 61.0001,51.7475 C66.2301,51.7475 70.9151,54.0955 74.0811,57.7835 L87.0521,7.4975 C87.2221,6.8205 87.0951,6.1845 86.6711,5.5915 Z" id="Stroke-4" stroke="#D41131"></path>
                <path d="M8.006,33.423 L0,25.417 C7.879,17.368 17.113,11.12 27.704,6.672 C38.294,2.224 49.393,0 61,0 C63.033,0 65.32,0.064 67.862,0.191 C70.404,0.318 73.03,0.55 75.741,0.889 L70.404,11.819 C68.879,11.649 67.354,11.543 65.829,11.501 C64.304,11.459 62.694,11.437 61,11.437 C50.918,11.437 41.365,13.386 32.343,17.283 C23.319,21.18 15.207,26.56 8.006,33.423 Z" id="Stroke-6" stroke="#39AB4B"></path>
                <path d="M113.9933,33.423 C110.6893,30.203 107.0893,27.28 103.1913,24.654 C99.2943,22.027 95.5663,19.91 92.0083,18.3 L94.8043,6.862 C100.3103,9.15 105.2243,11.84 109.5463,14.932 C113.8663,18.025 118.0173,21.519 122.0003,25.417 L113.9933,33.423 Z" id="Stroke-8" stroke="#39AB4B"></path>
                <path d="M23.6378,48.4186 L15.6308,40.4126 C21.4768,34.7356 28.4878,30.4156 36.6628,27.4496 C44.8388,24.4846 54.1378,23.3406 64.5588,24.0186 L59.6018,34.3126 C53.0778,34.1426 46.5338,35.3716 39.9678,37.9976 C33.4018,40.6246 27.9578,44.0976 23.6378,48.4186 Z" id="Stroke-10" stroke="#FFD009"></path>
                <path d="M98.3625,48.4186 C97.0075,46.9786 95.1225,45.4106 92.7075,43.7166 C90.2935,42.0226 88.2385,40.7936 86.5445,40.0306 L89.2125,29.1016 C92.1775,30.1186 95.2695,31.7496 98.4895,33.9946 C101.7095,36.2396 104.3355,38.3786 106.3685,40.4126 L98.3625,48.4186 Z" id="Stroke-12" stroke="#FFD009"></path>
            </g>
        </g>
    </g>
</svg>