<?xml version="1.0" encoding="UTF-8"?>
<svg width="41px" height="41px" viewBox="0 0 41 41" version="1.1" xmlns="http://www.w3.org/2000/svg" xmlns:xlink="http://www.w3.org/1999/xlink">
    <title>whatsapp__icon</title>
    <defs>
        <polygon id="path-1" points="0 0 40.1332014 0 40.1332014 40.3039 0 40.3039"></polygon>
    </defs>
    <g id="Page-4" stroke="none" stroke-width="1" fill="none" fill-rule="evenodd">
        <g id="PopUp" transform="translate(-540.000000, -702.000000)">
            <g id="Group-16" transform="translate(538.000000, 702.000000)">
                <g id="whatsapp__icon" transform="translate(2.500000, -0.000000)">
                    <path d="M1.0002,39.3027 L3.6942,29.4677 C2.0322,26.5897 1.1582,23.3237 1.1592,19.9787 C1.1642,9.5137 9.6802,0.9997 20.1462,0.9997 C25.2252,1.0017 29.9912,2.9787 33.5762,6.5657 C37.1602,10.1537 39.1342,14.9217 39.1322015,19.9937 C39.1282,30.4587 30.6102,38.9737 20.1462,38.9737 C20.1452,38.9737 20.1462,38.9737 20.1462,38.9737 L20.1382,38.9737 C16.9612,38.9727 13.8382,38.1757 11.0652,36.6627 L1.0002,39.3027 Z" id="Fill-1" fill="#FEFEFE"></path>
                    <g id="Group-5" transform="translate(0.000000, -0.000000)">
                        <mask id="mask-2" fill="white">
                            <use xlink:href="#path-1"></use>
                        </mask>
                        <g id="Clip-4"></g>
                        <path d="M20.1462,0 L20.1462,0 C9.1302,0 0.1642,8.962 0.1592,19.979 C0.1582,23.346 1.0082,26.664 2.6202,29.601 L0.0352,39.04 C-0.0588,39.385 0.0372,39.753 0.2892,40.007 C0.4792,40.199 0.7362,40.304 1.0002,40.304 C1.0852,40.304 1.1702,40.293 1.2542,40.271 L10.9412,37.731 C13.7692,39.199 16.9392,39.974 20.1382,39.975 C31.1622,39.975 40.1282,31.012 40.1332014,19.995 C40.1352,14.656 38.0582,9.636 34.2852,5.86 C30.5102,2.083 25.4892,0.002 20.1462,0 M20.1462,1 C25.2252,1.002 29.9912,2.979 33.5762,6.566 C37.1602,10.154 39.1342,14.922 39.1322015,19.994 C39.1282,30.459 30.6102,38.974 20.1462,38.974 L20.1382,38.974 C16.9612,38.973 13.8382,38.176 11.0652,36.663 L1.0002,39.303 L3.6942,29.468 C2.0322,26.59 1.1582,23.324 1.1592,19.979 C1.1642,9.514 9.6802,1 20.1462,1" id="Fill-3" fill="#8D959B" mask="url(#mask-2)"></path>
                    </g>
                    <path d="M31.3083,8.832 C28.3283,5.85 24.3673,4.207 20.1513,4.206 C11.4473,4.206 4.3683,11.282 4.3642991,19.98 C4.3633,22.961 5.1973,25.863 6.7773,28.376 L7.1533,28.973 L5.5583,34.794 L11.5313,33.228 L12.1083,33.57 C14.5303,35.008 17.3083,35.768 20.1403,35.769 L20.1463,35.769 C28.8443,35.769 35.9233,28.692 35.9263005,19.993 C35.9273,15.778 34.2883,11.814 31.3083,8.832" id="Fill-6" fill="#55B153"></path>
                    <path d="M15.4006,12.0449 C15.0456,11.2549 14.6716,11.2389 14.3326,11.2249 C14.0556,11.2129 13.7396,11.2138796 13.4236,11.2138796 C13.1076,11.2138796 12.5936,11.3329 12.1586,11.8079 C11.7236,12.2829 10.4976,13.4299 10.4976,15.7639 C10.4976,18.0979 12.1976,20.3539 12.4346,20.6699 C12.6716,20.9859 15.7166,25.9289 20.5386,27.8309 C24.5456,29.4109 25.3616,29.0969 26.2316,29.0179 C27.1016,28.9389 29.0386,27.8709 29.4336,26.7629 C29.8286,25.6549 29.8286,24.7059 29.7106,24.5079 C29.5916,24.3099 29.2756,24.1919 28.8016,23.9539 C28.3276,23.7159 25.9946,22.5689 25.5596,22.4109 C25.1246,22.2529 24.8086,22.1739 24.4916,22.6489 C24.1756,23.1229 23.2666,24.1919 22.9896,24.5079 C22.7126,24.8249 22.4356,24.8649 21.9616,24.6269 C21.4876,24.3889 19.9596,23.8889 18.1466,22.2729 C16.7366,21.0159 15.7846,19.4629 15.5076,18.9879 C15.2306,18.5139 15.4776,18.2569 15.7156,18.0199 C15.9286,17.8069 16.1896,17.4659 16.4276,17.1889 C16.6646,16.9119 16.7436,16.7139 16.9016,16.3979 C17.0596,16.0809 16.9806,15.8039 16.8616,15.5669 C16.7446,15.3289 15.8226,12.9829 15.4006,12.0449" id="Fill-8" fill="#FEFEFE"></path>
                </g>
            </g>
        </g>
    </g>
</svg>