<?xml version="1.0" encoding="UTF-8"?>
<svg width="88px" height="69px" viewBox="0 0 88 69" version="1.1" xmlns="http://www.w3.org/2000/svg" xmlns:xlink="http://www.w3.org/1999/xlink">
    <title>Icon__virt</title>
    <g id="Page-4" stroke="none" stroke-width="1" fill="none" fill-rule="evenodd">
        <g id="Solutions-mobile" transform="translate(-44.000000, -623.000000)">
            <g id="Group-17" transform="translate(24.000000, 127.000000)">
                <g id="Icon__virt" transform="translate(20.000000, 497.086595)">
                    <path d="M84,0 L84,56.2478149 C84,60.6660929 80.418278,64.2478149 76,64.2478149 L12.6642418,64.2478149 L12.6642418,64.2478149" id="Rectangle" stroke="#00B948" transform="translate(48.332121, 32.123907) rotate(-180.000000) translate(-48.332121, -32.123907) "></path>
                    <g id="devices_FILL1_wght400_GRAD0_opsz48" transform="translate(0.000000, 10.038405)" fill-rule="nonzero">
                        <polygon id="Path" fill="#00B948" points="0 56.875 0 47.03125 41.5625 47.03125 41.5625 56.875"></polygon>
                        <path d="M52.390625,56.875 C51.2239583,56.875 50.2213542,56.4375 49.3828125,55.5625 C48.5442708,54.6875 48.125,53.5208333 48.125,52.0625 L48.125,4.265625 C48.125,3.09895833 48.5442708,2.09635417 49.3828125,1.2578125 C50.2213542,0.419270833 51.2239583,0 52.390625,0 L82.140625,0 C83.5989583,0 84.8567708,0.419270833 85.9140625,1.2578125 C86.9713542,2.09635417 87.5,3.09895833 87.5,4.265625 L87.5,52.0625 C87.5,53.5208333 86.9713542,54.6875 85.9140625,55.5625 C84.8567708,56.4375 83.5989583,56.875 82.140625,56.875 L52.390625,56.875 Z" id="Path" stroke="#22272A"></path>
                        <polygon id="Path" fill="#22272A" points="54.6875 47.03125 80.9375 47.03125 80.9375 6.5625 54.6875 6.5625"></polygon>
                    </g>
                </g>
            </g>
        </g>
    </g>
</svg>