<?xml version="1.0" encoding="UTF-8"?>
<svg width="72px" height="72px" viewBox="0 0 72 72" version="1.1" xmlns="http://www.w3.org/2000/svg" xmlns:xlink="http://www.w3.org/1999/xlink">
    <title>sap__icon</title>
    <g id="Page-4" stroke="none" stroke-width="1" fill="none" fill-rule="evenodd">
        <g id="Main-page" transform="translate(-274.000000, -1668.000000)">
            <g id="Group-13" transform="translate(133.000000, 1644.000000)">
                <g id="sap__icon" transform="translate(142.000000, 25.000000)">
                    <path d="M53.3559091,56.4155944 L53.3559091,9.9120979 L53.3559091,56.4155944 Z" id="Path" stroke="#FFD109"></path>
                    <path d="M34.9992657,34.8771329 L34.9992657,25.8211888 L34.9992657,34.8771329 Z" id="Path" stroke="#00B948"></path>
                    <path d="M34.9992657,56.4155944 L34.9992657,44.9120979 L34.9992657,56.4155944 Z" id="Path" stroke="#00B948"></path>
                    <path d="M16.6426224,56.4155944 L16.6426224,34.8771329 L16.6426224,56.4155944 Z" id="Path" stroke="#D51130"></path>
                    <path d="M62.6573427,0 L7.34265734,0 C3.28706294,0 0,3.28706294 0,7.34265734 L0,62.6573427 C0,66.7129371 3.28706294,70 7.34265734,70 L62.6573427,70 C66.7129371,70 70,66.7129371 70,62.6573427 L70,7.34265734 C70,3.28706294 66.7129371,0 62.6573427,0 Z" id="Stroke-2" stroke="#8D959B"></path>
                </g>
            </g>
        </g>
    </g>
</svg>