<?xml version="1.0" encoding="utf-8"?>
<!-- Generator: Adobe Illustrator 24.0.1, SVG Export Plug-In . SVG Version: 6.00 Build 0)  -->
<svg version="1.1" id="Layer_1" xmlns="http://www.w3.org/2000/svg" xmlns:xlink="http://www.w3.org/1999/xlink" x="0px" y="0px"
	 viewBox="0 0 600 189.4" style="enable-background:new 0 0 600 189.4;" xml:space="preserve">
<style type="text/css">
	.st0{fill:#FFFFFF;}
	.st1{fill:#009A3F;}
	.st2{fill:#D51130;}
	.st3{fill:#FFD00A;}
</style>
<title>DBS-logo</title>
<g id="Layer_2_1_">
	<g id="Layer_1-2">
		<path class="st0" d="M48.2,17.8h-6.3c-1-0.1-1.8-1-1.8-2c0.1-0.9,0.8-1.7,1.8-1.8h6.3c1,0.1,1.8,1,1.8,2
			C49.9,16.9,49.2,17.7,48.2,17.8"/>
		<path class="st0" d="M271.7,17.8h-13.3c-1,0.1-2-0.7-2-1.8s0.7-2,1.8-2c0.1,0,0.2,0,0.3,0h13.3c1,0.1,1.8,1,1.8,2
			C273.4,16.9,272.6,17.7,271.7,17.8 M239.8,17.8h-13.3c-1-0.1-1.8-1-1.8-2c0.1-0.9,0.8-1.7,1.8-1.8h13.3c1,0.1,1.8,1,1.8,2
			C241.4,16.9,240.7,17.7,239.8,17.8 M207.8,17.8h-13.3c-1-0.1-1.8-1-1.8-2c0.1-0.9,0.8-1.7,1.8-1.8h13.3c1-0.1,2,0.7,2,1.8
			c0.1,1-0.7,2-1.8,2C208,17.8,207.9,17.8,207.8,17.8 M175.9,17.8h-13.3c-1,0.1-2-0.7-2-1.8s0.7-2,1.8-2c0.1,0,0.2,0,0.3,0h13.3
			c1,0.1,1.8,1,1.8,2C177.6,16.9,176.9,17.7,175.9,17.8 M144,17.8h-13.3c-1-0.1-1.8-1-1.8-2c0.1-0.9,0.8-1.7,1.8-1.8H144
			c1,0.1,1.8,1,1.8,2C145.7,16.9,144.9,17.7,144,17.8 M112.1,17.8H98.8c-1-0.1-1.8-1-1.8-2c0.1-0.9,0.8-1.7,1.8-1.8h13.3
			c1-0.1,2,0.7,2,1.8c0.1,1-0.7,2-1.8,2C112.3,17.8,112.2,17.8,112.1,17.8 M80.2,17.8H66.9c-1,0.1-2-0.7-2-1.8c-0.1-1,0.7-2,1.8-2
			c0.1,0,0.2,0,0.3,0h13.3c1-0.1,2,0.7,2,1.8c0.1,1-0.7,2-1.8,2C80.3,17.8,80.3,17.8,80.2,17.8"/>
		<path class="st0" d="M296.6,24.1c-1,0-1.9-0.8-1.9-1.9c0,0,0,0,0,0v-4.4h-4.4c-1,0.1-2-0.7-2-1.8s0.7-2,1.8-2c0.1,0,0.2,0,0.3,0
			h6.3c1,0,1.9,0.8,1.9,1.9c0,0,0,0,0,0v6.3C298.5,23.2,297.6,24.1,296.6,24.1L296.6,24.1"/>
		<path class="st0" d="M296.6,59.9c-1,0-1.9-0.8-1.9-1.9c0,0,0,0,0,0V43.1c0-1,0.8-1.9,1.9-1.9c1,0,1.9,0.8,1.9,1.9c0,0,0,0,0,0V58
			C298.5,59,297.6,59.9,296.6,59.9L296.6,59.9"/>
		<path class="st0" d="M59.9,153.4V39.7h24.7c8.4,0,15.1,1.3,20,3.9c4.8,2.5,8.5,6.6,10.5,11.6c2.1,5.2,3.2,11.6,3.2,19.2v41.8
			c0,8.1-1.1,14.9-3.2,20.4c-1.9,5.2-5.5,9.7-10.2,12.6c-4.7,2.9-11.1,4.3-19,4.3H59.9z M75.8,142.1h9c5.8,0,9.9-1.1,12.4-3.4
			c2.4-2.2,3.9-5.5,4.4-9.8c0.6-5.2,0.8-10.4,0.8-15.6V76.3c0.1-4.8-0.3-9.6-1.1-14.3c-0.7-3.6-2.4-6.3-4.9-8s-6.5-2.5-11.9-2.5
			h-8.6V142.1z"/>
		<path class="st0" d="M134.8,153.4V39.7h26.1c4.5-0.1,9.1,0.5,13.4,1.7c3.5,1,6.8,2.7,9.5,5.2c2.6,2.5,4.5,5.5,5.6,8.9
			c1.3,4.1,1.9,8.4,1.8,12.7c0.1,4.1-0.5,8.2-1.8,12.2c-1,3.1-2.8,5.9-5.3,8.1c-2.7,2.1-5.8,3.4-9.2,3.8c4.1,0.8,7.9,2.6,11.1,5.3
			c2.9,2.6,5,5.9,6.2,9.6c1.4,4.5,2.1,9.3,2,14c0,4.5-0.5,9-1.7,13.3c-1,3.8-2.8,7.3-5.3,10.3c-2.5,2.9-5.6,5.1-9.1,6.5
			c-4.2,1.6-8.6,2.4-13.1,2.3L134.8,153.4z M150.7,87.1h9.4c4.5,0,8-0.6,10.5-1.9c2.5-1.3,4.4-3.4,5.3-6.1c1.1-3.6,1.7-7.3,1.6-11
			c0-5.2-0.8-9-2.4-11.4c-1.8-2.4-4.5-4-7.4-4.4c-4.4-0.7-8.8-1-13.2-0.9h-3.8V87.1z M150.7,142.1h10.7c7.1,0,11.9-1.7,14.3-5
			c2.4-3.3,3.6-8.7,3.6-16.1c0.1-4.1-0.5-8.2-1.9-12c-1.1-3-3.2-5.6-6-7.3c-2.8-1.6-6.5-2.5-11.2-2.5h-9.4L150.7,142.1z"/>
		<path class="st0" d="M235.2,154.7c-6.6,0-12-1.4-16.4-4.2c-4.4-2.8-7.8-6.9-9.9-11.7c-2.4-5.5-3.7-11.3-4-17.3l14-3.8
			c0.3,3.9,0.9,7.8,1.9,11.7c0.8,3.4,2.5,6.6,4.8,9.2c2.3,2.4,5.4,3.6,9.4,3.6c4,0,7.1-1.2,9.3-3.4c2.1-2.3,3.2-5.6,3.2-9.9
			c0-5.2-1.2-9.3-3.5-12.4c-2.6-3.4-5.6-6.6-8.9-9.5l-19-16.8c-3.5-3-6.3-6.6-8.2-10.8c-1.9-4.5-2.8-9.4-2.7-14.3
			c0-8.3,2.4-14.8,7.2-19.4c4.8-4.6,11.3-6.9,19.5-6.9c4-0.1,8,0.5,11.9,1.8c3.3,1.1,6.2,2.9,8.6,5.4c2.4,2.7,4.3,5.8,5.5,9.2
			c1.5,4.2,2.4,8.6,2.7,13l-13.5,3.6c-0.2-3.5-0.8-6.9-1.7-10.3c-0.7-2.9-2.2-5.5-4.4-7.6c-2.1-1.9-5.1-2.9-9.1-2.9s-7,1.1-9.2,3.2
			c-2.2,2.1-3.3,5.2-3.3,9.3c-0.1,3,0.5,5.9,1.8,8.6c1.5,2.6,3.4,4.9,5.7,6.9l19.2,16.9c4.4,3.9,8.3,8.4,11.4,13.4
			c3.4,5.6,5.1,12,4.9,18.5c0.1,5.1-1.1,10.1-3.5,14.5c-2.2,4-5.6,7.2-9.6,9.3C245,153.7,240.2,154.8,235.2,154.7"/>
		<path class="st0" d="M360.1,154.7c-6.6,0-12-1.4-16.4-4.2c-4.4-2.8-7.8-6.9-9.9-11.7c-2.4-5.5-3.7-11.3-3.9-17.3l14-3.8
			c0.3,3.9,0.9,7.8,1.9,11.7c0.8,3.4,2.5,6.6,4.8,9.2c2.3,2.4,5.4,3.6,9.4,3.6s7.1-1.2,9.3-3.4c2.1-2.3,3.2-5.6,3.2-9.9
			c0-5.2-1.2-9.3-3.5-12.4c-2.6-3.4-5.6-6.6-8.9-9.5l-19.1-16.8c-3.5-3-6.3-6.6-8.3-10.8c-1.9-4.5-2.8-9.4-2.7-14.3
			c0-8.3,2.4-14.8,7.2-19.4s11.3-6.9,19.5-6.9c4-0.1,8,0.5,11.9,1.8c3.3,1.1,6.2,2.9,8.6,5.4c2.4,2.7,4.3,5.8,5.5,9.2
			c1.5,4.2,2.4,8.6,2.7,13L372,71.7c-0.2-3.5-0.8-6.9-1.7-10.3c-0.7-2.9-2.3-5.5-4.4-7.6c-2.1-1.9-5.1-2.9-9.1-2.9s-7,1.1-9.2,3.2
			c-2.2,2.1-3.3,5.2-3.3,9.3c-0.1,3,0.5,5.9,1.8,8.6c1.5,2.6,3.4,4.9,5.7,6.9L371,95.7c4.4,3.9,8.3,8.4,11.4,13.4
			c3.4,5.6,5.1,12,4.9,18.5c0.1,5.1-1.1,10.1-3.5,14.5c-2.2,4-5.6,7.2-9.6,9.3C369.8,153.7,364.9,154.8,360.1,154.7"/>
		<path class="st0" d="M420.8,154.6c-6,0-10.7-1.2-14.2-3.6c-3.6-2.5-6.2-6.2-7.4-10.4c-1.6-5.1-2.3-10.5-2.2-15.9V101
			c-0.1-5.4,0.6-10.7,2.2-15.9c1.2-4.2,3.8-7.8,7.4-10.4c3.5-2.4,8.2-3.7,14.2-3.7s10.7,1.2,14.1,3.7c3.5,2.6,6.1,6.2,7.3,10.4
			c1.5,5.1,2.3,10.5,2.2,15.9v23.6c0.1,5.4-0.6,10.7-2.2,15.9c-1.2,4.2-3.8,7.8-7.3,10.4C431.4,153.4,426.7,154.6,420.8,154.6
			 M420.7,143.5c2.9,0,4.9-0.8,6.1-2.5c1.3-2,2-4.3,2.1-6.7c0.2-2.8,0.4-5.6,0.4-8.6v-25.4c0-3.1-0.1-6-0.4-8.7
			c-0.1-2.4-0.8-4.7-2.1-6.7c-1.2-1.7-3.2-2.6-6.1-2.6c-2.9,0-5,0.9-6.2,2.6c-1.3,2-2,4.3-2.2,6.7c-0.2,2.7-0.4,5.6-0.4,8.7v25.4
			c0,3,0.1,5.9,0.4,8.6c0.1,2.4,0.9,4.7,2.2,6.7C415.8,142.6,417.8,143.5,420.7,143.5"/>
		<path class="st0" d="M460.5,153.4V83.4h-9.7V72.3h9.7V68c-0.1-4.4,0.3-8.7,1.2-13c0.6-3.3,2.4-6.3,5-8.4c2.5-2,6.3-2.9,11.4-3
			c1.9,0,3.5,0.1,5,0.2c1.6,0.2,3.2,0.4,4.8,0.8v11c-0.8-0.2-1.8-0.3-2.8-0.5c-0.9-0.1-1.9-0.2-2.8-0.2c-2.9,0-4.8,1-5.5,2.9
			c-0.9,2.5-1.3,5.1-1.2,7.7v6.7h12.3v11.1h-12.4v70.1H460.5z"/>
		<path class="st0" d="M520.5,154.6c-4.2,0-7.6-0.8-10.2-2.4c-2.6-1.6-4.5-3.9-5.6-6.7c-1.2-3.3-1.8-6.8-1.8-10.2v-53h-8.6v-10h8.6
			V48.5h15v23.7H531v10h-13v52c0,3.2,0.5,5.5,1.5,6.8c1,1.4,3,2,5.9,2c0.9,0,1.7,0,2.6-0.1l2.9-0.3v11.1c-1.9,0.3-3.6,0.5-5.2,0.6
			S522.4,154.6,520.5,154.6"/>
		<path class="st0" d="M558.3,175.4H552c-1,0.1-2-0.7-2-1.8c-0.1-1,0.7-2,1.8-2c0.1,0,0.2,0,0.3,0h6.3c1,0.1,1.8,1,1.8,2
			C560,174.6,559.3,175.4,558.3,175.4"/>
		<path class="st0" d="M535,175.4h-12c-1,0.1-2-0.7-2-1.8c-0.1-1,0.7-2,1.8-2c0.1,0,0.2,0,0.3,0h12.1c1,0.1,1.8,1,1.8,2
			C536.8,174.6,536,175.4,535,175.4 M506.1,175.4h-12.2c-1-0.1-1.8-1-1.8-2c0.1-0.9,0.8-1.7,1.8-1.8H506c1-0.1,2,0.7,2,1.8
			c0.1,1-0.7,2-1.8,2C506.2,175.5,506.1,175.5,506.1,175.4 M477,175.4h-12.1c-1-0.1-1.8-1-1.8-2c0.1-0.9,0.8-1.7,1.8-1.8H477
			c1,0.1,1.8,1,1.8,2C478.7,174.6,477.9,175.4,477,175.4 M448,175.4h-12.1c-1,0.1-2-0.7-2-1.8c-0.1-1,0.7-2,1.8-2c0.1,0,0.2,0,0.3,0
			H448c1,0.1,1.8,1,1.8,2C449.7,174.6,448.9,175.4,448,175.4 M419,175.4h-12.1c-1-0.1-1.8-1-1.8-2c0.1-0.9,0.8-1.7,1.8-1.8H419
			c1-0.1,2,0.7,2,1.8c0.1,1-0.7,2-1.8,2C419.2,175.5,419.1,175.5,419,175.4 M390,175.4h-12.1c-1-0.1-1.8-1-1.8-2
			c0.1-0.9,0.8-1.7,1.8-1.8H390c1-0.1,2,0.7,2,1.8c0.1,1-0.7,2-1.8,2C390.2,175.5,390.1,175.5,390,175.4 M361,175.4h-12.1
			c-1,0.1-2-0.7-2-1.8c-0.1-1,0.7-2,1.8-2c0.1,0,0.2,0,0.3,0H361c1,0.1,1.8,1,1.8,2C362.7,174.6,361.9,175.4,361,175.4 M332,175.4
			h-12.2c-1-0.1-1.8-1-1.8-2c0.1-0.9,0.8-1.7,1.8-1.8h12.1c1,0.1,1.8,1,1.8,2C333.6,174.6,332.9,175.4,332,175.4"/>
		<path class="st0" d="M302.9,175.4h-6.3c-1,0-1.9-0.8-1.9-1.9v0v-6.3c0-1,0.8-1.9,1.9-1.9c1,0,1.9,0.8,1.9,1.9c0,0,0,0,0,0v4.4h4.4
			c1-0.1,2,0.7,2,1.8c0.1,1-0.7,2-1.8,2C303.1,175.5,303,175.5,302.9,175.4"/>
		<path class="st0" d="M296.6,151.6c-1,0-1.9-0.8-1.9-1.9c0,0,0,0,0,0v-12.6c0-1,0.8-1.9,1.9-1.9c1,0,1.9,0.8,1.9,1.9c0,0,0,0,0,0
			v12.6C298.5,150.7,297.7,151.6,296.6,151.6C296.6,151.6,296.6,151.6,296.6,151.6"/>
		<path class="st1" d="M4.8,4.8c6.4-6.4,16.8-6.4,23.2,0s6.4,16.8,0,23.2s-16.8,6.4-23.2,0c0,0,0,0,0,0C-1.6,21.6-1.6,11.2,4.8,4.8
			C4.8,4.8,4.8,4.8,4.8,4.8"/>
		<path class="st2" d="M595.2,184.6c-6.4,6.4-16.8,6.4-23.2,0c-6.4-6.4-6.4-16.8,0-23.2s16.8-6.4,23.2,0c0,0,0,0,0,0
			C601.6,167.8,601.6,178.2,595.2,184.6C595.2,184.6,595.2,184.6,595.2,184.6"/>
		<path class="st3" d="M294.7,124.2l-24.9-24.9c-1.1-1.1-1.1-2.8,0-3.8l24.9-24.9c1.1-1.1,2.8-1.1,3.9,0l24.9,24.9
			c1.1,1.1,1.1,2.8,0,3.8l-24.9,24.9C297.5,125.3,295.8,125.3,294.7,124.2"/>
	</g>
</g>
</svg>
