<svg width="111" height="80" viewBox="0 0 111 80" xmlns="http://www.w3.org/2000/svg">
    <g fill-rule="nonzero" fill="none">
        <path d="M36.159 24.34H74v22.372a21.282 21.282 0 0 1-2.925 11.473 24.858 24.858 0 0 1-8.146 7.916 43.98 43.98 0 0 1-7.476 3.633 1.033 1.033 0 0 1-.631 0 36.197 36.197 0 0 1-12.066-7.209 19.81 19.81 0 0 1-6.425-13.442v-24.17l-.172-.574zm.803.803v19.006c0 1.626 0 3.232.115 4.857a19.122 19.122 0 0 0 6.903 13.577 36.56 36.56 0 0 0 10.822 6.29.956.956 0 0 0 .689 0c1.663-.745 3.346-1.453 4.952-2.294a27.057 27.057 0 0 0 8.395-6.712 19.275 19.275 0 0 0 4.36-12.62V25.563c.008-.14.008-.28 0-.42H36.961zM87.214 21.911l.133-.822c.88 0 1.74-.115 2.62-.21a24.208 24.208 0 0 0 11.607-3.825 17.783 17.783 0 0 0 7.648-12.352c0-.536.134-1.09.21-1.76l-1.07 1.129a38.358 38.358 0 0 1-20.441 11.473c-2.85.592-5.736 1.032-8.624 1.548-.65.131-1.289.31-1.912.536a4.532 4.532 0 0 0-3.174 3.996c0 .516 0 1.033-.153 1.587h-.727c-.153-3.327 1.186-5.488 3.69-6.29a29.887 29.887 0 0 1 4.838-1.052A51.188 51.188 0 0 0 97.73 11.24a39.18 39.18 0 0 0 11.473-9.14c.134-.153.345-.382.536-.382a.535.535 0 0 1 .592.63 18.777 18.777 0 0 1-11.09 17.21 26.579 26.579 0 0 1-9.37 2.142c-.803.095-1.701.134-2.657.21zM37.038 23.097h-.707c0-.67-.134-1.32-.23-1.913a4.264 4.264 0 0 0-3.174-3.633 30.747 30.747 0 0 0-4.378-.937 50.672 50.672 0 0 1-16.713-4.971A39.333 39.333 0 0 1 1.243 3.306l-.268-.287H.841a19.122 19.122 0 0 0 2.238 7.84 18.376 18.376 0 0 0 10.67 8.681 32.507 32.507 0 0 0 8.872 1.53h.325l.095.822c-1.051 0-2.046-.115-3.04-.21a26.77 26.77 0 0 1-9.943-2.869 18.49 18.49 0 0 1-9.733-13.5C.134 4.32.115 3.269 0 2.255c0-.306 0-.44.363-.65.364-.21.497.057.689.21A41.092 41.092 0 0 0 9.56 9.463a38.55 38.55 0 0 0 13.117 5.277c2.754.574 5.526.957 8.28 1.492.965.175 1.908.457 2.81.841a5.22 5.22 0 0 1 3.08 4.436c.114.46.133.995.19 1.588z" fill="#838588"/>
        <path d="m72.241 6.824-.669-.363a6.215 6.215 0 0 1 4.608-3.404c.8-.083 1.598.159 2.218.67a1.568 1.568 0 0 1 .306 2.294c-.406.43-.869.804-1.376 1.11-.517.362-1.09.611-1.568.993-.344.257-.63.583-.842.956a.86.86 0 0 0 .287 1.262 2.41 2.41 0 0 0 2.218.287 5.584 5.584 0 0 0 2.486-1.797c.899-1.09 1.76-2.2 2.677-3.27a5.297 5.297 0 0 1 3.538-1.912 3.06 3.06 0 0 1 2.218.535 1.644 1.644 0 0 1 .21 2.754c-.459.401-1.013.688-1.51 1.052-.322.205-.618.449-.88.726a1.052 1.052 0 0 0 .593 1.798c1.153.34 2.4.008 3.231-.86.803-.823 1.568-1.684 2.371-2.525a4.494 4.494 0 0 1 3.71-1.683c.742-.005 1.42.42 1.74 1.09l-.67.364a1.683 1.683 0 0 0-2.256-.498c-.64.283-1.228.67-1.74 1.148-.956.898-1.912 1.912-2.753 2.81a3.824 3.824 0 0 1-3.978.861 1.912 1.912 0 0 1-.822-3.136c.37-.331.767-.632 1.186-.899.42-.294.816-.62 1.185-.975a.841.841 0 0 0 0-1.377 2.027 2.027 0 0 0-1.702-.44 4.436 4.436 0 0 0-2.887 1.53c-.994 1.167-1.912 2.39-2.945 3.538a5.373 5.373 0 0 1-3.633 2.046 3.193 3.193 0 0 1-2.103-.593 1.606 1.606 0 0 1-.516-2.294 4.99 4.99 0 0 1 2.026-1.913c.46-.267.937-.478 1.358-.764.42-.287.765-.65.631-1.205a1.262 1.262 0 0 0-1.109-.88 3.595 3.595 0 0 0-3.289 1.128 20.651 20.651 0 0 0-1.549 1.836zM12.735 6.862l-.631-.344a1.912 1.912 0 0 1 1.683-1.147 4.57 4.57 0 0 1 3.671 1.663c.822.86 1.587 1.74 2.428 2.563a3.155 3.155 0 0 0 3.232.841 1.033 1.033 0 0 0 .593-1.74 3.824 3.824 0 0 0-.899-.765 16.598 16.598 0 0 1-1.51-1.07 1.644 1.644 0 0 1 .229-2.754 3.308 3.308 0 0 1 2.868-.383 5.966 5.966 0 0 1 3.117 2.085c.784.975 1.568 1.912 2.371 2.925a4.819 4.819 0 0 0 3.002 1.912 3.232 3.232 0 0 0 1.53-.229.918.918 0 0 0 .382-1.587 11.932 11.932 0 0 0-1.778-1.472c-.42-.287-.918-.479-1.32-.784a1.778 1.778 0 0 1 .479-3.29 3.824 3.824 0 0 1 3.097.211 7.457 7.457 0 0 1 2.964 2.964l-.707.401c-.325-.44-.631-.88-.976-1.28a4.188 4.188 0 0 0-2.849-1.683 3.06 3.06 0 0 0-1.587.286.841.841 0 0 0-.267 1.415c.353.319.737.6 1.147.842.67.459 1.377.86 1.912 1.376a1.912 1.912 0 0 1 .822 2.219 2.371 2.371 0 0 1-2.065 1.434 3.824 3.824 0 0 1-2.715-.612 7.859 7.859 0 0 1-2.18-2.027c-.784-.975-1.587-1.912-2.41-2.907a4.436 4.436 0 0 0-2.887-1.53 2.027 2.027 0 0 0-1.702.44c-.497.46-.554.918 0 1.377.435.364.895.696 1.377.995.352.22.684.47.995.745a1.912 1.912 0 0 1-.823 3.232 3.824 3.824 0 0 1-3.824-.822c-.765-.727-1.472-1.55-2.295-2.314a8.108 8.108 0 0 0-1.491-1.32 3.958 3.958 0 0 0-1.53-.535 1.32 1.32 0 0 0-1.453.67zM47.02 23.211c.137-.407.252-.822.344-1.243a1.147 1.147 0 0 0-.535-1.3 1.205 1.205 0 0 0-1.434.115c-.44.344-.86.707-1.262 1.07a2.792 2.792 0 0 1-4.112-.171.631.631 0 0 1-.172-.478.994.994 0 0 1 .517-.46c.554-.171 1.147-.19 1.701-.382a3.136 3.136 0 0 0 1.798-1.759.631.631 0 0 0-.134-.746 3.308 3.308 0 0 0-4.742-.19.88.88 0 0 1-.784.152 2.696 2.696 0 0 1-.402-4.532 2.754 2.754 0 0 1 2.352-.306.535.535 0 0 0 .612-.191 2.926 2.926 0 0 1 2.677-.727 10.02 10.02 0 0 1 3.997 1.224c1.154.67 2.51.908 3.824.67a.574.574 0 0 1 .688.363.803.803 0 0 1-.134.573c-.25.315-.519.615-.803.9a14.781 14.781 0 0 1 3.519 7.284c-.784.134-.784.134-.956-.554a13.232 13.232 0 0 0-3.672-6.77l.823-.783v-.115h-.784a7.228 7.228 0 0 1-2.811-.822 9.56 9.56 0 0 0-3.71-1.166 4.15 4.15 0 0 0-1.377 0c-.3.113-.564.304-.765.554-.267.306-.535.516-.956.344a1.912 1.912 0 0 0-.554-.134 1.702 1.702 0 0 0-2.008.956c-.337.85-.024 1.82.746 2.314a3.423 3.423 0 0 1 2.83-1.07 4.55 4.55 0 0 1 3.155 1.548c.318.331.409.82.23 1.243a4.207 4.207 0 0 1-2.83 2.582l-.65.172c.593.509 1.47.509 2.064 0 .498-.421.976-.88 1.492-1.282a2.199 2.199 0 0 1 1.912-.478 2.16 2.16 0 0 1 1.224 3.232c-.134.268-.555.249-.918.363zM59.124 15.754a11.798 11.798 0 0 1-.841-.899.727.727 0 0 1-.134-.535c.114-.23.267-.46.65-.383 1.36.272 2.774.04 3.977-.65a10.345 10.345 0 0 1 3.977-1.204 2.926 2.926 0 0 1 2.773.88h.402a7.056 7.056 0 0 1 1.682 0 2.428 2.428 0 0 1 1.607 3.269c-.191.442-.464.844-.804 1.185-.592.631-.84.612-1.434 0a2.6 2.6 0 0 0-2.141-.669 4.092 4.092 0 0 0-2.142.937.784.784 0 0 0-.21 1.09 3.595 3.595 0 0 0 2.887 1.912c.184-.03.371-.03.555 0 .197.1.362.252.478.44a.593.593 0 0 1-.134.478 2.792 2.792 0 0 1-4.111.21 13.003 13.003 0 0 0-1.148-.88 1.32 1.32 0 0 0-1.74-.171 1.51 1.51 0 0 0-.344 1.702c0 .19.172.382.249.573-.67.268-.937.134-1.09-.535a2.084 2.084 0 0 1 3.308-2.295c.497.402.975.842 1.453 1.243a1.702 1.702 0 0 0 2.18 0l-.708-.191a4.207 4.207 0 0 1-2.83-2.639 1.033 1.033 0 0 1 .153-1.07 4.169 4.169 0 0 1 5.947-.708h.115a1.797 1.797 0 0 0 .803-2.123 1.587 1.587 0 0 0-1.76-1.013c-.286 0-.573.153-.86.153-.286 0-.707 0-.803-.23a1.72 1.72 0 0 0-1.74-.784 8.815 8.815 0 0 0-3.614.88 17.21 17.21 0 0 1-2.046.86c-.717.174-1.445.295-2.18.364l.803.765v.134a13.156 13.156 0 0 0-3.633 6.635c-.172.688-.172.688-.975.573a14.82 14.82 0 0 1 3.423-7.304zM2.122 19.024a14.36 14.36 0 0 0 6.789 7.151 19.007 19.007 0 0 0 9.713 1.912c1.913 0 3.978-.363 6.024-.573l.306.669c-1.339.21-2.6.44-3.825.574a24.15 24.15 0 0 1-9.216-.555A15.718 15.718 0 0 1 .994 18.45c-.114-.268-.23-.497 0-.765s.517-.134.765 0a35.891 35.891 0 0 0 13.825 4.704c2.342.278 4.704.335 7.056.172h.478l.172.765-1.606.115a36.637 36.637 0 0 1-19.217-4.417l-.249-.115h-.115l.02.115zM107.941 18.87a38.932 38.932 0 0 1-7.056 3.003 36.752 36.752 0 0 1-13.671 1.51h-.21l.114-.688h1.625a35.776 35.776 0 0 0 19.695-5.01.516.516 0 0 1 .67 0c.267.23.21.42.114.67a15.737 15.737 0 0 1-11.281 9.847c-3.655.85-7.45.909-11.129.172l-1.434-.287.306-.707c1.147.153 2.256.363 3.384.478 4.129.632 8.352.034 12.142-1.721a14.246 14.246 0 0 0 6.827-7.113v-.115l-.096-.038zM6.96 30.84a.765.765 0 0 1 1.033-.592c3.024.663 6.129.883 9.216.65a19.676 19.676 0 0 0 7.114-1.912l.688-.344h.172l.344.65c-5.468 2.983-11.243 2.926-17.21 1.912 3.175 3.824 10.67 6.77 19.122 1.205l.517.612a16.789 16.789 0 0 1-11.588 3.212 13.519 13.519 0 0 1-9.408-5.392zM84.728 29.407l.325-.631c1.663.573 3.231 1.204 4.876 1.625 2.664.652 5.427.801 8.146.44 1.472-.153 2.925-.402 4.398-.65.497 0 .535.306.764.592a13.385 13.385 0 0 1-8.184 5.163c-4.452.827-9.05-.21-12.715-2.868l.229-.363.191-.21c1.224.611 2.39 1.28 3.633 1.778a13.672 13.672 0 0 0 13.385-1.3c.69-.513 1.33-1.09 1.913-1.722-4.644.954-9.451.75-13.997-.592-.918-.364-1.893-.823-2.964-1.262zM28.32 33.441l.534.612a19.122 19.122 0 0 1-10 6.004c2.143.748 4.471.781 6.635.096a9.56 9.56 0 0 0 5.106-4.264l.65.497a10.096 10.096 0 0 1-6.463 4.742 11.874 11.874 0 0 1-7.133-.746c-.21 0-.459-.133-.363-.497.096-.363.115-.459.478-.516a18.567 18.567 0 0 0 9.675-4.876c.249-.325.536-.688.88-1.052zM79.699 35.965a9.56 9.56 0 0 0 11.473 3.997 18.988 18.988 0 0 1-9.848-5.737l.535-.612c.287.306.536.612.804.88a18.433 18.433 0 0 0 9.235 4.857c.221.022.439.067.65.134a.727.727 0 0 1 .306.478.44.44 0 0 1-.19.42 10.785 10.785 0 0 1-11.474-1.204 19.122 19.122 0 0 1-1.912-2.046c-.268-.631-.23-.67.42-1.167zM34.17 38.872c.612.191.67.478.478 1.032a17.21 17.21 0 0 0-.784 8.337c0 .23.23.517-.134.708-.363.191-.516.191-.764 0a10.765 10.765 0 0 1-2.85-6.597 9.006 9.006 0 0 1 1.568-5.373l.612.516a8.088 8.088 0 0 0-1.032 6.77 8.586 8.586 0 0 0 1.549 3.097c0-1.473.114-2.888.248-4.283a13.385 13.385 0 0 1 1.11-4.207zM77.92 37.495l.593-.516c0 .134.172.23.23.325a9.217 9.217 0 0 1-.631 10.402 8.51 8.51 0 0 1-.803 1.013c-.173.192-.268.517-.689.345-.42-.172-.382-.46-.325-.803a17.21 17.21 0 0 0-.44-7.343c-.134-.516-.325-1.014-.497-1.549l.65-.44c.595 1.3.97 2.69 1.11 4.111.133 1.396.171 2.792.248 4.284a9.446 9.446 0 0 0 1.912-4.838 8.318 8.318 0 0 0-1.358-4.99zM52.01 69.964c.555 0 .746.286.632.88a9.102 9.102 0 0 0 .516 5.908c.421.734.921 1.42 1.491 2.046.287.382.574.287.9 0a7.17 7.17 0 0 0 2.332-4.685c.185-1.326.12-2.675-.191-3.977l.765-.345c.095.631.23 1.205.286 1.798a9.56 9.56 0 0 1-1.376 6.234 13.385 13.385 0 0 1-1.721 1.912.86.86 0 0 1-1.243 0 6.903 6.903 0 0 1-2.582-4.054 11.588 11.588 0 0 1 0-5.373c.058-.118.122-.233.192-.344zM59.468 69.333c.727-.421.727-.421 1.07.305.713 1.51 1.048 3.17.976 4.838v.88c0 .287 0 0 0 0 2.486-.937 3.174-4.972 1.339-7.878l.592-.497a6.291 6.291 0 0 1-1.912 9.446.593.593 0 0 1-.841-.574 10.287 10.287 0 0 0-1.224-6.52zM48.817 75.528c.134-1.3.192-2.581.402-3.824.145-.662.37-1.305.67-1.913.286-.688.324-.669.936-.325-.306.995-.67 1.913-.918 2.945a10.517 10.517 0 0 0 0 3.71.746.746 0 0 1-.248.516.593.593 0 0 1-.536 0 6.291 6.291 0 0 1-2.237-9.217l.134-.133.631.382a5.584 5.584 0 0 0-.822 5.163 5.086 5.086 0 0 0 1.988 2.696zM64.688 66.35l.574-.46a9.217 9.217 0 0 1 2.027 5.737c2.218-1.147 2.39-4.742.363-7.648l.497-.479c2.926 2.104 2.238 7.477-1.204 9.561-.498-.153-.574-.459-.536-1.013a7.802 7.802 0 0 0-1.396-5.22 4.647 4.647 0 0 0-.267-.383l-.058-.095zM45.089 66.025l.65.458a8.241 8.241 0 0 0-1.76 5.125c.02.255.02.51 0 .765a.956.956 0 0 1-.305.535.478.478 0 0 1-.478 0 6.119 6.119 0 0 1-1.129-9.14l.153-.115.555.498a5.507 5.507 0 0 0-1.262 4.914 4.952 4.952 0 0 0 1.72 2.753 9.293 9.293 0 0 1 1.856-5.793zM52.489 3.516a2.448 2.448 0 0 0-2.773 2.658c.06.894.364 1.754.88 2.486.363.554.745 1.07 1.128 1.606-.67.402-.708.382-1.147-.191a7.247 7.247 0 0 1-1.683-3.825 3.327 3.327 0 0 1 4.187-3.499.822.822 0 0 1 .421.727 5.622 5.622 0 0 0 1.09 4.857l-.63.459a4.742 4.742 0 0 1-1.244-2.467 22.41 22.41 0 0 1-.23-2.81zM57.365 3.554a6.004 6.004 0 0 1-.325 3.71c-.23.535-.574 1.032-.88 1.587l-.707-.497a5.411 5.411 0 0 0 1.07-4.838.574.574 0 0 1 .44-.784 3.365 3.365 0 0 1 4.13 2.62c.17.939.021 1.907-.42 2.753-.402.746-.88 1.434-1.339 2.142-.459.707-.63 0-1.051 0l.994-1.281a4.876 4.876 0 0 0 .994-3.327 2.428 2.428 0 0 0-2.906-2.085zM69.182 62.525l.478-.516a8.088 8.088 0 0 1 2.103 3.939h.153c.153-.478.325-.956.46-1.453a5.736 5.736 0 0 0-.517-4.34.899.899 0 0 1 .153-1.263c.125.152.24.311.344.478a7.4 7.4 0 0 1-.287 7.955c0 .115-.325.172-.497.172s-.382-.153-.459-.44a17.668 17.668 0 0 0-.765-2.658c-.33-.66-.72-1.287-1.166-1.874zM38.243 59.179a.899.899 0 0 1 .249 1.262 6.406 6.406 0 0 0 .095 5.736c.268-.707.478-1.395.784-2.046.36-.658.756-1.296 1.186-1.912l.65.593a7.878 7.878 0 0 0-1.797 3.671 4.207 4.207 0 0 0-.115.708.42.42 0 0 1-.516.478.707.707 0 0 1-.498-.306 7.496 7.496 0 0 1-.401-7.515l.363-.669zM41.016 11.47l-.555.517a2.715 2.715 0 0 1 0-4.226c.382-.33.814-.594 1.281-.784.784-.325.88-.287 1.415.383a.67.67 0 0 1 0 .535 3.06 3.06 0 0 0 .249 3.174c-.956.134-1.128 0-1.281-.88a4.8 4.8 0 0 1 0-1.28c0-.402.172-.804.268-1.282a2.639 2.639 0 0 0-1.913 1.377 1.912 1.912 0 0 0 .536 2.467zM69.736 12.006l-.535-.497c1.205-1.74.516-3.614-1.396-3.824 0 .382.191.764.23 1.147.057.419.057.843 0 1.262-.153.994-.23 1.032-1.3 1.032.696-.98.77-2.273.19-3.327-.114-.267.517-1.013.823-1.013a3.614 3.614 0 0 1 2.791 2.103 2.696 2.696 0 0 1-.803 3.117zM65.931 11.222c-1.051.306-1.09.268-1.549-.612a3.958 3.958 0 0 1-.19-2.581 2.18 2.18 0 0 0-1.569 1.53c-.329.903.064 1.91.918 2.351-.727.517-.841.478-1.339-.19a2.964 2.964 0 0 1 1.74-4.494c.364-.115 1.129.65 1.052 1.013a2.677 2.677 0 0 0 .937 2.983zM46.045 8.029V9.94a2.18 2.18 0 0 1-.306.803c-.42.803-.497.822-1.453.478a2.658 2.658 0 0 0 .917-2.983c-.095-.344.708-1.09 1.014-.994a2.983 2.983 0 0 1 1.797 4.474c-.516.708-.573.727-1.396.23a2.027 2.027 0 0 0 .976-2.352 2.333 2.333 0 0 0-1.55-1.568zM59.965 11.968c-.306.478-.573.67-1.147.478a12.429 12.429 0 0 0-7.42 0c-.726.21-.726.21-1.261-.42a13.385 13.385 0 0 1 9.828-.058z" fill="#838588"/>
        <path d="m65.013 14.702-1.625.727-.287-.727a11.473 11.473 0 0 1 3.442-1.32 1.912 1.912 0 0 1 1.912.995l-.612.42-.516-.439c-.306 1.033-1.281 1.434-2.314.344zM47.077 14.587l-.363.842-1.606-.727c-.803.918-1.817.918-2.371-.344l-.536.44-.573-.383a1.778 1.778 0 0 1 2.046-.994c1.128.287 2.218.746 3.403 1.166zM72.28 18.775l.325.727a2.467 2.467 0 0 1-2.104.153c-.353-.14-.697-.3-1.032-.478a2.065 2.065 0 0 0-2.027-.153l-.383-.689a1.912 1.912 0 0 1 1.779-.267c.492.154.97.346 1.434.573.602.386 1.36.437 2.008.134zM43.12 18.316l-.364.708a2.295 2.295 0 0 0-2.295.287c-.774.51-1.74.637-2.62.344l-.267-.134.306-.727c.956.497 1.759 0 2.581-.401a2.677 2.677 0 0 1 2.658-.077zM55.682 2.35 55.204.629c-.612.535-.535 1.166-.67 1.74h-.764a3.212 3.212 0 0 1 .535-1.912.918.918 0 0 1 1.587 0c.356.571.523 1.24.478 1.912l-.688-.02zM53.158 16.653l-.516-.555a3.404 3.404 0 0 0 .898-3.04h.727a3.633 3.633 0 0 1-1.109 3.595zM57.613 16.079l-.497.535a3.69 3.69 0 0 1-1.262-3.327c.153-.516.497-.134.822-.21a3.442 3.442 0 0 0 .937 3.002zM66.142 6.365l-.479-.994h-.19l-.326 1.09h-.707a2.16 2.16 0 0 1 .573-1.664.899.899 0 0 1 1.014-.134c.545.36.87.973.86 1.626l-.745.076zM45.031 6.48l-.306-1.09h-.19l-.555.956h-.689a1.912 1.912 0 0 1 .803-1.568.803.803 0 0 1 1.014 0c.473.454.694 1.111.593 1.76l-.67-.058z" fill="#838588"/>
        <path d="M70.176 55.106a14.838 14.838 0 0 1-2.753 4.322 27.956 27.956 0 0 1-9.561 6.807c-.803.382-1.645.707-2.467 1.052a.746.746 0 0 1-.535 0 31.531 31.531 0 0 1-11.282-6.96 17.879 17.879 0 0 1-3.423-4.972 1.243 1.243 0 0 1 0-.249l.268-.153 14.226-9.16a.67.67 0 0 1 .804 0l7.973 5.125 6.75 4.188zm-15.947.249-2.811-1.721v.095l1.702 2.83-3.213.765v.115l3.213.803-1.798 2.85h.096l2.81-1.703.785 3.213h.115l.783-3.194 2.83 1.721v-.095l-1.701-2.83 3.212-.765v-.134l-3.193-.784 1.72-2.81-.095-.096-2.753 1.74-.784-3.175h-.115l-.803 3.175z" fill="#2B56A2"/>
        <path d="m70.176 55.106-6.692-4.264-8.031-5.048a.67.67 0 0 0-.86 0l-14.4 9.216-.267.153a16.387 16.387 0 0 1-1.453-5.545c0-.153.172-.382.344-.497l8.853-5.736 7.037-4.513a.612.612 0 0 1 .765 0l15.89 10.192a.631.631 0 0 1 .325.707 18.873 18.873 0 0 1-1.377 5.106l-.134.23zM43.616 33.996l.574 2.39 2.122-1.262-1.28 2.103 2.39.612v.096l-2.39.593 1.261 2.103-2.103-1.262-.593 2.6h-.115l-.592-2.39-2.104 1.262 1.281-2.103-2.39-.593v-.114l2.39-.727-1.262-2.103v-.096l2.123 1.281.593-2.39zM56.638 32.676l1.281 2.104v.095l-2.103-1.28-.612 2.37h-.115l-.573-2.39-2.104 1.281h-.095l1.28-2.103-2.39-.612v-.115l2.39-.573-1.261-2.104h.095l2.085 1.281.592-2.39h.115l.516 2.257 2.085-1.262h.095l-1.262 2.103 2.352.593v.114zM62.719 37.878l2.37-.574-1.28-2.103.095-.096 2.085 1.281.592-2.371h.115l.593 2.39 2.103-1.262h.096l-1.281 2.104 2.37.592v.115l-2.37.593 1.262 2.122-2.104-1.28-.688 2.58-.593-2.39L64 40.822h-.096l1.11-2.218-2.372-.593z" fill="#CD2529"/>
    </g>
</svg>
