<?xml version="1.0" encoding="UTF-8"?>
<svg width="390px" height="298px" viewBox="0 0 390 298" version="1.1" xmlns="http://www.w3.org/2000/svg" xmlns:xlink="http://www.w3.org/1999/xlink">
    <title>comps</title>
    <defs>
        <polygon id="path-1" points="0 0 56.6674106 0 56.6674106 32.7293437 0 32.7293437"></polygon>
        <polygon id="path-3" points="0 0 10.4023009 0 10.4023009 5.83558753 0 5.83558753"></polygon>
        <polygon id="path-5" points="0 0 91.2349576 0 91.2349576 51.1223517 0 51.1223517"></polygon>
    </defs>
    <g id="Page-4" stroke="none" stroke-width="1" fill="none" fill-rule="evenodd">
        <g id="iPhone-Main-Page" transform="translate(0.000000, -661.000000)">
            <g id="comps" transform="translate(0.000000, 661.000000)">
                <path d="M44.1233933,258.663239 L322.838046,97.2493573 M322.838046,258.663239 L44.1233933,97.2493573" id="Stroke-1" stroke="#FEFEFE" stroke-width="0.25"></path>
                <g id="Group-8" transform="translate(126.334190, 131.336761)">
                    <path d="M110.797855,36.0011197 L62.6618044,63.6561768 C59.3391848,65.5662034 53.9510806,65.5662034 50.628461,63.6561768 L2.49241082,36.0011197 C-0.830208795,34.0919795 -0.830208795,30.9960525 2.49241082,29.0869123 L50.628461,1.43185516 C53.9510806,-0.477285054 59.3391848,-0.477285054 62.6618044,1.43185516 L110.797855,29.0869123 C114.121366,30.9960525 114.121366,34.0919795 110.797855,36.0011197" id="Fill-2" fill="#307A2E"></path>
                    <path d="M56.6451327,65.0884752 C54.4672287,65.0884752 52.2902169,64.6107469 50.6280149,63.6561768 L26.5604359,49.8286483 L2.49285693,36.0011197 C0.830654904,35.0465496 0,33.7950612 0,32.5444592 L0,53.6770637 C0,54.9276658 0.830654904,56.1791541 2.49285693,57.1337243 L26.5604359,70.9612528 L50.6280149,84.7887814 C52.2902169,85.7442378 54.4672287,86.2210797 56.6451327,86.2210797 L56.6451327,65.0884752 Z" id="Fill-4" fill="#4FA64F"></path>
                    <path d="M56.6451327,86.2210797 C58.8230367,86.2210797 61.0009407,85.7433515 62.6622505,84.7887814 L86.7298295,70.9612528 L110.797408,57.1337243 C112.45961,56.1791541 113.290265,54.9276658 113.290265,53.6770637 L113.290265,32.5444592 C113.290265,33.7950612 112.45961,35.0465496 110.797408,36.0011197 L86.7298295,49.8286483 L62.6622505,63.6561768 C61.0009407,64.6107469 58.8230367,65.0884752 56.6451327,65.0884752 L56.6451327,86.2210797 Z" id="Fill-6" fill="#3B9C3D"></path>
                </g>
                <polygon id="Fill-9" fill="#307A2E" points="234.611825 183.176495 225.588689 188.48329 225.588689 180.756667 234.611825 175.449871"></polygon>
                <polygon id="Fill-10" fill="#307A2E" points="223.583548 190.194489 214.560411 195.501285 214.560411 187.774662 223.583548 182.467866"></polygon>
                <g id="Group-23" transform="translate(126.334190, 98.251928)">
                    <path d="M9.57778116,83.1682196 C9.57778116,84.3597363 8.60615582,84.7684336 7.40701491,84.0795881 C6.207874,83.3925156 5.23535644,81.8685444 5.23535644,80.6770277 C5.23535644,79.4855111 6.207874,79.0777003 7.40701491,79.7647728 C8.60615582,80.4527318 9.57778116,81.9767029 9.57778116,83.1682196" id="Fill-11" fill="#FFFFFF"></path>
                    <path d="M16.3956646,87.0793909 C16.3956646,88.2709076 15.423147,88.6796049 14.2240061,87.9916459 C13.0257574,87.3036868 12.0532398,85.7797157 12.0532398,84.588199 C12.0532398,83.3966823 13.0257574,82.9888715 14.2240061,83.6768306 C15.423147,84.3639031 16.3956646,85.8878742 16.3956646,87.0793909" id="Fill-13" fill="#FFFFFF"></path>
                    <path d="M23.2134587,90.9908281 C23.2134587,92.1823448 22.2418334,92.5901556 21.0426925,91.9021966 C19.8435516,91.2142375 18.871034,89.6911529 18.871034,88.4996362 C18.871034,87.3081196 19.8435516,86.9003088 21.0426925,87.5873813 C22.2418334,88.2753403 23.2134587,89.7993114 23.2134587,90.9908281" id="Fill-15" fill="#FFFFFF"></path>
                    <path d="M110.797855,36.0101345 L62.6618044,63.6721164 C59.3391848,65.5826212 53.9510806,65.5826212 50.628461,63.6721164 L2.49241082,36.0101345 C-0.830208795,34.1005162 -0.830208795,31.0047005 2.49241082,29.0950822 L50.628461,1.4322137 C53.9510806,-0.477404567 59.3391848,-0.477404567 62.6618044,1.4322137 L110.797855,29.0950822 C114.121366,31.0047005 114.121366,34.1005162 110.797855,36.0101345" id="Fill-17" fill="#307A2E"></path>
                    <path d="M56.6451327,65.1047734 C54.4672287,65.1047734 52.2902169,64.6269256 50.6280149,63.6721164 L26.5604359,49.8411254 L2.49285693,36.0101345 C0.830654904,35.0553253 0,33.8035236 0,32.5526083 L0,53.6905045 C0,54.9414197 0.830654904,56.1932215 2.49285693,57.1480306 L26.5604359,70.9790216 L50.6280149,84.8100126 C52.2902169,85.7657083 54.4672287,86.2426696 56.6451327,86.2426696 L56.6451327,65.1047734 Z" id="Fill-19" fill="#4FA64F"></path>
                    <path d="M56.6451327,86.2426696 C58.8230367,86.2426696 61.0009407,85.7648217 62.6622505,84.8100126 L86.7298295,70.9790216 L110.797408,57.1480306 C112.45961,56.1932215 113.290265,54.9414197 113.290265,53.6905045 L113.290265,32.5526083 C113.290265,33.8035236 112.45961,35.0553253 110.797408,36.0101345 L86.7298295,49.8411254 L62.6622505,63.6721164 C61.0009407,64.6269256 58.8230367,65.1047734 56.6451327,65.1047734 L56.6451327,86.2426696 Z" id="Fill-21" fill="#3B9C3D"></path>
                </g>
                <polygon id="Fill-24" fill="#307A2E" points="234.611825 151.094232 225.588689 156.401028 225.588689 148.674405 234.611825 143.367609"></polygon>
                <polygon id="Fill-25" fill="#307A2E" points="223.583548 157.109657 214.560411 162.416452 214.560411 154.689829 223.583548 149.383033"></polygon>
                <g id="Group-38" transform="translate(126.334190, 66.169666)">
                    <path d="M9.57778116,83.1680322 C9.57778116,84.35955 8.60615582,84.7682477 7.40701491,84.080288 C6.207874,83.3923283 5.23535644,81.8683558 5.23535644,80.676838 C5.23535644,79.4853201 6.207874,79.077509 7.40701491,79.7654687 C8.60615582,80.4534284 9.57778116,81.9765144 9.57778116,83.1680322" id="Fill-26" fill="#FFFFFF"></path>
                    <path d="M16.3956646,87.0793845 C16.3956646,88.2709023 15.423147,88.6796 14.2240061,87.9907538 C13.0257574,87.3036806 12.0532398,85.779708 12.0532398,84.5881902 C12.0532398,83.3966724 13.0257574,82.9888613 14.2240061,83.6759344 C15.423147,84.3638941 16.3956646,85.8878667 16.3956646,87.0793845" id="Fill-28" fill="#307A2E"></path>
                    <path d="M23.2134587,90.9905594 C23.2134587,92.1820772 22.2418334,92.5898884 21.0426925,91.9028153 C19.8435516,91.2148556 18.871034,89.690883 18.871034,88.4993652 C18.871034,87.3078474 19.8435516,86.9000362 21.0426925,87.5879959 C22.2418334,88.2759556 23.2134587,89.7990416 23.2134587,90.9905594" id="Fill-30" fill="#FFFFFF"></path>
                    <path d="M110.797855,36.0101685 L62.6618044,63.6721766 C59.3391848,65.5817966 53.9510806,65.5817966 50.628461,63.6721766 L2.49241082,36.0101685 C-0.830208795,34.1005484 -0.830208795,31.0038432 2.49241082,29.0942232 L50.628461,1.43221505 C53.9510806,-0.477405018 59.3391848,-0.477405018 62.6618044,1.43221505 L110.797855,29.0942232 C114.121366,31.0038432 114.121366,34.1005484 110.797855,36.0101685" id="Fill-32" fill="#53D453"></path>
                    <path d="M56.6451327,65.1046576 C54.4672287,65.1046576 52.2902169,64.6268093 50.6280149,63.6719992 L26.5604359,49.8409952 L2.49285693,36.0099911 C0.830654904,35.0551811 0,33.8033782 0,32.5524618 L0,53.6903779 C0,54.9412943 0.830654904,56.1930972 2.49285693,57.1479073 L26.5604359,70.9789113 L50.6280149,84.8099154 C52.2902169,85.765612 54.4672287,86.2425737 56.6451327,86.2425737 L56.6451327,65.1046576 Z" id="Fill-34" fill="#4FA64F"></path>
                    <path d="M56.6451327,86.2425737 C58.8230367,86.2425737 61.0009407,85.7647254 62.6622505,84.8099154 L86.7298295,70.9789113 L110.797408,57.1479073 C112.45961,56.1930972 113.290265,54.9412943 113.290265,53.6903779 L113.290265,32.5524618 C113.290265,33.8033782 112.45961,35.0551811 110.797408,36.0099911 L86.7298295,49.8409952 L62.6622505,63.6719992 C61.0009407,64.6268093 58.8230367,65.1046576 56.6451327,65.1046576 L56.6451327,86.2425737 Z" id="Fill-36" fill="#3B9C3D"></path>
                </g>
                <polygon id="Fill-39" fill="#307A2E" points="234.611825 119.01197 225.588689 124.318766 225.588689 116.592143 234.611825 111.285347"></polygon>
                <polygon id="Fill-40" fill="#307A2E" points="223.583548 125.027394 214.560411 130.33419 214.560411 122.607567 223.583548 117.300771"></polygon>
                <g id="Group-436">
                    <path d="M140.07916,117.17819 C140.07916,118.374628 139.110449,118.784123 137.914905,118.093322 C136.719361,117.403412 135.749761,115.873147 135.749761,114.676709 C135.749761,113.480271 136.719361,113.070775 137.914905,113.760686 C139.110449,114.451486 140.07916,115.981752 140.07916,117.17819" id="Fill-41" fill="#FFFFFF"></path>
                    <path d="M146.876593,121.105426 C146.876593,122.301864 145.906993,122.712249 144.711449,122.021449 C143.516794,121.330648 142.547194,119.800383 142.547194,118.603945 C142.547194,117.407507 143.516794,116.998012 144.711449,117.688812 C145.906993,118.379613 146.876593,119.908988 146.876593,121.105426" id="Fill-43" fill="#307A2E"></path>
                    <path d="M153.673937,125.033019 C153.673937,126.229457 152.705226,126.638952 151.509682,125.948151 C150.314138,125.257351 149.344538,123.727975 149.344538,122.531537 C149.344538,121.335099 150.314138,120.924714 151.509682,121.615515 C152.705226,122.306315 153.673937,123.836581 153.673937,125.033019" id="Fill-45" fill="#307A2E"></path>
                    <path d="M158.339139,98.2255977 C157.732471,97.873966 157.429138,97.4511178 157.429138,96.9588334 C157.429138,96.4656588 157.732471,96.0437008 158.339139,95.6911789 L179.078804,83.6529122 L181.26174,84.9205667 L160.522074,96.9588334 L187.08379,112.375435 L184.900855,113.642199 L158.339139,98.2255977 Z M167.07177,98.2255977 C166.465103,97.873966 166.161769,97.4511178 166.161769,96.9588334 C166.161769,96.4656588 166.465103,96.0437008 167.07177,95.6911789 L185.992323,84.7095877 C186.5981,84.3570658 187.326635,84.181695 188.175258,84.181695 C189.023881,84.181695 189.751526,84.3570658 190.358193,84.7095877 L199.81847,90.2003833 L199.81847,92.7348021 L211.461681,99.492362 C212.068349,99.8448839 212.371682,100.266842 212.371682,100.760016 C212.371682,101.252301 212.068349,101.675149 211.461681,102.026781 L194.724954,111.741608 C194.118286,112.09413 193.390641,112.2695 192.541129,112.2695 C191.692506,112.2695 190.964861,112.09413 190.358193,111.741608 L167.07177,98.2255977 Z" id="Fill-47" fill="#307A2E"></path>
                    <path d="M85.5144037,255.622619 L61.8428089,269.323792 C60.2087207,270.269192 57.5587759,270.269192 55.9246877,269.323792 L32.2530929,255.622619 C30.6190047,254.677219 30.6190047,253.143393 32.2530929,252.197993 L55.9246877,238.49682 C57.5587759,237.551421 60.2087207,237.551421 61.8428089,238.49682 L85.5144037,252.197993 C87.1484919,253.143393 87.1484919,254.677219 85.5144037,255.622619" id="Fill-49" fill="#307A2E"></path>
                    <path d="M67.3794055,266.124567 L61.8428978,269.32308 C60.2088097,270.26937 57.5588649,270.26937 55.9247767,269.32308 L32.2531818,255.622797 C30.6190937,254.676507 30.6190937,253.143571 32.2531818,252.197281 L37.6153393,249.099362 L67.3794055,266.124567 Z" id="Fill-51" fill="#63B063"></path>
                    <path d="M58.8838373,270.032842 C57.812829,270.032842 56.7418208,269.796047 55.9252215,269.323347 L32.2536266,255.623064 C31.4361377,255.149474 31.0278381,254.52989 31.0278381,253.910306 L31.0278381,256.572915 C31.0278381,257.192499 31.4361377,257.812083 32.2536266,258.285673 L55.9252215,271.985956 C56.7418208,272.458655 57.812829,272.69545 58.8838373,272.69545 L58.8838373,270.032842 Z" id="Fill-53" fill="#4FA64F"></path>
                    <path d="M58.8838373,272.695361 C59.9548455,272.695361 61.0258537,272.458566 61.842453,271.985867 L85.5140479,258.285584 C86.3315368,257.811994 86.7398364,257.19241 86.7398364,256.572826 L86.7398364,253.910217 C86.7398364,254.529801 86.3315368,255.149385 85.5140479,255.622975 L61.842453,269.323258 C61.0258537,269.795958 59.9548455,270.032753 58.8838373,270.032753 L58.8838373,272.695361 Z" id="Fill-55" fill="#3B9C3D"></path>
                    <path d="M100.470358,279.656423 L17.2973168,231.600388 C13.8307727,229.597423 11.0207104,225.161522 11.0207104,221.692386 L11.0207104,156.672571 C11.0207104,153.203435 13.8307727,152.015009 17.2973168,154.017974 L100.470358,202.074009 C106.746964,205.864509 106.746964,212.354117 106.746964,215.823253 L106.746964,277.001826 C106.746964,280.470962 103.936902,281.659388 100.470358,279.656423" id="Fill-57" fill="#4FA64F"></path>
                    <path d="M103.604124,278.535385 C103.031259,278.535385 102.289382,278.289688 101.51637,277.842804 L18.3433289,229.78766 C15.5572842,228.177276 13.1128235,224.394787 13.1128235,221.692119 L13.1128235,156.673194 C13.1128235,155.138478 13.8226778,155.138478 14.1633723,155.138478 C14.7371267,155.138478 15.478115,155.384175 16.2511268,155.831059 L99.4054873,203.87641 C104.654673,207.05801 104.654673,212.543464 104.654673,215.822986 L104.654673,277.001559 C104.654673,278.535385 103.945708,278.535385 103.604124,278.535385" id="Fill-59" fill="#FFFFFF"></path>
                    <path d="M100.470358,202.073742 C103.608661,203.968992 105.177813,206.539019 105.962388,209.068987 C106.746964,211.598954 106.746964,214.088863 106.746964,215.822986 L106.746964,246.412272 L106.746964,277.001559 C106.746964,278.735682 106.044226,279.900962 104.909171,280.380784 L108.533164,278.287017 C109.668219,277.806306 110.370957,276.641915 110.370957,274.907792 L110.370957,244.318506 L110.370957,213.729219 C110.370957,211.994206 110.370957,209.505188 109.586381,206.97522 C108.801806,204.445253 107.232654,201.875225 104.094351,199.979975 L100.470358,202.073742 Z" id="Fill-61" fill="#3B823B"></path>
                    <path d="M104.094262,199.979886 L62.5081861,175.952314 L20.9212208,151.923852 C19.1883935,150.922369 17.6192419,150.719402 16.4832971,151.199223 L12.8593042,153.29299 C13.9952489,152.813168 15.5644005,153.016136 17.2972278,154.018508 L58.8841931,178.046081 L100.470269,202.073653 L104.094262,199.979886 Z" id="Fill-63" fill="#599659"></path>
                    <g id="Group-67" transform="translate(0.000000, 258.465940)">
                        <mask id="mask-2" fill="white">
                            <use xlink:href="#path-1"></use>
                        </mask>
                        <g id="Clip-66"></g>
                        <path d="M39.6235688,32.5878008 L0.245335608,9.84390693 C-0.0820157472,9.65518308 -0.0820157472,9.34895194 0.245335608,9.1602281 L15.8603511,0.141542883 C16.1868129,-0.047180961 16.7169798,-0.047180961 17.0434416,0.141542883 L56.4225643,22.8854367 C56.7490261,23.0741606 56.7490261,23.3803917 56.4225643,23.5691156 L40.8075488,32.5878008 C40.4801974,32.7765246 39.9500306,32.7765246 39.6235688,32.5878008" id="Fill-65" fill="#307A2E" mask="url(#mask-2)"></path>
                    </g>
                    <path d="M50.7252274,284.507694 L47.4632779,282.624016 C47.2996022,282.529654 47.2996022,282.376538 47.4632779,282.282177 L49.2388032,281.256658 C49.4024789,281.162296 49.6666727,281.162296 49.8303484,281.256658 L53.0922979,283.140336 C53.2559736,283.234698 53.2559736,283.387813 53.0922979,283.482175 L51.3167727,284.507694 C51.1539865,284.602055 50.8889031,284.602055 50.7252274,284.507694" id="Fill-68" fill="#63B063"></path>
                    <path d="M46.4719726,282.051168 L44.6964473,281.02565 C44.5336612,280.931288 44.5336612,280.778172 44.6964473,280.68381 L46.4719726,279.658292 C46.6356483,279.56393 46.9007317,279.56393 47.0635178,279.658292 L48.8390431,280.68381 C49.0027188,280.778172 49.0027188,280.931288 48.8390431,281.02565 L47.0635178,282.051168 C46.9007317,282.14553 46.6356483,282.14553 46.4719726,282.051168" id="Fill-70" fill="#63B063"></path>
                    <path d="M43.7054089,280.453247 L41.9298836,279.427728 C41.7662079,279.333366 41.7662079,279.180251 41.9298836,279.085889 L43.7054089,278.060371 C43.8690845,277.966009 44.134168,277.966009 44.2969541,278.060371 L46.0724794,279.085889 C46.2361551,279.180251 46.2361551,279.333366 46.0724794,279.427728 L44.2969541,280.453247 C44.134168,280.547609 43.8690845,280.547609 43.7054089,280.453247" id="Fill-72" fill="#63B063"></path>
                    <path d="M40.9388451,278.855236 L39.1633199,277.829718 C38.9996442,277.735356 38.9996442,277.582241 39.1633199,277.487879 L40.9388451,276.46236 C41.1025208,276.367999 41.3676043,276.367999 41.5303904,276.46236 L43.3059157,277.487879 C43.4695914,277.582241 43.4695914,277.735356 43.3059157,277.829718 L41.5303904,278.855236 C41.3676043,278.949598 41.1025208,278.949598 40.9388451,278.855236" id="Fill-74" fill="#63B063"></path>
                    <path d="M38.1721925,277.257315 L36.3966672,276.231797 C36.2329915,276.137435 36.2329915,275.984319 36.3966672,275.889958 L38.1721925,274.864439 C38.3358681,274.770077 38.6009516,274.770077 38.7637377,274.864439 L40.539263,275.889958 C40.7029387,275.984319 40.7029387,276.137435 40.539263,276.231797 L38.7637377,277.257315 C38.6009516,277.351677 38.3358681,277.351677 38.1721925,277.257315" id="Fill-76" fill="#63B063"></path>
                    <path d="M35.4056287,275.659483 L33.6301035,274.633965 C33.4664278,274.539603 33.4664278,274.386487 33.6301035,274.292125 L35.4056287,273.266607 C35.5693044,273.172245 35.8343879,273.172245 35.997174,273.266607 L37.7726993,274.292125 C37.936375,274.386487 37.936375,274.539603 37.7726993,274.633965 L35.997174,275.659483 C35.8343879,275.753845 35.5693044,275.753845 35.4056287,275.659483" id="Fill-78" fill="#63B063"></path>
                    <path d="M32.6388871,274.061562 L30.8633618,273.036043 C30.6996862,272.941682 30.6996862,272.788566 30.8633618,272.694204 L32.6388871,271.668686 C32.8025628,271.574324 33.0676462,271.574324 33.2304324,271.668686 L35.0059576,272.694204 C35.1696333,272.788566 35.1696333,272.941682 35.0059576,273.036043 L33.2304324,274.061562 C33.0676462,274.155924 32.8025628,274.155924 32.6388871,274.061562" id="Fill-80" fill="#63B063"></path>
                    <path d="M29.8723234,272.463551 L28.0967981,271.438033 C27.9331224,271.343671 27.9331224,271.190556 28.0967981,271.096194 L29.8723234,270.070676 C30.0359991,269.976314 30.3010825,269.976314 30.4638686,270.070676 L32.2393939,271.096194 C32.4030696,271.190556 32.4030696,271.343671 32.2393939,271.438033 L30.4638686,272.463551 C30.3010825,272.557913 30.0359991,272.557913 29.8723234,272.463551" id="Fill-82" fill="#63B063"></path>
                    <path d="M27.1057597,270.86563 L25.3302344,269.840112 C25.1665587,269.74575 25.1665587,269.592635 25.3302344,269.498273 L27.1057597,268.472754 C27.2694353,268.378392 27.5345188,268.378392 27.6973049,268.472754 L29.4728302,269.498273 C29.6365059,269.592635 29.6365059,269.74575 29.4728302,269.840112 L27.6973049,270.86563 C27.5345188,270.959992 27.2694353,270.959992 27.1057597,270.86563" id="Fill-84" fill="#63B063"></path>
                    <path d="M24.339107,269.267798 L22.5635817,268.24228 C22.4007956,268.147918 22.4007956,267.994802 22.5635817,267.90044 L24.339107,266.874922 C24.5027827,266.78056 24.7678661,266.78056 24.9306522,266.874922 L26.7061775,267.90044 C26.8698532,267.994802 26.8698532,268.147918 26.7061775,268.24228 L24.9306522,269.267798 C24.7678661,269.36216 24.5027827,269.36216 24.339107,269.267798" id="Fill-86" fill="#63B063"></path>
                    <path d="M21.5725433,267.669788 L19.797018,266.64427 C19.6333423,266.549908 19.6333423,266.396792 19.797018,266.30243 L21.5725433,265.276912 C21.7362189,265.18255 22.0013024,265.18255 22.1640885,265.276912 L23.9396138,266.30243 C24.1032895,266.396792 24.1032895,266.549908 23.9396138,266.64427 L22.1640885,267.669788 C22.0013024,267.76415 21.7362189,267.76415 21.5725433,267.669788" id="Fill-88" fill="#63B063"></path>
                    <path d="M18.8059795,266.071867 L17.0304543,265.046348 C16.8667786,264.951986 16.8667786,264.798871 17.0304543,264.704509 L18.8059795,263.678991 C18.9696552,263.584629 19.2347387,263.584629 19.3975248,263.678991 L21.1730501,264.704509 C21.3367258,264.798871 21.3367258,264.951986 21.1730501,265.046348 L19.3975248,266.071867 C19.2347387,266.166228 18.9696552,266.166228 18.8059795,266.071867" id="Fill-90" fill="#63B063"></path>
                    <path d="M16.0392379,264.474034 L14.2637126,263.448516 C14.1009265,263.354154 14.1009265,263.201039 14.2637126,263.106677 L16.0392379,262.081158 C16.2029136,261.986797 16.467997,261.986797 16.6307832,262.081158 L18.4063084,263.106677 C18.5699841,263.201039 18.5699841,263.354154 18.4063084,263.448516 L16.6307832,264.474034 C16.467997,264.568396 16.2029136,264.568396 16.0392379,264.474034" id="Fill-92" fill="#63B063"></path>
                    <path d="M13.2726742,262.876113 L11.4971489,261.850595 C11.3334732,261.756233 11.3334732,261.603117 11.4971489,261.508755 L13.2726742,260.483237 C13.4363499,260.388875 13.7014333,260.388875 13.8642194,260.483237 L15.6397447,261.508755 C15.8034204,261.603117 15.8034204,261.756233 15.6397447,261.850595 L13.8642194,262.876113 C13.7014333,262.970475 13.4363499,262.970475 13.2726742,262.876113" id="Fill-94" fill="#63B063"></path>
                    <path d="M14.1910371,260.294869 L17.4529866,262.178547 C17.6166623,262.272909 17.8817457,262.272909 18.0445318,262.178547 L19.8200571,261.153919 C19.9837328,261.059557 19.9837328,260.906442 19.8200571,260.81208 L16.5581076,258.927512 C16.3944319,258.83315 16.1293485,258.83315 15.9665624,258.927512 L14.1910371,259.95303 C14.0273614,260.047392 14.0273614,260.200508 14.1910371,260.294869" id="Fill-96" fill="#63B063"></path>
                    <path d="M18.444114,262.751395 L20.2196393,263.776913 C20.3833149,263.871275 20.6475088,263.871275 20.8111845,263.776913 L22.5867098,262.751395 C22.7503855,262.657033 22.7503855,262.503918 22.5867098,262.409556 L20.8111845,261.384038 C20.6475088,261.289676 20.3833149,261.289676 20.2196393,261.384038 L18.444114,262.409556 C18.2804383,262.503918 18.2804383,262.657033 18.444114,262.751395" id="Fill-98" fill="#63B063"></path>
                    <path d="M21.2108556,264.349405 L22.9863809,265.374924 C23.1500566,265.469286 23.4142505,265.469286 23.5779261,265.374924 L25.3534514,264.349405 C25.5171271,264.255043 25.5171271,264.101928 25.3534514,264.007566 L23.5779261,262.982048 C23.4142505,262.887686 23.1500566,262.887686 22.9863809,262.982048 L21.2108556,264.007566 C21.0471799,264.101928 21.0471799,264.255043 21.2108556,264.349405" id="Fill-100" fill="#63B063"></path>
                    <path d="M23.9774193,265.947327 L25.7529446,266.972845 C25.9166203,267.067207 26.1808142,267.067207 26.3444899,266.972845 L28.1200151,265.947327 C28.2836908,265.852965 28.2836908,265.699849 28.1200151,265.605487 L26.3444899,264.579969 C26.1808142,264.485607 25.9166203,264.485607 25.7529446,264.579969 L23.9774193,265.605487 C23.8137436,265.699849 23.8137436,265.852965 23.9774193,265.947327" id="Fill-102" fill="#63B063"></path>
                    <path d="M26.743983,267.545159 L28.5195083,268.570677 C28.683184,268.665039 28.9473779,268.665039 29.1110536,268.570677 L30.8865789,267.545159 C31.0502545,267.450797 31.0502545,267.297681 30.8865789,267.203319 L29.1110536,266.177801 C28.9473779,266.083439 28.683184,266.083439 28.5195083,266.177801 L26.743983,267.203319 C26.5803074,267.297681 26.5803074,267.450797 26.743983,267.545159" id="Fill-104" fill="#63B063"></path>
                    <path d="M29.5106357,269.14308 L31.286161,270.168598 C31.4498367,270.26296 31.7140306,270.26296 31.8777063,270.168598 L33.6532315,269.14308 C33.8169072,269.048718 33.8169072,268.895603 33.6532315,268.801241 L31.8777063,267.775722 C31.7140306,267.68136 31.4498367,267.68136 31.286161,267.775722 L29.5106357,268.801241 C29.34696,268.895603 29.34696,269.048718 29.5106357,269.14308" id="Fill-106" fill="#63B063"></path>
                    <path d="M32.2771994,270.74109 L34.0527247,271.766609 C34.2164004,271.86097 34.4805943,271.86097 34.64427,271.766609 L36.4197953,270.74109 C36.5834709,270.646728 36.5834709,270.493613 36.4197953,270.399251 L34.64427,269.373733 C34.4805943,269.279371 34.2164004,269.279371 34.0527247,269.373733 L32.2771994,270.399251 C32.1135238,270.493613 32.1135238,270.646728 32.2771994,270.74109" id="Fill-108" fill="#63B063"></path>
                    <path d="M35.0438521,272.339012 L36.8193774,273.36453 C36.9830531,273.458892 37.247247,273.458892 37.4109227,273.36453 L39.1864479,272.339012 C39.3501236,272.24465 39.3501236,272.091534 39.1864479,271.997172 L37.4109227,270.971654 C37.247247,270.877292 36.9830531,270.877292 36.8193774,270.971654 L35.0438521,271.997172 C34.8801764,272.091534 34.8801764,272.24465 35.0438521,272.339012" id="Fill-110" fill="#63B063"></path>
                    <path d="M37.8105048,273.936844 L39.5860301,274.962362 C39.7497058,275.056724 40.0138997,275.056724 40.1775753,274.962362 L41.9531006,273.936844 C42.1167763,273.842482 42.1167763,273.689366 41.9531006,273.595004 L40.1775753,272.569486 C40.0138997,272.475124 39.7497058,272.475124 39.5860301,272.569486 L37.8105048,273.595004 C37.6468291,273.689366 37.6468291,273.842482 37.8105048,273.936844" id="Fill-112" fill="#63B063"></path>
                    <path d="M40.5770685,275.534765 L42.3525938,276.560283 C42.5162695,276.654645 42.7804634,276.654645 42.9441391,276.560283 L44.7196643,275.534765 C44.88334,275.440403 44.88334,275.287287 44.7196643,275.192926 L42.9441391,274.167407 C42.7804634,274.073045 42.5162695,274.073045 42.3525938,274.167407 L40.5770685,275.192926 C40.4133928,275.287287 40.4133928,275.440403 40.5770685,275.534765" id="Fill-114" fill="#63B063"></path>
                    <path d="M43.3437212,277.132775 L45.1192465,278.158293 C45.2820326,278.252655 45.5471161,278.252655 45.7107917,278.158293 L47.486317,277.132775 C47.6499927,277.038413 47.6499927,276.885298 47.486317,276.790936 L45.7107917,275.765418 C45.5471161,275.671056 45.2820326,275.671056 45.1192465,275.765418 L43.3437212,276.790936 C43.1800455,276.885298 43.1800455,277.038413 43.3437212,277.132775" id="Fill-116" fill="#63B063"></path>
                    <path d="M46.1102849,278.730696 L47.8858102,279.756215 C48.0494859,279.850577 48.3136798,279.850577 48.4773555,279.756215 L50.2528807,278.730696 C50.4165564,278.636335 50.4165564,278.483219 50.2528807,278.388857 L48.4773555,277.363339 C48.3136798,277.268977 48.0494859,277.268977 47.8858102,277.363339 L46.1102849,278.388857 C45.9466092,278.483219 45.9466092,278.636335 46.1102849,278.730696" id="Fill-118" fill="#63B063"></path>
                    <path d="M48.8769376,280.328529 L50.6524629,281.354047 C50.8161386,281.448409 51.0803325,281.448409 51.2440081,281.354047 L53.0195334,280.328529 C53.1832091,280.234167 53.1832091,280.081051 53.0195334,279.986689 L51.2440081,278.961171 C51.0803325,278.866809 50.8161386,278.866809 50.6524629,278.961171 L48.8769376,279.986689 C48.7132619,280.081051 48.7132619,280.234167 48.8769376,280.328529" id="Fill-120" fill="#63B063"></path>
                    <path d="M51.6435013,281.926539 L53.4190266,282.952057 C53.5827023,283.046419 53.8468962,283.046419 54.0105719,282.952057 L55.7860971,281.926539 C55.9497728,281.832177 55.9497728,281.679061 55.7860971,281.5847 L54.0105719,280.559181 C53.8468962,280.464819 53.5827023,280.464819 53.4190266,280.559181 L51.6435013,281.5847 C51.4798256,281.679061 51.4798256,281.832177 51.6435013,281.926539" id="Fill-122" fill="#63B063"></path>
                    <path d="M8.80370551,263.406409 L12.065655,265.290087 C12.2293307,265.384449 12.4935246,265.384449 12.6572003,265.290087 L14.4327256,264.264569 C14.5964012,264.171097 14.5964012,264.017981 14.4327256,263.923619 L11.170776,262.039052 C11.0071004,261.94469 10.7420169,261.94469 10.5792308,262.039052 L8.80370551,263.06457 C8.64002983,263.158932 8.64002983,263.312047 8.80370551,263.406409" id="Fill-124" fill="#63B063"></path>
                    <path d="M13.0568714,265.863113 L14.8323967,266.888631 C14.9960723,266.982993 15.2602662,266.982993 15.4239419,266.888631 L17.1994672,265.863113 C17.3631429,265.768751 17.3631429,265.615636 17.1994672,265.521274 L15.4239419,264.495755 C15.2602662,264.401393 14.9960723,264.401393 14.8323967,264.495755 L13.0568714,265.521274 C12.8931957,265.615636 12.8931957,265.768751 13.0568714,265.863113" id="Fill-126" fill="#63B063"></path>
                    <path d="M15.8234351,267.460945 L17.5989604,268.486464 C17.7626361,268.580825 18.0268299,268.580825 18.1905056,268.486464 L19.9660309,267.460945 C20.1297066,267.366583 20.1297066,267.213468 19.9660309,267.119106 L18.1905056,266.093588 C18.0268299,265.999226 17.7626361,265.999226 17.5989604,266.093588 L15.8234351,267.119106 C15.6597594,267.213468 15.6597594,267.366583 15.8234351,267.460945" id="Fill-128" fill="#63B063"></path>
                    <path d="M18.5900878,269.058867 L20.3656131,270.084385 C20.5283992,270.178747 20.7934826,270.178747 20.9571583,270.084385 L22.7326836,269.058867 C22.8963593,268.964505 22.8963593,268.811389 22.7326836,268.717027 L20.9571583,267.691509 C20.7934826,267.597147 20.5283992,267.597147 20.3656131,267.691509 L18.5900878,268.717027 C18.4264121,268.811389 18.4264121,268.964505 18.5900878,269.058867" id="Fill-130" fill="#63B063"></path>
                    <path d="M21.3566515,270.656877 L23.1321768,271.682395 C23.2958525,271.776757 23.5600463,271.776757 23.723722,271.682395 L25.4992473,270.656877 C25.662923,270.562515 25.662923,270.409399 25.4992473,270.315037 L23.723722,269.289519 C23.5600463,269.195157 23.2958525,269.195157 23.1321768,269.289519 L21.3566515,270.315037 C21.1929758,270.409399 21.1929758,270.562515 21.3566515,270.656877" id="Fill-132" fill="#63B063"></path>
                    <path d="M24.1233042,272.254709 L25.8988295,273.280227 C26.0625051,273.374589 26.326699,273.374589 26.4903747,273.280227 L28.2659,272.254709 C28.4295757,272.160347 28.4295757,272.007231 28.2659,271.91287 L26.4903747,270.887351 C26.326699,270.792989 26.0625051,270.792989 25.8988295,270.887351 L24.1233042,271.91287 C23.9596285,272.007231 23.9596285,272.160347 24.1233042,272.254709" id="Fill-134" fill="#63B063"></path>
                    <path d="M26.8898679,273.85263 L28.6653932,274.878148 C28.8290689,274.97251 29.0932627,274.97251 29.2569384,274.878148 L31.0324637,273.85263 C31.1961394,273.758268 31.1961394,273.605153 31.0324637,273.510791 L29.2569384,272.485273 C29.0932627,272.390911 28.8290689,272.390911 28.6653932,272.485273 L26.8898679,273.510791 C26.7261922,273.605153 26.7261922,273.758268 26.8898679,273.85263" id="Fill-136" fill="#63B063"></path>
                    <path d="M29.6565206,275.450551 L31.4320459,276.47607 C31.5957215,276.570432 31.8599154,276.570432 32.0235911,276.47607 L33.7991164,275.450551 C33.9627921,275.356189 33.9627921,275.203074 33.7991164,275.108712 L32.0235911,274.083194 C31.8599154,273.988832 31.5957215,273.988832 31.4320459,274.083194 L29.6565206,275.108712 C29.4928449,275.203074 29.4928449,275.356189 29.6565206,275.450551" id="Fill-138" fill="#63B063"></path>
                    <path d="M32.4231732,277.048562 L34.1986985,278.07408 C34.3623742,278.168442 34.6265681,278.168442 34.7902438,278.07408 L36.5657691,277.048562 C36.7294447,276.9542 36.7294447,276.801084 36.5657691,276.706722 L34.7902438,275.681204 C34.6265681,275.586842 34.3623742,275.586842 34.1986985,275.681204 L32.4231732,276.706722 C32.2594976,276.801084 32.2594976,276.9542 32.4231732,277.048562" id="Fill-140" fill="#63B063"></path>
                    <path d="M35.189737,278.646394 L36.9652623,279.671912 C37.1289379,279.766274 37.3931318,279.766274 37.5568075,279.671912 L39.3323328,278.646394 C39.4960085,278.552032 39.4960085,278.398916 39.3323328,278.304554 L37.5568075,277.279036 C37.3931318,277.184674 37.1289379,277.184674 36.9652623,277.279036 L35.189737,278.304554 C35.0260613,278.398916 35.0260613,278.552032 35.189737,278.646394" id="Fill-142" fill="#63B063"></path>
                    <path d="M37.9563896,280.244315 L39.7319149,281.269833 C39.8955906,281.364195 40.1597845,281.364195 40.3234602,281.269833 L42.0989855,280.244315 C42.2626611,280.149953 42.2626611,279.996838 42.0989855,279.902476 L40.3234602,278.876957 C40.1597845,278.782596 39.8955906,278.782596 39.7319149,278.876957 L37.9563896,279.902476 C37.792714,279.996838 37.792714,280.149953 37.9563896,280.244315" id="Fill-144" fill="#63B063"></path>
                    <path d="M40.7229534,281.842325 L42.4984787,282.867844 C42.6612648,282.962206 42.9263482,282.962206 43.0900239,282.867844 L44.8655492,281.842325 C45.0292249,281.747963 45.0292249,281.594848 44.8655492,281.500486 L43.0900239,280.474968 C42.9263482,280.380606 42.6612648,280.380606 42.4984787,280.474968 L40.7229534,281.500486 C40.5592777,281.594848 40.5592777,281.747963 40.7229534,281.842325" id="Fill-146" fill="#63B063"></path>
                    <path d="M43.4895171,283.440247 L45.2650424,284.465765 C45.4287181,284.560127 45.6929119,284.560127 45.8565876,284.465765 L47.6321129,283.440247 C47.7957886,283.345885 47.7957886,283.192769 47.6321129,283.098407 L45.8565876,282.072889 C45.6929119,281.978527 45.4287181,281.978527 45.2650424,282.072889 L43.4895171,283.098407 C43.3258414,283.192769 43.3258414,283.345885 43.4895171,283.440247" id="Fill-148" fill="#63B063"></path>
                    <path d="M46.2561698,285.038079 L48.0316951,286.063597 C48.1953707,286.157959 48.4595646,286.157959 48.6232403,286.063597 L50.3987656,285.038079 C50.5624413,284.943717 50.5624413,284.790601 50.3987656,284.696239 L48.6232403,283.670721 C48.4595646,283.576359 48.1953707,283.576359 48.0316951,283.670721 L46.2561698,284.696239 C46.0924941,284.790601 46.0924941,284.943717 46.2561698,285.038079" id="Fill-150" fill="#63B063"></path>
                    <path d="M6.10999526,264.962313 L9.99907168,267.208305 C10.1627474,267.302667 10.4278308,267.302667 10.5906169,267.208305 L12.3661422,266.182786 C12.5298179,266.088424 12.5298179,265.935309 12.3661422,265.840947 L8.47706579,263.594955 C8.31339011,263.500593 8.04919622,263.500593 7.88552054,263.594955 L6.10999526,264.620473 C5.94631958,264.714835 5.94631958,264.867951 6.10999526,264.962313" id="Fill-152" fill="#63B063"></path>
                    <path d="M10.9901991,267.780886 L12.7657244,268.806404 C12.9294,268.900766 13.1935939,268.900766 13.3572696,268.806404 L15.1327949,267.780886 C15.2964706,267.686524 15.2964706,267.533408 15.1327949,267.439046 L13.3572696,266.413528 C13.1935939,266.319166 12.9294,266.319166 12.7657244,266.413528 L10.9901991,267.439046 C10.8265234,267.533408 10.8265234,267.686524 10.9901991,267.780886" id="Fill-154" fill="#63B063"></path>
                    <path d="M13.7568518,269.378985 L15.532377,270.404503 C15.6960527,270.498865 15.9602466,270.498865 16.1239223,270.404503 L17.8994476,269.378985 C18.0631232,269.284623 18.0631232,269.131507 17.8994476,269.037145 L16.1239223,268.011627 C15.9602466,267.917265 15.6960527,267.917265 15.532377,268.011627 L13.7568518,269.037145 C13.5931761,269.131507 13.5931761,269.284623 13.7568518,269.378985" id="Fill-156" fill="#63B063"></path>
                    <path d="M16.5235044,270.976817 L18.2990297,272.002335 C18.4627054,272.096697 18.7268993,272.096697 18.890575,272.002335 L20.6661002,270.976817 C20.8297759,270.882455 20.8297759,270.72934 20.6661002,270.634978 L18.890575,269.609459 C18.7268993,269.515098 18.4627054,269.515098 18.2990297,269.609459 L16.5235044,270.634978 C16.3598288,270.72934 16.3598288,270.882455 16.5235044,270.976817" id="Fill-158" fill="#63B063"></path>
                    <path d="M19.2900682,272.574738 L21.0655934,273.600257 C21.2292691,273.694618 21.493463,273.694618 21.6571387,273.600257 L23.432664,272.574738 C23.5963396,272.480376 23.5963396,272.327261 23.432664,272.232899 L21.6571387,271.207381 C21.493463,271.113019 21.2292691,271.113019 21.0655934,271.207381 L19.2900682,272.232899 C19.1263925,272.327261 19.1263925,272.480376 19.2900682,272.574738" id="Fill-160" fill="#63B063"></path>
                    <path d="M22.0566319,274.172749 L23.8321572,275.198267 C23.9958328,275.292629 24.2600267,275.292629 24.4237024,275.198267 L26.1992277,274.172749 C26.3629034,274.078387 26.3629034,273.925271 26.1992277,273.830909 L24.4237024,272.805391 C24.2600267,272.711029 23.9958328,272.711029 23.8321572,272.805391 L22.0566319,273.830909 C21.8929562,273.925271 21.8929562,274.078387 22.0566319,274.172749" id="Fill-162" fill="#63B063"></path>
                    <path d="M24.8233735,275.770581 L26.5988988,276.796099 C26.7616849,276.890461 27.0267684,276.890461 27.190444,276.796099 L28.9659693,275.770581 C29.129645,275.676219 29.129645,275.523103 28.9659693,275.428741 L27.190444,274.403223 C27.0267684,274.308861 26.7616849,274.308861 26.5988988,274.403223 L24.8233735,275.428741 C24.6596978,275.523103 24.6596978,275.676219 24.8233735,275.770581" id="Fill-164" fill="#63B063"></path>
                    <path d="M27.5899372,277.368502 L29.3654625,278.39402 C29.5291382,278.488382 29.7933321,278.488382 29.9570078,278.39402 L31.732533,277.368502 C31.8962087,277.27414 31.8962087,277.121025 31.732533,277.026663 L29.9570078,276.001144 C29.7933321,275.906782 29.5291382,275.906782 29.3654625,276.001144 L27.5899372,277.026663 C27.4262616,277.121025 27.4262616,277.27414 27.5899372,277.368502" id="Fill-166" fill="#63B063"></path>
                    <path d="M30.356501,278.966423 L32.1320262,279.991941 C32.2957019,280.086303 32.5598958,280.086303 32.7235715,279.991941 L34.4990968,278.966423 C34.6627725,278.872061 34.6627725,278.718946 34.4990968,278.624584 L32.7235715,277.599066 C32.5598958,277.504704 32.2957019,277.504704 32.1320262,277.599066 L30.356501,278.624584 C30.1928253,278.718946 30.1928253,278.872061 30.356501,278.966423" id="Fill-168" fill="#63B063"></path>
                    <path d="M33.1231536,280.564433 L34.8986789,281.589952 C35.0623546,281.684314 35.3265485,281.684314 35.4902242,281.589952 L37.2657495,280.564433 C37.4294251,280.470072 37.4294251,280.316956 37.2657495,280.222594 L35.4902242,279.197076 C35.3265485,279.102714 35.0623546,279.102714 34.8986789,279.197076 L33.1231536,280.222594 C32.959478,280.316956 32.959478,280.470072 33.1231536,280.564433" id="Fill-170" fill="#63B063"></path>
                    <path d="M35.8897174,282.162266 L37.6652426,283.187784 C37.8289183,283.282146 38.0931122,283.282146 38.2567879,283.187784 L40.0323132,282.162266 C40.1959889,282.067904 40.1959889,281.914788 40.0323132,281.820426 L38.2567879,280.794908 C38.0931122,280.700546 37.8289183,280.700546 37.6652426,280.794908 L35.8897174,281.820426 C35.7260417,281.914788 35.7260417,282.067904 35.8897174,282.162266" id="Fill-172" fill="#63B063"></path>
                    <path d="M38.65637,283.760187 L40.4318953,284.785705 C40.595571,284.880067 40.8597649,284.880067 41.0234406,284.785705 L42.7989659,283.760187 C42.9626415,283.665825 42.9626415,283.512709 42.7989659,283.418347 L41.0234406,282.392829 C40.8597649,282.298467 40.595571,282.298467 40.4318953,282.392829 L38.65637,283.418347 C38.4926944,283.512709 38.4926944,283.665825 38.65637,283.760187" id="Fill-174" fill="#63B063"></path>
                    <path d="M45.3378958,287.619322 C45.5015715,287.713684 45.766655,287.713684 45.9294411,287.619322 L47.7049664,286.593804 C47.8686421,286.499442 47.8686421,286.346327 47.7049664,286.251965 L43.7900932,283.990839 C43.6264176,283.896478 43.3622237,283.896478 43.198548,283.990839 L41.4230227,285.016358 C41.259347,285.11072 41.259347,285.263835 41.4230227,285.358197 L45.3378958,287.619322 Z" id="Fill-176" fill="#63B063"></path>
                    <path d="M11.0147504,268.17231 L5.78335553,265.150948 C5.61967986,265.056586 5.35548596,265.056586 5.19181029,265.150948 L3.416285,266.176466 C3.25260932,266.270828 3.25260932,266.423943 3.416285,266.518305 L8.64767989,269.539667 C8.81135557,269.634029 9.07554946,269.634029 9.23922514,269.539667 L11.0147504,268.514149 C11.1784261,268.419787 11.1784261,268.266671 11.0147504,268.17231" id="Fill-178" fill="#63B063"></path>
                    <path d="M13.7814031,269.770142 L12.0058778,268.744624 C11.8422021,268.650262 11.5780082,268.650262 11.4143326,268.744624 L9.63880728,269.770142 C9.47513161,269.864504 9.47513161,270.017619 9.63880728,270.111981 L11.4143326,271.137499 C11.5780082,271.231861 11.8422021,271.231861 12.0058778,271.137499 L13.7814031,270.111981 C13.9450788,270.017619 13.9450788,269.864504 13.7814031,269.770142" id="Fill-180" fill="#63B063"></path>
                    <path d="M16.5478779,271.368152 L14.7723526,270.342634 C14.6086769,270.248272 14.344483,270.248272 14.1808073,270.342634 L12.4052821,271.368152 C12.2416064,271.462514 12.2416064,271.615629 12.4052821,271.709991 L14.1808073,272.73551 C14.344483,272.829872 14.6086769,272.829872 14.7723526,272.73551 L16.5478779,271.709991 C16.7115536,271.615629 16.7115536,271.462514 16.5478779,271.368152" id="Fill-182" fill="#63B063"></path>
                    <path d="M19.3144416,272.966073 L17.5389163,271.940555 C17.3752406,271.846193 17.1110467,271.846193 16.9473711,271.940555 L15.1718458,272.966073 C15.0081701,273.060435 15.0081701,273.213551 15.1718458,273.307913 L16.9473711,274.333431 C17.1110467,274.427793 17.3761302,274.427793 17.5389163,274.333431 L19.3144416,273.307913 C19.4781173,273.213551 19.4781173,273.060435 19.3144416,272.966073" id="Fill-184" fill="#63B063"></path>
                    <path d="M22.0811832,274.563905 L20.3056579,273.538387 C20.1419823,273.444025 19.8777884,273.444025 19.7141127,273.538387 L17.9385874,274.563905 C17.7749117,274.658267 17.7749117,274.811383 17.9385874,274.905745 L19.7141127,275.931263 C19.8777884,276.025625 20.1419823,276.025625 20.3056579,275.931263 L22.0811832,274.905745 C22.2448589,274.811383 22.2448589,274.658267 22.0811832,274.563905" id="Fill-186" fill="#63B063"></path>
                    <path d="M24.847747,276.161827 L23.0722217,275.136308 C22.908546,275.041946 22.6443521,275.041946 22.4806764,275.136308 L20.7051511,276.161827 C20.5414755,276.256189 20.5414755,276.409304 20.7051511,276.503666 L22.4806764,277.529184 C22.6443521,277.623546 22.908546,277.623546 23.0722217,277.529184 L24.847747,276.503666 C25.0114226,276.409304 25.0114226,276.256189 24.847747,276.161827" id="Fill-188" fill="#63B063"></path>
                    <path d="M27.6143996,277.759837 L25.8388743,276.734319 C25.6751987,276.639957 25.4110048,276.639957 25.2473291,276.734319 L23.4718038,277.759837 C23.3081281,277.854199 23.3081281,278.007314 23.4718038,278.101676 L25.2473291,279.127195 C25.4110048,279.221556 25.6751987,279.221556 25.8388743,279.127195 L27.6143996,278.101676 C27.7780753,278.007314 27.7780753,277.854199 27.6143996,277.759837" id="Fill-190" fill="#63B063"></path>
                    <path d="M30.3809634,279.357758 L28.6054381,278.33224 C28.4417624,278.237878 28.1775685,278.237878 28.0138928,278.33224 L26.2383675,279.357758 C26.0746919,279.45212 26.0746919,279.605236 26.2383675,279.699598 L28.0138928,280.725116 C28.1775685,280.819478 28.4417624,280.819478 28.6054381,280.725116 L30.3809634,279.699598 C30.544639,279.605236 30.544639,279.45212 30.3809634,279.357758" id="Fill-192" fill="#63B063"></path>
                    <path d="M33.1475271,280.95559 L31.3720018,279.930072 C31.2092157,279.83571 30.9441322,279.83571 30.7804565,279.930072 L29.0049313,280.95559 C28.8412556,281.049952 28.8412556,281.203068 29.0049313,281.29743 L30.7804565,282.322948 C30.9441322,282.41731 31.2083261,282.41731 31.3720018,282.322948 L33.1475271,281.29743 C33.3112028,281.203068 33.3112028,281.049952 33.1475271,280.95559" id="Fill-194" fill="#63B063"></path>
                    <path d="M35.9141798,282.553601 L34.1386545,281.528082 C33.9749788,281.43372 33.7107849,281.43372 33.5471092,281.528082 L31.7715839,282.553601 C31.6079083,282.647963 31.6079083,282.801078 31.7715839,282.89544 L33.5471092,283.920958 C33.7107849,284.01532 33.9749788,284.01532 34.1386545,283.920958 L35.9141798,282.89544 C36.0778554,282.801078 36.0778554,282.647963 35.9141798,282.553601" id="Fill-196" fill="#63B063"></path>
                    <path d="M38.6807435,284.151522 L36.9052182,283.126004 C36.7415425,283.031642 36.4773486,283.031642 36.3136729,283.126004 L34.5381477,284.151522 C34.374472,284.245884 34.374472,284.398999 34.5381477,284.493361 L36.3136729,285.518879 C36.4773486,285.613241 36.7415425,285.613241 36.9052182,285.518879 L38.6807435,284.493361 C38.8444192,284.398999 38.8444192,284.245884 38.6807435,284.151522" id="Fill-198" fill="#63B063"></path>
                    <path d="M45.0113451,287.807868 L41.4469514,285.74971 L40.8554061,285.407871 L39.6723156,284.724192 C39.50864,284.62983 39.2435565,284.62983 39.0798808,284.724192 L37.3052451,285.74971 C37.1415694,285.844072 37.1415694,285.997188 37.3052451,286.09155 L38.4883356,286.774338 L39.0798808,287.117068 L42.6442745,289.175226 C42.8079502,289.269588 43.0721441,289.269588 43.2358198,289.175226 L45.0113451,288.149708 C45.1750208,288.055346 45.1750208,287.90223 45.0113451,287.807868" id="Fill-200" fill="#63B063"></path>
                    <path d="M39.9504753,290.730862 L38.17495,289.705344 C38.0112744,289.610982 38.0112744,289.457867 38.17495,289.363505 L39.9504753,288.337986 C40.114151,288.243624 40.3792344,288.243624 40.5420206,288.337986 L42.3175459,289.363505 C42.4812215,289.457867 42.4812215,289.610982 42.3175459,289.705344 L40.5420206,290.730862 C40.3792344,290.825224 40.114151,290.825224 39.9504753,290.730862" id="Fill-202" fill="#63B063"></path>
                    <path d="M36.4006701,287.192735 L37.1843564,286.74051 C37.3471425,286.646148 37.612226,286.646148 37.7759016,286.74051 L39.5514269,287.766029 C39.7142131,287.86039 39.7142131,288.013506 39.5514269,288.107868 L38.7677407,288.560093 L36.4006701,287.192735 Z" id="Fill-204" fill="#63B063"></path>
                    <path d="M36.1918947,287.313358 L35.4082084,287.765583 C35.2454223,287.859945 35.2454223,288.013061 35.4082084,288.107423 L37.1837337,289.132941 C37.3474094,289.227303 37.6124928,289.227303 37.7761685,289.132941 L38.5589652,288.680716 L36.1918947,287.313358 Z" id="Fill-206" fill="#63B063"></path>
                    <path d="M34.4173479,287.535109 L32.6418226,286.509591 C32.4781469,286.415229 32.4781469,286.262113 32.6418226,286.167751 L34.4173479,285.142233 C34.5810236,285.047871 34.846107,285.047871 35.0088931,285.142233 L36.7844184,286.167751 C36.9480941,286.262113 36.9480941,286.415229 36.7844184,286.509591 L35.0088931,287.535109 C34.846107,287.629471 34.5810236,287.629471 34.4173479,287.535109" id="Fill-208" fill="#63B063"></path>
                    <path d="M31.6506952,285.937099 L29.8751699,284.91158 C29.7114942,284.817218 29.7114942,284.664103 29.8751699,284.569741 L31.6506952,283.544223 C31.8143709,283.449861 32.0794543,283.449861 32.2422405,283.544223 L34.0177657,284.569741 C34.1814414,284.664103 34.1814414,284.817218 34.0177657,284.91158 L32.2422405,285.937099 C32.0794543,286.031461 31.8143709,286.031461 31.6506952,285.937099" id="Fill-210" fill="#63B063"></path>
                    <path d="M28.8841315,284.339177 L26.3524957,282.877458 C26.1897096,282.783096 26.1897096,282.62998 26.3524957,282.535618 L28.128021,281.5101 C28.2916967,281.415738 28.5567801,281.415738 28.7195663,281.5101 L31.251202,282.97182 C31.4148777,283.066182 31.4148777,283.219297 31.251202,283.313659 L29.4756767,284.339177 C29.3128906,284.433539 29.0478072,284.433539 28.8841315,284.339177" id="Fill-212" fill="#63B063"></path>
                    <path d="M12.4844513,274.86711 C12.3207756,274.772748 12.3207756,274.619632 12.4844513,274.52527 L14.2599766,273.499752 C14.4236522,273.40539 14.6878461,273.40539 14.8515218,273.499752 L27.7285278,280.93743 C27.8922035,281.031792 27.8922035,281.184908 27.7285278,281.27927 L25.9530025,282.304788 C25.7902164,282.39915 25.525133,282.39915 25.3614573,282.304788 L12.4844513,274.86711 Z" id="Fill-214" fill="#63B063"></path>
                    <path d="M11.493146,274.294707 L9.02199905,272.867705 C8.85921292,272.773343 8.85921292,272.620228 9.02199905,272.525866 L10.7975243,271.500348 C10.9612,271.405986 11.2262834,271.405986 11.3899591,271.500348 L13.8602165,272.927349 C14.0238922,273.021711 14.0238922,273.174827 13.8602165,273.269189 L12.0846912,274.294707 C11.9219051,274.389069 11.6568216,274.389069 11.493146,274.294707" id="Fill-216" fill="#63B063"></path>
                    <path d="M8.03122748,272.295035 L6.25570219,271.269517 C6.09202651,271.175155 6.09202651,271.02204 6.25570219,270.927678 L8.03122748,269.902159 C8.19490315,269.807798 8.45998659,269.807798 8.62277272,269.902159 L10.398298,270.927678 C10.5619737,271.02204 10.5619737,271.175155 10.398298,271.269517 L8.62277272,272.295035 C8.45998659,272.389397 8.19490315,272.389397 8.03122748,272.295035" id="Fill-218" fill="#63B063"></path>
                    <path d="M5.2645748,270.697203 L3.48904951,269.671685 C3.32626338,269.577323 3.32626338,269.424207 3.48904951,269.329845 L5.2645748,268.304327 C5.42825048,268.209965 5.69333391,268.209965 5.85612005,268.304327 L7.63164533,269.329845 C7.79532101,269.424207 7.79532101,269.577323 7.63164533,269.671685 L5.85612005,270.697203 C5.69333391,270.791565 5.42825048,270.791565 5.2645748,270.697203" id="Fill-220" fill="#63B063"></path>
                    <path d="M2.49783317,269.099282 L0.722307882,268.073764 C0.559521746,267.979402 0.559521746,267.826286 0.722307882,267.731924 L2.49783317,266.706406 C2.66150885,266.612044 2.92659228,266.612044 3.08937842,266.706406 L4.8649037,267.731924 C5.02857938,267.826286 5.02857938,267.979402 4.8649037,268.073764 L3.08937842,269.099282 C2.92659228,269.193644 2.66150885,269.193644 2.49783317,269.099282" id="Fill-222" fill="#63B063"></path>
                    <path d="M67.4316216,291.966024 C67.4680928,291.759496 67.4752092,291.544066 67.450302,291.322405 C67.3560106,290.473147 66.8071633,289.541991 65.7619518,288.765731 L64.1794571,287.589768 C63.1351351,286.814397 61.7928166,286.340807 60.5181033,286.172558 C56.0953019,285.439918 50.5516778,289.75119 49.4886754,292.545549 C49.5829669,293.395696 50.1318141,294.326853 51.1770256,295.103113 L52.7595204,296.278186 C53.8038424,297.054446 55.1461608,297.528036 56.4208741,297.695395 C56.6254687,297.722992 56.8291738,297.740796 57.0293207,297.751478 C58.550437,295.061273 63.3922126,291.523591 67.4316216,291.966024" id="Fill-224" fill="#3B9C3D"></path>
                    <g id="Group-228" transform="translate(57.029054, 291.927909)">
                        <mask id="mask-4" fill="white">
                            <use xlink:href="#path-3"></use>
                        </mask>
                        <g id="Clip-227"></g>
                        <path d="M2.64905526,5.34873343 C4.58291897,3.57900229 6.83257,2.29087303 9.3802175,1.45941987 C9.95308238,1.12826293 10.2991141,0.622625463 10.4023009,0.0377595875 C6.36289197,-0.404673198 1.52200589,3.13300867 0,5.82410387 C1.04343245,5.88196731 1.99880026,5.7244007 2.64905526,5.34873343" id="Fill-226" fill="#307A2E" mask="url(#mask-4)"></path>
                    </g>
                    <path d="M293.724721,255.622619 L317.396316,269.323792 C319.030404,270.269192 321.680349,270.269192 323.314437,269.323792 L346.986032,255.622619 C348.62012,254.677219 348.62012,253.143393 346.986032,252.197993 L323.314437,238.49682 C321.680349,237.551421 319.030404,237.551421 317.396316,238.49682 L293.724721,252.197993 C292.090633,253.143393 292.090633,254.677219 293.724721,255.622619" id="Fill-229" fill="#307A2E"></path>
                    <path d="M311.859719,266.124567 L317.396227,269.32308 C319.030315,270.26937 321.68026,270.26937 323.314348,269.32308 L346.985943,255.622797 C348.620031,254.676507 348.620031,253.143571 346.985943,252.197281 L341.623785,249.099362 L311.859719,266.124567 Z" id="Fill-231" fill="#63B063"></path>
                    <path d="M320.35511,270.032842 C321.426118,270.032842 322.497126,269.796047 323.313725,269.323347 L346.98532,255.623064 C347.802809,255.149474 348.211109,254.52989 348.211109,253.910306 L348.211109,256.572915 C348.211109,257.192499 347.802809,257.812083 346.98532,258.285673 L323.313725,271.985956 C322.497126,272.458655 321.426118,272.69545 320.35511,272.69545 L320.35511,270.032842 Z" id="Fill-233" fill="#4FA64F"></path>
                    <path d="M320.35511,272.695361 C319.284101,272.695361 318.213093,272.458566 317.396494,271.985867 L293.724899,258.285584 C292.90741,257.811994 292.49911,257.19241 292.49911,256.572826 L292.49911,253.910217 C292.49911,254.529801 292.90741,255.149385 293.724899,255.622975 L317.396494,269.323258 C318.213093,269.795958 319.284101,270.032753 320.35511,270.032753 L320.35511,272.695361 Z" id="Fill-235" fill="#3B9C3D"></path>
                    <path d="M278.768678,279.656423 L361.941719,231.600388 C365.408263,229.597423 368.218325,225.161522 368.218325,221.692386 L368.218325,156.672571 C368.218325,153.203435 365.408263,152.015009 361.941719,154.017974 L278.768678,202.074009 C272.492072,205.864509 272.492072,212.354117 272.492072,215.823253 L272.492072,277.001826 C272.492072,280.470962 275.302134,281.659388 278.768678,279.656423" id="Fill-237" fill="#4FA64F"></path>
                    <path d="M275.634823,278.535385 C276.208577,278.535385 276.949565,278.289688 277.722577,277.842804 L360.895618,229.78766 C363.681663,228.177276 366.126123,224.394787 366.126123,221.692119 L366.126123,156.673194 C366.126123,155.138478 365.416269,155.138478 365.075575,155.138478 C364.50182,155.138478 363.760832,155.384175 362.98782,155.831059 L279.83346,203.87641 C274.584274,207.05801 274.584274,212.543464 274.584274,215.822986 L274.584274,277.001559 C274.584274,278.535385 275.294128,278.535385 275.634823,278.535385" id="Fill-239" fill="#FFFFFF"></path>
                    <path d="M278.768678,202.073742 C275.630375,203.968992 274.061223,206.539019 273.276647,209.068987 C272.492072,211.598954 272.492072,214.088863 272.492072,215.822986 L272.492072,246.412272 L272.492072,277.001559 C272.492072,278.735682 273.19481,279.900962 274.329865,280.380784 L270.706761,278.287017 C269.570817,277.806306 268.868079,276.641915 268.868079,274.907792 L268.868079,244.318506 L268.868079,213.729219 C268.868079,211.994206 268.868079,209.505188 269.652654,206.97522 C270.43723,204.445253 272.006382,201.875225 275.144685,199.979975 L278.768678,202.073742 Z" id="Fill-241" fill="#3B823B"></path>
                    <path d="M275.144685,199.979886 L316.730761,175.952314 L358.317726,151.923852 C360.050553,150.922369 361.620594,150.719402 362.75565,151.199223 L366.379643,153.29299 C365.243698,152.813168 363.674546,153.016136 361.941719,154.018508 L320.354754,178.046081 L278.768678,202.073653 L275.144685,199.979886 Z" id="Fill-243" fill="#599659"></path>
                    <path d="M339.615467,291.05374 L378.9937,268.309846 C379.321052,268.121123 379.321052,267.814892 378.9937,267.626168 L363.378685,258.607482 C363.052223,258.418759 362.522056,258.418759 362.195594,258.607482 L322.816472,281.351376 C322.49001,281.5401 322.49001,281.846331 322.816472,282.035055 L338.431487,291.05374 C338.758838,291.242464 339.289005,291.242464 339.615467,291.05374" id="Fill-245" fill="#307A2E"></path>
                    <path d="M328.513897,284.507694 L331.775847,282.624016 C331.939523,282.529654 331.939523,282.376538 331.775847,282.282177 L330.000322,281.256658 C329.836646,281.162296 329.572452,281.162296 329.408776,281.256658 L326.146827,283.140336 C325.983151,283.234698 325.983151,283.387813 326.146827,283.482175 L327.922352,284.507694 C328.085138,284.602055 328.350222,284.602055 328.513897,284.507694" id="Fill-247" fill="#63B063"></path>
                    <path d="M332.766974,282.051168 L334.5425,281.02565 C334.706175,280.931288 334.706175,280.778172 334.5425,280.68381 L332.766974,279.658292 C332.603299,279.56393 332.338215,279.56393 332.175429,279.658292 L330.399904,280.68381 C330.236228,280.778172 330.236228,280.931288 330.399904,281.02565 L332.175429,282.051168 C332.338215,282.14553 332.603299,282.14553 332.766974,282.051168" id="Fill-249" fill="#63B063"></path>
                    <path d="M335.533716,280.453247 L337.309241,279.427728 C337.472917,279.333366 337.472917,279.180251 337.309241,279.085889 L335.533716,278.060371 C335.37004,277.966009 335.104957,277.966009 334.942171,278.060371 L333.166645,279.085889 C333.00297,279.180251 333.00297,279.333366 333.166645,279.427728 L334.942171,280.453247 C335.104957,280.547609 335.37004,280.547609 335.533716,280.453247" id="Fill-251" fill="#63B063"></path>
                    <path d="M338.30028,278.855236 L340.075805,277.829718 C340.239481,277.735356 340.239481,277.582241 340.075805,277.487879 L338.30028,276.46236 C338.136604,276.367999 337.871521,276.367999 337.708734,276.46236 L335.933209,277.487879 C335.769533,277.582241 335.769533,277.735356 335.933209,277.829718 L337.708734,278.855236 C337.871521,278.949598 338.136604,278.949598 338.30028,278.855236" id="Fill-253" fill="#63B063"></path>
                    <path d="M341.066932,277.257315 L342.842458,276.231797 C343.005244,276.137435 343.005244,275.984319 342.842458,275.889958 L341.066932,274.864439 C340.903257,274.770077 340.638173,274.770077 340.475387,274.864439 L338.699862,275.889958 C338.536186,275.984319 338.536186,276.137435 338.699862,276.231797 L340.475387,277.257315 C340.638173,277.351677 340.903257,277.351677 341.066932,277.257315" id="Fill-255" fill="#63B063"></path>
                    <path d="M343.833496,275.659483 L345.609021,274.633965 C345.772697,274.539603 345.772697,274.386487 345.609021,274.292125 L343.833496,273.266607 C343.66982,273.172245 343.404737,273.172245 343.241951,273.266607 L341.466426,274.292125 C341.30275,274.386487 341.30275,274.539603 341.466426,274.633965 L343.241951,275.659483 C343.404737,275.753845 343.66982,275.753845 343.833496,275.659483" id="Fill-257" fill="#63B063"></path>
                    <path d="M346.60006,274.061562 L348.375585,273.036043 C348.539261,272.941682 348.539261,272.788566 348.375585,272.694204 L346.60006,271.668686 C346.436384,271.574324 346.171301,271.574324 346.008515,271.668686 L344.232989,272.694204 C344.069314,272.788566 344.069314,272.941682 344.232989,273.036043 L346.008515,274.061562 C346.171301,274.155924 346.436384,274.155924 346.60006,274.061562" id="Fill-259" fill="#63B063"></path>
                    <path d="M349.366623,272.463551 L351.142149,271.438033 C351.305824,271.343671 351.305824,271.190556 351.142149,271.096194 L349.366623,270.070676 C349.202948,269.976314 348.937864,269.976314 348.775078,270.070676 L346.999553,271.096194 C346.835877,271.190556 346.835877,271.343671 346.999553,271.438033 L348.775078,272.463551 C348.937864,272.557913 349.202948,272.557913 349.366623,272.463551" id="Fill-261" fill="#63B063"></path>
                    <path d="M352.133365,270.86563 L353.90889,269.840112 C354.072566,269.74575 354.072566,269.592635 353.90889,269.498273 L352.133365,268.472754 C351.969689,268.378392 351.704606,268.378392 351.54182,268.472754 L349.766295,269.498273 C349.602619,269.592635 349.602619,269.74575 349.766295,269.840112 L351.54182,270.86563 C351.704606,270.959992 351.969689,270.959992 352.133365,270.86563" id="Fill-263" fill="#63B063"></path>
                    <path d="M354.899929,269.267798 L356.675454,268.24228 C356.83913,268.147918 356.83913,267.994802 356.675454,267.90044 L354.899929,266.874922 C354.736253,266.78056 354.47117,266.78056 354.308384,266.874922 L352.532858,267.90044 C352.369183,267.994802 352.369183,268.147918 352.532858,268.24228 L354.308384,269.267798 C354.47117,269.36216 354.736253,269.36216 354.899929,269.267798" id="Fill-265" fill="#63B063"></path>
                    <path d="M357.666582,267.669788 L359.442107,266.64427 C359.605782,266.549908 359.605782,266.396792 359.442107,266.30243 L357.666582,265.276912 C357.502906,265.18255 357.237822,265.18255 357.075036,265.276912 L355.299511,266.30243 C355.135835,266.396792 355.135835,266.549908 355.299511,266.64427 L357.075036,267.669788 C357.237822,267.76415 357.502906,267.76415 357.666582,267.669788" id="Fill-267" fill="#63B063"></path>
                    <path d="M360.433145,266.071867 L362.208671,265.046348 C362.372346,264.951986 362.372346,264.798871 362.208671,264.704509 L360.433145,263.678991 C360.26947,263.584629 360.004386,263.584629 359.8416,263.678991 L358.066075,264.704509 C357.902399,264.798871 357.902399,264.951986 358.066075,265.046348 L359.8416,266.071867 C360.004386,266.166228 360.26947,266.166228 360.433145,266.071867" id="Fill-269" fill="#63B063"></path>
                    <path d="M363.199798,264.474034 L364.975323,263.448516 C365.138109,263.354154 365.138109,263.201039 364.975323,263.106677 L363.199798,262.081158 C363.036122,261.986797 362.771039,261.986797 362.608253,262.081158 L360.832727,263.106677 C360.669052,263.201039 360.669052,263.354154 360.832727,263.448516 L362.608253,264.474034 C362.771039,264.568396 363.036122,264.568396 363.199798,264.474034" id="Fill-271" fill="#63B063"></path>
                    <path d="M365.966362,262.876113 L367.741887,261.850595 C367.905563,261.756233 367.905563,261.603117 367.741887,261.508755 L365.966362,260.483237 C365.802686,260.388875 365.537603,260.388875 365.374816,260.483237 L363.599291,261.508755 C363.435615,261.603117 363.435615,261.756233 363.599291,261.850595 L365.374816,262.876113 C365.537603,262.970475 365.802686,262.970475 365.966362,262.876113" id="Fill-273" fill="#63B063"></path>
                    <path d="M365.048088,260.294869 L361.786138,262.178547 C361.622463,262.272909 361.357379,262.272909 361.194593,262.178547 L359.419068,261.153919 C359.255392,261.059557 359.255392,260.906442 359.419068,260.81208 L362.681017,258.927512 C362.844693,258.83315 363.108887,258.83315 363.272562,258.927512 L365.048088,259.95303 C365.211763,260.047392 365.211763,260.200508 365.048088,260.294869" id="Fill-275" fill="#63B063"></path>
                    <path d="M360.794922,262.751395 L359.019397,263.776913 C358.855721,263.871275 358.591527,263.871275 358.427851,263.776913 L356.652326,262.751395 C356.48865,262.657033 356.48865,262.503918 356.652326,262.409556 L358.427851,261.384038 C358.591527,261.289676 358.855721,261.289676 359.019397,261.384038 L360.794922,262.409556 C360.958598,262.503918 360.958598,262.657033 360.794922,262.751395" id="Fill-277" fill="#63B063"></path>
                    <path d="M358.028269,264.349405 L356.252744,265.374924 C356.089068,265.469286 355.824874,265.469286 355.661199,265.374924 L353.885673,264.349405 C353.721998,264.255043 353.721998,264.101928 353.885673,264.007566 L355.661199,262.982048 C355.824874,262.887686 356.089068,262.887686 356.252744,262.982048 L358.028269,264.007566 C358.191945,264.101928 358.191945,264.255043 358.028269,264.349405" id="Fill-279" fill="#63B063"></path>
                    <path d="M355.261617,265.947327 L353.486091,266.972845 C353.322416,267.067207 353.058222,267.067207 352.894546,266.972845 L351.119021,265.947327 C350.955345,265.852965 350.955345,265.699849 351.119021,265.605487 L352.894546,264.579969 C353.058222,264.485607 353.322416,264.485607 353.486091,264.579969 L355.261617,265.605487 C355.425292,265.699849 355.425292,265.852965 355.261617,265.947327" id="Fill-281" fill="#63B063"></path>
                    <path d="M352.495053,267.545159 L350.719527,268.570677 C350.555852,268.665039 350.291658,268.665039 350.127982,268.570677 L348.352457,267.545159 C348.188781,267.450797 348.188781,267.297681 348.352457,267.203319 L350.127982,266.177801 C350.291658,266.083439 350.555852,266.083439 350.719527,266.177801 L352.495053,267.203319 C352.658728,267.297681 352.658728,267.450797 352.495053,267.545159" id="Fill-283" fill="#63B063"></path>
                    <path d="M349.728489,269.14308 L347.952964,270.168598 C347.789288,270.26296 347.525094,270.26296 347.361419,270.168598 L345.585893,269.14308 C345.422218,269.048718 345.422218,268.895603 345.585893,268.801241 L347.361419,267.775722 C347.525094,267.68136 347.789288,267.68136 347.952964,267.775722 L349.728489,268.801241 C349.892165,268.895603 349.892165,269.048718 349.728489,269.14308" id="Fill-285" fill="#63B063"></path>
                    <path d="M346.961747,270.74109 L345.186222,271.766609 C345.023436,271.86097 344.758353,271.86097 344.594677,271.766609 L342.819152,270.74109 C342.655476,270.646728 342.655476,270.493613 342.819152,270.399251 L344.594677,269.373733 C344.758353,269.279371 345.023436,269.279371 345.186222,269.373733 L346.961747,270.399251 C347.125423,270.493613 347.125423,270.646728 346.961747,270.74109" id="Fill-287" fill="#63B063"></path>
                    <path d="M344.195184,272.339012 L342.419658,273.36453 C342.255983,273.458892 341.991789,273.458892 341.828113,273.36453 L340.052588,272.339012 C339.888912,272.24465 339.888912,272.091534 340.052588,271.997172 L341.828113,270.971654 C341.991789,270.877292 342.255983,270.877292 342.419658,270.971654 L344.195184,271.997172 C344.358859,272.091534 344.358859,272.24465 344.195184,272.339012" id="Fill-289" fill="#63B063"></path>
                    <path d="M341.42862,273.936844 L339.653095,274.962362 C339.489419,275.056724 339.225225,275.056724 339.061549,274.962362 L337.286024,273.936844 C337.122348,273.842482 337.122348,273.689366 337.286024,273.595004 L339.061549,272.569486 C339.225225,272.475124 339.489419,272.475124 339.653095,272.569486 L341.42862,273.595004 C341.592296,273.689366 341.592296,273.842482 341.42862,273.936844" id="Fill-291" fill="#63B063"></path>
                    <path d="M338.661967,275.534765 L336.886442,276.560283 C336.722766,276.654645 336.458572,276.654645 336.294897,276.560283 L334.519371,275.534765 C334.355696,275.440403 334.355696,275.287287 334.519371,275.192926 L336.294897,274.167407 C336.458572,274.073045 336.722766,274.073045 336.886442,274.167407 L338.661967,275.192926 C338.825643,275.287287 338.825643,275.440403 338.661967,275.534765" id="Fill-293" fill="#63B063"></path>
                    <path d="M335.895404,277.132775 L334.119878,278.158293 C333.956203,278.252655 333.692009,278.252655 333.528333,278.158293 L331.752808,277.132775 C331.589132,277.038413 331.589132,276.885298 331.752808,276.790936 L333.528333,275.765418 C333.692009,275.671056 333.956203,275.671056 334.119878,275.765418 L335.895404,276.790936 C336.059079,276.885298 336.059079,277.038413 335.895404,277.132775" id="Fill-295" fill="#63B063"></path>
                    <path d="M333.128751,278.730696 L331.353226,279.756215 C331.18955,279.850577 330.925356,279.850577 330.76168,279.756215 L328.986155,278.730696 C328.822479,278.636335 328.822479,278.483219 328.986155,278.388857 L330.76168,277.363339 C330.925356,277.268977 331.18955,277.268977 331.353226,277.363339 L333.128751,278.388857 C333.292427,278.483219 333.292427,278.636335 333.128751,278.730696" id="Fill-297" fill="#63B063"></path>
                    <path d="M330.362098,280.328529 L328.586573,281.354047 C328.422897,281.448409 328.158703,281.448409 327.995028,281.354047 L326.219502,280.328529 C326.055827,280.234167 326.055827,280.081051 326.219502,279.986689 L327.995028,278.961171 C328.158703,278.866809 328.422897,278.866809 328.586573,278.961171 L330.362098,279.986689 C330.525774,280.081051 330.525774,280.234167 330.362098,280.328529" id="Fill-299" fill="#63B063"></path>
                    <path d="M327.595535,281.926539 L325.820009,282.952057 C325.656334,283.046419 325.39214,283.046419 325.228464,282.952057 L323.452939,281.926539 C323.289263,281.832177 323.289263,281.679061 323.452939,281.5847 L325.228464,280.559181 C325.39214,280.464819 325.656334,280.464819 325.820009,280.559181 L327.595535,281.5847 C327.75921,281.679061 327.75921,281.832177 327.595535,281.926539" id="Fill-301" fill="#63B063"></path>
                    <path d="M370.435419,263.406409 L367.17347,265.290087 C367.009794,265.384449 366.744711,265.384449 366.581925,265.290087 L364.806399,264.264569 C364.642724,264.171097 364.642724,264.017981 364.806399,263.923619 L368.068349,262.039052 C368.232024,261.94469 368.496218,261.94469 368.659894,262.039052 L370.435419,263.06457 C370.599095,263.158932 370.599095,263.312047 370.435419,263.406409" id="Fill-303" fill="#63B063"></path>
                    <path d="M366.182253,265.863113 L364.406728,266.888631 C364.243052,266.982993 363.978859,266.982993 363.815183,266.888631 L362.039658,265.863113 C361.875982,265.768751 361.875982,265.615636 362.039658,265.521274 L363.815183,264.495755 C363.978859,264.401393 364.243052,264.401393 364.406728,264.495755 L366.182253,265.521274 C366.345929,265.615636 366.345929,265.768751 366.182253,265.863113" id="Fill-305" fill="#63B063"></path>
                    <path d="M363.415601,267.460945 L361.640075,268.486464 C361.4764,268.580825 361.212206,268.580825 361.04853,268.486464 L359.273005,267.460945 C359.109329,267.366583 359.109329,267.213468 359.273005,267.119106 L361.04853,266.093588 C361.212206,265.999226 361.4764,265.999226 361.640075,266.093588 L363.415601,267.119106 C363.579276,267.213468 363.579276,267.366583 363.415601,267.460945" id="Fill-307" fill="#63B063"></path>
                    <path d="M360.649037,269.058867 L358.873512,270.084385 C358.709836,270.178747 358.445642,270.178747 358.281966,270.084385 L356.506441,269.058867 C356.342766,268.964505 356.342766,268.811389 356.506441,268.717027 L358.281966,267.691509 C358.445642,267.597147 358.709836,267.597147 358.873512,267.691509 L360.649037,268.717027 C360.812713,268.811389 360.812713,268.964505 360.649037,269.058867" id="Fill-309" fill="#63B063"></path>
                    <path d="M357.882384,270.656877 L356.106859,271.682395 C355.943183,271.776757 355.678989,271.776757 355.515314,271.682395 L353.739789,270.656877 C353.576113,270.562515 353.576113,270.409399 353.739789,270.315037 L355.515314,269.289519 C355.678989,269.195157 355.943183,269.195157 356.106859,269.289519 L357.882384,270.315037 C358.04606,270.409399 358.04606,270.562515 357.882384,270.656877" id="Fill-311" fill="#63B063"></path>
                    <path d="M355.115732,272.254709 L353.340206,273.280227 C353.176531,273.374589 352.912337,273.374589 352.748661,273.280227 L350.973136,272.254709 C350.80946,272.160347 350.80946,272.007231 350.973136,271.91287 L352.748661,270.887351 C352.912337,270.792989 353.176531,270.792989 353.340206,270.887351 L355.115732,271.91287 C355.279407,272.007231 355.279407,272.160347 355.115732,272.254709" id="Fill-313" fill="#63B063"></path>
                    <path d="M352.349168,273.85263 L350.573643,274.878148 C350.409967,274.97251 350.145773,274.97251 349.982097,274.878148 L348.206572,273.85263 C348.042896,273.758268 348.042896,273.605153 348.206572,273.510791 L349.982097,272.485273 C350.145773,272.390911 350.409967,272.390911 350.573643,272.485273 L352.349168,273.510791 C352.512844,273.605153 352.512844,273.758268 352.349168,273.85263" id="Fill-315" fill="#63B063"></path>
                    <path d="M349.582515,275.450551 L347.80699,276.47607 C347.644204,276.570432 347.37912,276.570432 347.215445,276.47607 L345.439919,275.450551 C345.276244,275.356189 345.276244,275.203074 345.439919,275.108712 L347.215445,274.083194 C347.37912,273.988832 347.644204,273.988832 347.80699,274.083194 L349.582515,275.108712 C349.746191,275.203074 349.746191,275.356189 349.582515,275.450551" id="Fill-317" fill="#63B063"></path>
                    <path d="M346.815952,277.048562 L345.040426,278.07408 C344.876751,278.168442 344.612557,278.168442 344.448881,278.07408 L342.673356,277.048562 C342.50968,276.9542 342.50968,276.801084 342.673356,276.706722 L344.448881,275.681204 C344.612557,275.586842 344.876751,275.586842 345.040426,275.681204 L346.815952,276.706722 C346.979627,276.801084 346.979627,276.9542 346.815952,277.048562" id="Fill-319" fill="#63B063"></path>
                    <path d="M344.049299,278.646394 L342.273774,279.671912 C342.110098,279.766274 341.845904,279.766274 341.682228,279.671912 L339.906703,278.646394 C339.743027,278.552032 339.743027,278.398916 339.906703,278.304554 L341.682228,277.279036 C341.845904,277.184674 342.110098,277.184674 342.273774,277.279036 L344.049299,278.304554 C344.212975,278.398916 344.212975,278.552032 344.049299,278.646394" id="Fill-321" fill="#63B063"></path>
                    <path d="M341.282735,280.244315 L339.50721,281.269833 C339.344424,281.364195 339.07934,281.364195 338.915665,281.269833 L337.140139,280.244315 C336.976464,280.149953 336.976464,279.996838 337.140139,279.902476 L338.915665,278.876957 C339.07934,278.782596 339.344424,278.782596 339.50721,278.876957 L341.282735,279.902476 C341.446411,279.996838 341.446411,280.149953 341.282735,280.244315" id="Fill-323" fill="#63B063"></path>
                    <path d="M338.516082,281.842325 L336.740557,282.867844 C336.576881,282.962206 336.312688,282.962206 336.149012,282.867844 L334.373487,281.842325 C334.209811,281.747963 334.209811,281.594848 334.373487,281.500486 L336.149012,280.474968 C336.312688,280.380606 336.576881,280.380606 336.740557,280.474968 L338.516082,281.500486 C338.679758,281.594848 338.679758,281.747963 338.516082,281.842325" id="Fill-325" fill="#63B063"></path>
                    <path d="M335.749519,283.440247 L333.973993,284.465765 C333.810318,284.560127 333.546124,284.560127 333.382448,284.465765 L331.606923,283.440247 C331.443247,283.345885 331.443247,283.192769 331.606923,283.098407 L333.382448,282.072889 C333.546124,281.978527 333.810318,281.978527 333.973993,282.072889 L335.749519,283.098407 C335.913194,283.192769 335.913194,283.345885 335.749519,283.440247" id="Fill-327" fill="#63B063"></path>
                    <path d="M332.982866,285.038079 L331.207341,286.063597 C331.043665,286.157959 330.779471,286.157959 330.615796,286.063597 L328.84027,285.038079 C328.676595,284.943717 328.676595,284.790601 328.84027,284.696239 L330.615796,283.670721 C330.779471,283.576359 331.043665,283.576359 331.207341,283.670721 L332.982866,284.696239 C333.146542,284.790601 333.146542,284.943717 332.982866,285.038079" id="Fill-329" fill="#63B063"></path>
                    <path d="M373.12913,264.962313 L369.240053,267.208305 C369.076377,267.302667 368.811294,267.302667 368.648508,267.208305 L366.872983,266.182786 C366.709307,266.088424 366.709307,265.935309 366.872983,265.840947 L370.762059,263.594955 C370.925735,263.500593 371.189929,263.500593 371.353604,263.594955 L373.12913,264.620473 C373.292805,264.714835 373.292805,264.867951 373.12913,264.962313" id="Fill-331" fill="#63B063"></path>
                    <path d="M368.248837,267.780886 L366.473311,268.806404 C366.309636,268.900766 366.045442,268.900766 365.881766,268.806404 L364.106241,267.780886 C363.942565,267.686524 363.942565,267.533408 364.106241,267.439046 L365.881766,266.413528 C366.045442,266.319166 366.309636,266.319166 366.473311,266.413528 L368.248837,267.439046 C368.412512,267.533408 368.412512,267.686524 368.248837,267.780886" id="Fill-333" fill="#63B063"></path>
                    <path d="M365.482184,269.378985 L363.706659,270.404503 C363.543873,270.498865 363.278789,270.498865 363.115114,270.404503 L361.339588,269.378985 C361.175913,269.284623 361.175913,269.131507 361.339588,269.037145 L363.115114,268.011627 C363.278789,267.917265 363.543873,267.917265 363.706659,268.011627 L365.482184,269.037145 C365.64586,269.131507 365.64586,269.284623 365.482184,269.378985" id="Fill-335" fill="#63B063"></path>
                    <path d="M362.71562,270.976817 L360.940095,272.002335 C360.776419,272.096697 360.512225,272.096697 360.34855,272.002335 L358.573025,270.976817 C358.409349,270.882455 358.409349,270.72934 358.573025,270.634978 L360.34855,269.609459 C360.512225,269.515098 360.776419,269.515098 360.940095,269.609459 L362.71562,270.634978 C362.879296,270.72934 362.879296,270.882455 362.71562,270.976817" id="Fill-337" fill="#63B063"></path>
                    <path d="M359.948968,272.574738 L358.173442,273.600257 C358.009767,273.694618 357.745573,273.694618 357.581897,273.600257 L355.806372,272.574738 C355.642696,272.480376 355.642696,272.327261 355.806372,272.232899 L357.581897,271.207381 C357.745573,271.113019 358.009767,271.113019 358.173442,271.207381 L359.948968,272.232899 C360.112643,272.327261 360.112643,272.480376 359.948968,272.574738" id="Fill-339" fill="#63B063"></path>
                    <path d="M357.182315,274.172749 L355.40679,275.198267 C355.244004,275.292629 354.97892,275.292629 354.815244,275.198267 L353.039719,274.172749 C352.876044,274.078387 352.876044,273.925271 353.039719,273.830909 L354.815244,272.805391 C354.97892,272.711029 355.244004,272.711029 355.40679,272.805391 L357.182315,273.830909 C357.345991,273.925271 357.345991,274.078387 357.182315,274.172749" id="Fill-341" fill="#63B063"></path>
                    <path d="M354.415751,275.770581 L352.640226,276.796099 C352.47655,276.890461 352.212356,276.890461 352.048681,276.796099 L350.273155,275.770581 C350.10948,275.676219 350.10948,275.523103 350.273155,275.428741 L352.048681,274.403223 C352.212356,274.308861 352.47655,274.308861 352.640226,274.403223 L354.415751,275.428741 C354.579427,275.523103 354.579427,275.676219 354.415751,275.770581" id="Fill-343" fill="#63B063"></path>
                    <path d="M351.649188,277.368502 L349.873662,278.39402 C349.709987,278.488382 349.445793,278.488382 349.282117,278.39402 L347.506592,277.368502 C347.342916,277.27414 347.342916,277.121025 347.506592,277.026663 L349.282117,276.001144 C349.445793,275.906782 349.709987,275.906782 349.873662,276.001144 L351.649188,277.026663 C351.812863,277.121025 351.812863,277.27414 351.649188,277.368502" id="Fill-345" fill="#63B063"></path>
                    <path d="M348.882535,278.966423 L347.10701,279.991941 C346.943334,280.086303 346.67914,280.086303 346.515464,279.991941 L344.739939,278.966423 C344.576263,278.872061 344.576263,278.718946 344.739939,278.624584 L346.515464,277.599066 C346.67914,277.504704 346.943334,277.504704 347.10701,277.599066 L348.882535,278.624584 C349.046211,278.718946 349.046211,278.872061 348.882535,278.966423" id="Fill-347" fill="#63B063"></path>
                    <path d="M346.115971,280.564433 L344.340446,281.589952 C344.17677,281.684314 343.912576,281.684314 343.748901,281.589952 L341.973375,280.564433 C341.8097,280.470072 341.8097,280.316956 341.973375,280.222594 L343.748901,279.197076 C343.912576,279.102714 344.17677,279.102714 344.340446,279.197076 L346.115971,280.222594 C346.279647,280.316956 346.279647,280.470072 346.115971,280.564433" id="Fill-349" fill="#63B063"></path>
                    <path d="M343.349407,282.162266 L341.573882,283.187784 C341.410206,283.282146 341.146013,283.282146 340.982337,283.187784 L339.206812,282.162266 C339.043136,282.067904 339.043136,281.914788 339.206812,281.820426 L340.982337,280.794908 C341.146013,280.700546 341.410206,280.700546 341.573882,280.794908 L343.349407,281.820426 C343.513083,281.914788 343.513083,282.067904 343.349407,282.162266" id="Fill-351" fill="#63B063"></path>
                    <path d="M340.582666,283.760187 L338.807141,284.785705 C338.643465,284.880067 338.379271,284.880067 338.215595,284.785705 L336.44007,283.760187 C336.276394,283.665825 336.276394,283.512709 336.44007,283.418347 L338.215595,282.392829 C338.379271,282.298467 338.643465,282.298467 338.807141,282.392829 L340.582666,283.418347 C340.746341,283.512709 340.746341,283.665825 340.582666,283.760187" id="Fill-353" fill="#63B063"></path>
                    <path d="M333.901229,287.619322 C333.737553,287.713684 333.47247,287.713684 333.309684,287.619322 L331.534158,286.593804 C331.370483,286.499442 331.370483,286.346327 331.534158,286.251965 L335.449032,283.990839 C335.612707,283.896478 335.876901,283.896478 336.040577,283.990839 L337.816102,285.016358 C337.979778,285.11072 337.979778,285.263835 337.816102,285.358197 L333.901229,287.619322 Z" id="Fill-355" fill="#63B063"></path>
                    <path d="M368.224463,268.17231 L373.455858,265.150948 C373.618644,265.056586 373.883728,265.056586 374.047403,265.150948 L375.822929,266.176466 C375.986604,266.270828 375.986604,266.423943 375.822929,266.518305 L370.591534,269.539667 C370.427858,269.634029 370.162775,269.634029 369.999989,269.539667 L368.224463,268.514149 C368.060788,268.419787 368.060788,268.266671 368.224463,268.17231" id="Fill-357" fill="#63B063"></path>
                    <path d="M365.457811,269.770142 L367.233336,268.744624 C367.397012,268.650262 367.661205,268.650262 367.824881,268.744624 L369.600406,269.770142 C369.764082,269.864504 369.764082,270.017619 369.600406,270.111981 L367.824881,271.137499 C367.661205,271.231861 367.397012,271.231861 367.233336,271.137499 L365.457811,270.111981 C365.294135,270.017619 365.294135,269.864504 365.457811,269.770142" id="Fill-359" fill="#63B063"></path>
                    <path d="M362.691069,271.368152 L364.466594,270.342634 C364.63027,270.248272 364.894464,270.248272 365.05814,270.342634 L366.833665,271.368152 C366.99734,271.462514 366.99734,271.615629 366.833665,271.709991 L365.05814,272.73551 C364.894464,272.829872 364.63027,272.829872 364.466594,272.73551 L362.691069,271.709991 C362.527393,271.615629 362.527393,271.462514 362.691069,271.368152" id="Fill-361" fill="#63B063"></path>
                    <path d="M359.924505,272.966073 L361.700031,271.940555 C361.863706,271.846193 362.1279,271.846193 362.291576,271.940555 L364.067101,272.966073 C364.230777,273.060435 364.230777,273.213551 364.067101,273.307913 L362.291576,274.333431 C362.1279,274.427793 361.863706,274.427793 361.700031,274.333431 L359.924505,273.307913 C359.76083,273.213551 359.76083,273.060435 359.924505,272.966073" id="Fill-363" fill="#63B063"></path>
                    <path d="M357.157942,274.563905 L358.933467,273.538387 C359.097143,273.444025 359.361336,273.444025 359.525012,273.538387 L361.300537,274.563905 C361.464213,274.658267 361.464213,274.811383 361.300537,274.905745 L359.525012,275.931263 C359.361336,276.025625 359.097143,276.025625 358.933467,275.931263 L357.157942,274.905745 C356.994266,274.811383 356.994266,274.658267 357.157942,274.563905" id="Fill-365" fill="#63B063"></path>
                    <path d="M354.391378,276.161827 L356.166903,275.136308 C356.329689,275.041946 356.594773,275.041946 356.758448,275.136308 L358.533974,276.161827 C358.697649,276.256189 358.697649,276.409304 358.533974,276.503666 L356.758448,277.529184 C356.594773,277.623546 356.329689,277.623546 356.166903,277.529184 L354.391378,276.503666 C354.227702,276.409304 354.227702,276.256189 354.391378,276.161827" id="Fill-367" fill="#63B063"></path>
                    <path d="M351.624725,277.759837 L353.40025,276.734319 C353.563926,276.639957 353.82812,276.639957 353.991796,276.734319 L355.767321,277.759837 C355.930997,277.854199 355.930997,278.007314 355.767321,278.101676 L353.991796,279.127195 C353.82812,279.221556 353.563926,279.221556 353.40025,279.127195 L351.624725,278.101676 C351.461049,278.007314 351.461049,277.854199 351.624725,277.759837" id="Fill-369" fill="#63B063"></path>
                    <path d="M348.858161,279.357758 L350.633687,278.33224 C350.797362,278.237878 351.061556,278.237878 351.225232,278.33224 L353.000757,279.357758 C353.164433,279.45212 353.164433,279.605236 353.000757,279.699598 L351.225232,280.725116 C351.061556,280.819478 350.797362,280.819478 350.633687,280.725116 L348.858161,279.699598 C348.694486,279.605236 348.694486,279.45212 348.858161,279.357758" id="Fill-371" fill="#63B063"></path>
                    <path d="M346.09142,280.95559 L347.866945,279.930072 C348.030621,279.83571 348.294815,279.83571 348.45849,279.930072 L350.234016,280.95559 C350.397691,281.049952 350.397691,281.203068 350.234016,281.29743 L348.45849,282.322948 C348.294815,282.41731 348.030621,282.41731 347.866945,282.322948 L346.09142,281.29743 C345.927744,281.203068 345.927744,281.049952 346.09142,280.95559" id="Fill-373" fill="#63B063"></path>
                    <path d="M343.324856,282.553601 L345.100381,281.528082 C345.264057,281.43372 345.528251,281.43372 345.691927,281.528082 L347.467452,282.553601 C347.631128,282.647963 347.631128,282.801078 347.467452,282.89544 L345.691927,283.920958 C345.528251,284.01532 345.264057,284.01532 345.100381,283.920958 L343.324856,282.89544 C343.16118,282.801078 343.16118,282.647963 343.324856,282.553601" id="Fill-375" fill="#63B063"></path>
                    <path d="M340.558203,284.151522 L342.333729,283.126004 C342.497404,283.031642 342.761598,283.031642 342.925274,283.126004 L344.700799,284.151522 C344.864475,284.245884 344.864475,284.398999 344.700799,284.493361 L342.925274,285.518879 C342.761598,285.613241 342.497404,285.613241 342.333729,285.518879 L340.558203,284.493361 C340.394528,284.398999 340.394528,284.245884 340.558203,284.151522" id="Fill-377" fill="#63B063"></path>
                    <path d="M334.227691,287.807868 L337.791195,285.74971 L338.38363,285.407871 L339.56672,284.724192 C339.730396,284.62983 339.995479,284.62983 340.159155,284.724192 L341.933791,285.74971 C342.097466,285.844072 342.097466,285.997188 341.933791,286.09155 L340.7507,286.774338 L340.159155,287.117068 L336.594761,289.175226 C336.431086,289.269588 336.166892,289.269588 336.003216,289.175226 L334.227691,288.149708 C334.064015,288.055346 334.064015,287.90223 334.227691,287.807868" id="Fill-379" fill="#63B063"></path>
                    <path d="M339.288472,290.730862 L341.063997,289.705344 C341.227673,289.610982 341.227673,289.457867 341.063997,289.363505 L339.288472,288.337986 C339.124796,288.243624 338.859712,288.243624 338.696926,288.337986 L336.921401,289.363505 C336.757725,289.457867 336.757725,289.610982 336.921401,289.705344 L338.696926,290.730862 C338.859712,290.825224 339.124796,290.825224 339.288472,290.730862" id="Fill-381" fill="#63B063"></path>
                    <path d="M342.838455,287.192735 L342.054768,286.74051 C341.891982,286.646148 341.626899,286.646148 341.463223,286.74051 L339.687698,287.766029 C339.524912,287.86039 339.524912,288.013506 339.687698,288.107868 L340.471384,288.560093 L342.838455,287.192735 Z" id="Fill-383" fill="#63B063"></path>
                    <path d="M343.04723,287.313358 L343.830916,287.765583 C343.993703,287.859945 343.993703,288.013061 343.830916,288.107423 L342.055391,289.132941 C341.891715,289.227303 341.626632,289.227303 341.462956,289.132941 L340.68016,288.680716 L343.04723,287.313358 Z" id="Fill-385" fill="#63B063"></path>
                    <path d="M344.821777,287.535109 L346.597302,286.509591 C346.760978,286.415229 346.760978,286.262113 346.597302,286.167751 L344.821777,285.142233 C344.658101,285.047871 344.393018,285.047871 344.230232,285.142233 L342.454706,286.167751 C342.291031,286.262113 342.291031,286.415229 342.454706,286.509591 L344.230232,287.535109 C344.393018,287.629471 344.658101,287.629471 344.821777,287.535109" id="Fill-387" fill="#63B063"></path>
                    <path d="M347.588341,285.937099 L349.363866,284.91158 C349.527542,284.817218 349.527542,284.664103 349.363866,284.569741 L347.588341,283.544223 C347.424665,283.449861 347.159582,283.449861 346.996795,283.544223 L345.22127,284.569741 C345.057594,284.664103 345.057594,284.817218 345.22127,284.91158 L346.996795,285.937099 C347.159582,286.031461 347.424665,286.031461 347.588341,285.937099" id="Fill-389" fill="#63B063"></path>
                    <path d="M350.354993,284.339177 L352.886629,282.877458 C353.049415,282.783096 353.049415,282.62998 352.886629,282.535618 L351.111104,281.5101 C350.947428,281.415738 350.682345,281.415738 350.519559,281.5101 L347.987923,282.97182 C347.824247,283.066182 347.824247,283.219297 347.987923,283.313659 L349.763448,284.339177 C349.926234,284.433539 350.191318,284.433539 350.354993,284.339177" id="Fill-391" fill="#63B063"></path>
                    <path d="M366.754674,274.86711 C366.918349,274.772748 366.918349,274.619632 366.754674,274.52527 L364.979148,273.499752 C364.815473,273.40539 364.551279,273.40539 364.387603,273.499752 L351.510597,280.93743 C351.346921,281.031792 351.346921,281.184908 351.510597,281.27927 L353.286122,282.304788 C353.448908,282.39915 353.713992,282.39915 353.877667,282.304788 L366.754674,274.86711 Z" id="Fill-393" fill="#63B063"></path>
                    <path d="M367.74589,274.294707 L370.217037,272.867705 C370.379823,272.773343 370.379823,272.620228 370.217037,272.525866 L368.441511,271.500348 C368.277836,271.405986 368.012752,271.405986 367.849077,271.500348 L365.378819,272.927349 C365.215144,273.021711 365.215144,273.174827 365.378819,273.269189 L367.154345,274.294707 C367.317131,274.389069 367.582214,274.389069 367.74589,274.294707" id="Fill-395" fill="#63B063"></path>
                    <path d="M371.207897,272.295035 L372.983423,271.269517 C373.147098,271.175155 373.147098,271.02204 372.983423,270.927678 L371.207897,269.902159 C371.044222,269.807798 370.779138,269.807798 370.616352,269.902159 L368.840827,270.927678 C368.677151,271.02204 368.677151,271.175155 368.840827,271.269517 L370.616352,272.295035 C370.779138,272.389397 371.044222,272.389397 371.207897,272.295035" id="Fill-397" fill="#63B063"></path>
                    <path d="M373.974461,270.697203 L375.749986,269.671685 C375.913662,269.577323 375.913662,269.424207 375.749986,269.329845 L373.974461,268.304327 C373.810785,268.209965 373.545702,268.209965 373.382916,268.304327 L371.60739,269.329845 C371.443715,269.424207 371.443715,269.577323 371.60739,269.671685 L373.382916,270.697203 C373.545702,270.791565 373.810785,270.791565 373.974461,270.697203" id="Fill-399" fill="#63B063"></path>
                    <path d="M376.741025,269.099282 L378.51655,268.073764 C378.680226,267.979402 378.680226,267.826286 378.51655,267.731924 L376.741025,266.706406 C376.577349,266.612044 376.312266,266.612044 376.14948,266.706406 L374.373954,267.731924 C374.210279,267.826286 374.210279,267.979402 374.373954,268.073764 L376.14948,269.099282 C376.312266,269.193644 376.577349,269.193644 376.741025,269.099282" id="Fill-401" fill="#63B063"></path>
                    <path d="M372.057054,257.149413 C372.020583,256.942885 372.013466,256.727455 372.038373,256.505793 C372.132665,255.656536 372.681512,254.72538 373.726724,253.949119 L375.309218,252.773156 C376.35354,251.996896 377.695859,251.524196 378.970572,251.355947 C383.393374,250.623307 388.936998,254.934578 390,257.728937 C389.905709,258.579085 389.356861,259.510241 388.31165,260.286502 L386.729155,261.461575 C385.684833,262.237835 384.342515,262.711425 383.067801,262.878784 C382.863207,262.90549 382.659502,262.924184 382.459355,262.934867 C380.938238,260.243772 376.096463,256.70698 372.057054,257.149413" id="Fill-403" fill="#3B9C3D"></path>
                    <path d="M379.810655,262.46003 C377.876792,260.690299 375.627141,259.40306 373.079493,258.570717 C372.506628,258.23956 372.160596,257.733923 372.05741,257.149057 C376.096819,256.706624 380.937705,260.244306 382.459711,262.935401 C381.416278,262.993264 380.46091,262.835698 379.810655,262.46003" id="Fill-405" fill="#307A2E"></path>
                    <path d="M36.7884214,105.793513 L60.4600162,119.494686 C62.0941044,120.440086 64.7440492,120.440086 66.3781373,119.494686 L90.0497322,105.793513 C91.6838204,104.848113 91.6838204,103.314287 90.0497322,102.367997 L66.3781373,88.6677142 C64.7440492,87.7214244 62.0941044,87.7214244 60.4600162,88.6677142 L36.7884214,102.367997 C35.1543332,103.314287 35.1543332,104.848113 36.7884214,105.793513" id="Fill-407" fill="#307A2E"></path>
                    <path d="M54.9233306,116.295372 L60.4598383,119.494775 C62.0939265,120.440175 64.7438713,120.440175 66.3779594,119.494775 L90.0495543,105.793602 C91.6836425,104.847312 91.6836425,103.314376 90.0495543,102.368086 L84.6873968,99.2701664 L54.9233306,116.295372 Z" id="Fill-409" fill="#63B063"></path>
                    <path d="M63.4188989,120.203736 C64.4899071,120.203736 65.5609154,119.966941 66.3775147,119.494241 L90.0491095,105.793958 C90.8665984,105.320368 91.274898,104.700784 91.274898,104.0812 L91.274898,106.743809 C91.274898,107.363393 90.8665984,107.983867 90.0491095,108.456567 L66.3775147,122.156849 C65.5609154,122.629549 64.4899071,122.866344 63.4188989,122.866344 L63.4188989,120.203736 Z" id="Fill-411" fill="#4FA64F"></path>
                    <path d="M63.4188989,122.866255 C62.3478906,122.866255 61.2768824,122.63035 60.4602831,122.15676 L36.7886882,108.456478 C35.9711994,107.983778 35.5628997,107.363304 35.5628997,106.74372 L35.5628997,104.081111 C35.5628997,104.700695 35.9711994,105.321169 36.7886882,105.793869 L60.4602831,119.494152 C61.2768824,119.966852 62.3478906,120.203647 63.4188989,120.203647 L63.4188989,122.866255 Z" id="Fill-413" fill="#3B9C3D"></path>
                    <path d="M105.00533,81.771193 C108.471875,79.7682277 111.281937,75.3323271 111.281937,71.8631912 L111.281937,6.84337585 C111.281937,3.3742399 108.471875,2.18581381 105.00533,4.18877913 L21.8322895,52.2448135 C15.555683,56.0353141 15.555683,62.5249217 15.555683,65.9940577 L15.555683,127.172631 C15.555683,130.641767 18.3657453,131.830193 21.8322895,129.827227 L105.00533,81.771193 Z" id="Fill-415" fill="#009A3D"></path>
                    <path d="M21.8322895,52.2447244 C18.6939862,54.1399747 17.1248346,56.7100018 16.3402588,59.2399696 C15.555683,61.7699373 15.555683,64.2589556 15.555683,65.9939687 L15.555683,96.5832551 L15.555683,127.172542 C15.555683,128.906664 16.258421,130.071055 17.3934762,130.551767 L13.7703728,128.458 C12.634428,127.977289 11.93169,126.812898 11.93169,125.078775 L11.93169,94.4894887 L11.93169,63.9002022 C11.93169,62.1651892 11.93169,59.6761709 12.7162658,57.1462032 C13.5008416,54.6162354 15.0699932,52.0462083 18.2082965,50.150958 L21.8322895,52.2447244 Z" id="Fill-417" fill="#3B823B"></path>
                    <path d="M18.2083854,50.150691 L59.7944611,26.1231189 L101.381426,2.09465663 C103.114254,1.09317397 104.684295,0.890206812 105.81935,1.37002828 L109.443343,3.46468491 C108.307398,2.98397323 106.738247,3.18783059 105.005419,4.18931326 L63.4184541,28.2168853 L21.8323784,52.2444574 L18.2083854,50.150691 Z" id="Fill-419" fill="#599659"></path>
                    <path d="M342.014205,104.671496 L318.34261,118.371779 C316.708522,119.318069 314.058577,119.318069 312.424489,118.371779 L288.752894,104.671496 C287.118806,103.725206 287.118806,102.19227 288.752894,101.24598 L312.424489,87.5456975 C314.058577,86.5994077 316.708522,86.5994077 318.34261,87.5456975 L342.014205,101.24598 C343.648293,102.19227 343.648293,103.725206 342.014205,104.671496" id="Fill-421" fill="#307A2E"></path>
                    <path d="M323.879296,115.173177 L318.342788,118.37258 C316.7087,119.31798 314.058755,119.31798 312.424667,118.37258 L288.753072,104.671407 C287.118984,103.726008 287.118984,102.192181 288.753072,101.245891 L294.11523,98.1479716 L323.879296,115.173177 Z" id="Fill-423" fill="#63B063"></path>
                    <path d="M315.383817,119.081363 C314.312808,119.081363 313.2418,118.845458 312.425201,118.371868 L288.753606,104.671585 C287.936117,104.198885 287.527818,103.578411 287.527818,102.958827 L287.527818,105.621436 C287.527818,106.24102 287.936117,106.861494 288.753606,107.334194 L312.425201,121.034477 C313.2418,121.507176 314.312808,121.743971 315.383817,121.743971 L315.383817,119.081363 Z" id="Fill-425" fill="#4FA64F"></path>
                    <path d="M315.383817,121.74406 C316.454825,121.74406 317.525833,121.507265 318.342433,121.034566 L342.014027,107.334283 C342.831516,106.860693 343.239816,106.241109 343.239816,105.621525 L343.239816,102.958916 C343.239816,103.5785 342.831516,104.198084 342.014027,104.671674 L318.342433,118.371957 C317.525833,118.844657 316.454825,119.081452 315.383817,119.081452 L315.383817,121.74406 Z" id="Fill-427" fill="#3B9C3D"></path>
                    <path d="M356.970337,128.705122 L273.797296,80.6490873 C270.330752,78.646122 267.52069,74.2102215 267.52069,70.7410855 L267.52069,5.72127016 C267.52069,2.25213421 270.330752,1.06370812 273.797296,3.06667345 L356.970337,51.1227078 C363.246944,54.9132084 363.246944,61.402816 363.246944,64.871952 L363.246944,126.050525 C363.246944,129.519661 360.436881,130.708087 356.970337,128.705122" id="Fill-429" fill="#009A3D"></path>
                    <path d="M356.970337,51.1224407 C360.10864,53.017691 361.677792,55.5877181 362.462368,58.1176858 C363.246944,60.6476536 363.246944,63.1366719 363.246944,64.8716849 L363.246944,95.4609714 L363.246944,126.050258 C363.246944,127.784381 362.544206,128.948771 361.40915,129.429483 L365.032254,127.335717 C366.168199,126.855005 366.870937,125.690614 366.870937,123.956491 L366.870937,93.367205 L366.870937,62.7779185 C366.870937,61.0429054 366.870937,58.5538872 366.086361,56.0239194 C365.301785,53.4939517 363.732633,50.9239246 360.59433,49.0286743 L356.970337,51.1224407 Z" id="Fill-431" fill="#3B823B"></path>
                    <g id="Group-435" transform="translate(269.359284, 0.000000)">
                        <mask id="mask-6" fill="white">
                            <use xlink:href="#path-5"></use>
                        </mask>
                        <g id="Clip-434"></g>
                        <path d="M91.2349576,49.0285853 L49.6488819,25.0010132 L8.06191667,0.972550942 C6.32908938,-0.0289317214 4.75904824,-0.231898875 3.62399299,0.247922597 L0,2.34168902 C1.13594478,1.86186755 2.70509639,2.0648347 4.43792367,3.06631736 L46.0248889,27.0947796 L87.6109646,51.1223517 L91.2349576,49.0285853 Z" id="Fill-433" fill="#599659" mask="url(#mask-6)"></path>
                    </g>
                </g>
            </g>
        </g>
    </g>
</svg>