<?xml version="1.0" encoding="UTF-8"?>
<svg width="159px" height="50px" viewBox="0 0 159 50" version="1.1" xmlns="http://www.w3.org/2000/svg" xmlns:xlink="http://www.w3.org/1999/xlink">
    <title>DBS-logo</title>
    <g id="Page-4" stroke="none" stroke-width="1" fill="none" fill-rule="evenodd">
        <g id="Solutions" transform="translate(-603.000000, -878.000000)" fill-rule="nonzero">
            <g id="DBS-logo" transform="translate(603.000000, 878.000000)">
                <path d="M12.7352542,4.68929447 L11.0670562,4.68929447 C10.8048762,4.6702363 10.6019008,4.45197085 10.6019008,4.18909904 C10.6019008,3.92622724 10.8048762,3.70796179 11.0670562,3.68890362 L12.7352542,3.68890362 C12.9974342,3.70796179 13.2004096,3.92622724 13.2004096,4.18909904 C13.2004096,4.45197085 12.9974342,4.6702363 12.7352542,4.68929447" id="Path" fill="#1D1D1B"></path>
                <path d="M71.7081629,4.68929447 L68.1975565,4.68929447 C68.0101805,4.70291505 67.8309062,4.61066874 67.7330635,4.45028766 C67.6352208,4.28990658 67.6352208,4.08829151 67.7330635,3.92791043 C67.8309062,3.76752935 68.0101805,3.67528304 68.1975565,3.68890362 L71.7081629,3.68890362 C71.9703429,3.70796179 72.1733183,3.92622724 72.1733183,4.18909904 C72.1733183,4.45197085 71.9703429,4.6702363 71.7081629,4.68929447 M63.2827075,4.68929447 L59.7721011,4.68929447 C59.509921,4.6702363 59.3069457,4.45197085 59.3069457,4.18909904 C59.3069457,3.92622724 59.509921,3.70796179 59.7721011,3.68890362 L63.2827075,3.68890362 C63.5448875,3.70796179 63.7478629,3.92622724 63.7478629,4.18909904 C63.7478629,4.45197085 63.5448875,4.6702363 63.2827075,4.68929447 M54.8572521,4.68929447 L51.3466457,4.68929447 C51.0844656,4.6702363 50.8814903,4.45197085 50.8814903,4.18909904 C50.8814903,3.92622724 51.0844656,3.70796179 51.3466457,3.68890362 L54.8572521,3.68890362 C55.0446281,3.67528304 55.2239023,3.76752935 55.3217451,3.92791043 C55.4195878,4.08829151 55.4195878,4.28990658 55.3217451,4.45028766 C55.2239023,4.61066874 55.0446281,4.70291505 54.8572521,4.68929447 M46.4344362,4.68929447 L42.9238298,4.68929447 C42.7364538,4.70291505 42.5571796,4.61066874 42.4593369,4.45028766 C42.3614941,4.28990658 42.3614941,4.08829151 42.4593369,3.92791043 C42.5571796,3.76752935 42.7364538,3.67528304 42.9238298,3.68890362 L46.4344362,3.68890362 C46.6966163,3.70796179 46.8995917,3.92622724 46.8995917,4.18909904 C46.8995917,4.45197085 46.6966163,4.6702363 46.4344362,4.68929447 M38.0089808,4.68929447 L34.4983744,4.68929447 C34.2361944,4.6702363 34.033219,4.45197085 34.033219,4.18909904 C34.033219,3.92622724 34.2361944,3.70796179 34.4983744,3.68890362 L38.0089808,3.68890362 C38.2711609,3.70796179 38.4741362,3.92622724 38.4741362,4.18909904 C38.4741362,4.45197085 38.2711609,4.6702363 38.0089808,4.68929447 M29.5835254,4.68929447 L26.072919,4.68929447 C25.810739,4.6702363 25.6077636,4.45197085 25.6077636,4.18909904 C25.6077636,3.92622724 25.810739,3.70796179 26.072919,3.68890362 L29.5835254,3.68890362 C29.7709014,3.67528304 29.9501757,3.76752935 30.0480184,3.92791043 C30.1458611,4.08829151 30.1458611,4.28990658 30.0480184,4.45028766 C29.9501757,4.61066874 29.7709014,4.70291505 29.5835254,4.68929447 M21.15807,4.68929447 L17.6501032,4.68929447 C17.4627272,4.70291505 17.2834529,4.61066874 17.1856102,4.45028766 C17.0877675,4.28990658 17.0877675,4.08829151 17.1856102,3.92791043 C17.2834529,3.76752935 17.4627272,3.67528304 17.6501032,3.68890362 L21.15807,3.68890362 C21.345446,3.67528304 21.5247203,3.76752935 21.622563,3.92791043 C21.7204057,4.08829151 21.7204057,4.28990658 21.622563,4.45028766 C21.5247203,4.61066874 21.345446,4.70291505 21.15807,4.68929447" id="Shape" fill="#1D1D1B"></path>
                <path d="M78.2885703,6.35485285 C78.0130489,6.35485285 77.7896946,6.13149862 77.7896946,5.8559772 L77.7896946,4.68929447 L76.6230119,4.68929447 C76.4356359,4.70291505 76.2563616,4.61066874 76.1585189,4.45028766 C76.0606762,4.28990658 76.0606762,4.08829151 76.1585189,3.92791043 C76.2563616,3.76752935 76.4356359,3.67528304 76.6230119,3.68890362 L78.2885703,3.68890362 C78.5640917,3.68890362 78.7874459,3.91225785 78.7874459,4.18777927 L78.7874459,5.8559772 C78.7874459,6.13149862 78.5640917,6.35485285 78.2885703,6.35485285" id="Path" fill="#1D1D1B"></path>
                <path d="M78.2885703,15.8150133 C78.1553405,15.8150133 78.0276429,15.7617368 77.9339323,15.6670345 C77.8402217,15.5723323 77.7882848,15.4440809 77.7896946,15.3108586 L77.7896946,11.3726444 C77.7896946,11.097123 78.0130489,10.8737688 78.2885703,10.8737688 C78.5640917,10.8737688 78.7874459,11.097123 78.7874459,11.3726444 L78.7874459,15.3108586 C78.7874459,15.58638 78.5640917,15.8097342 78.2885703,15.8097342" id="Path" fill="#1D1D1B"></path>
                <path d="M15.8156133,40.5053986 L15.8156133,10.4725566 L22.3405901,10.4725566 C24.564854,10.4725566 26.3245565,10.8121792 27.6196975,11.4914244 C28.8879109,12.1385446 29.8762607,13.2263865 30.3991475,14.5506671 C30.9552135,15.9109171 31.2341263,17.6046307 31.235886,19.631808 L31.235886,30.6783402 C31.235886,32.8058205 30.9569732,34.5980774 30.3991475,36.0551111 C29.9059974,37.4394816 28.9504044,38.6113649 27.693605,39.3730301 C26.4459759,40.1279424 24.7742586,40.5053986 22.678453,40.5053986 L15.8156133,40.5053986 Z M20.0045851,37.5015865 L22.3801834,37.5015865 C23.9146439,37.5015865 25.0030199,37.2050766 25.6453113,36.6120569 C26.2876027,36.0190372 26.676497,35.1532636 26.811994,34.0147361 C26.9590511,32.6481159 27.026913,31.2741318 27.0152397,29.8996718 L27.0152397,20.1491605 C27.0389842,18.8816363 26.9390885,17.6148165 26.7169701,16.36668 C26.5198834,15.4041228 26.0869966,14.7002418 25.4183097,14.2550371 C24.7496228,13.8098323 23.6990804,13.58723 22.2666826,13.58723 L20.0045851,13.58723 L20.0045851,37.5015865 Z" id="Shape" fill="#1D1D1B"></path>
                <path d="M35.5779519,40.5053986 L35.5779519,10.4725566 L42.4724661,10.4725566 C43.6684957,10.4508588 44.86144,10.601088 46.0147472,10.9186412 C46.9438402,11.1749464 47.8005355,11.6439599 48.5170441,12.2885696 C49.2018932,12.9359621 49.7121473,13.7458316 50.0004733,14.6430515 C50.3398971,15.7282499 50.5021121,16.8610807 50.4808721,17.9979242 C50.5038587,19.0850442 50.3478,20.168538 50.0189502,21.204982 C49.7585872,22.0341 49.2701232,22.7731991 48.6094285,23.3377413 C47.9099062,23.8856474 47.0737459,24.2316132 46.1915973,24.3381322 C47.2698872,24.5473906 48.2777584,25.0259024 49.1215019,25.729177 C49.8800257,26.412736 50.4484162,27.2812367 50.771223,28.2499508 C51.1508903,29.4439469 51.3292955,30.6927829 51.2991337,31.945326 C51.3116613,33.133725 51.1624788,34.3183055 50.8556887,35.4664906 C50.5947821,36.4597558 50.1200325,37.3840313 49.4646439,38.1746727 C48.8100462,38.9329122 47.9838223,39.5238478 47.0547314,39.8983013 C45.9512264,40.3291658 44.7733364,40.5372926 43.5889974,40.5106777 L35.5779519,40.5053986 Z M39.7669236,23.0051576 L42.2507436,23.0051576 C43.4385428,23.0051576 44.365906,22.8379858 45.0328332,22.5036424 C45.6964523,22.1730421 46.2022494,21.5932259 46.4397153,20.8908751 C46.7422288,19.9538094 46.8806397,18.9715386 46.8488462,17.987366 C46.8488462,16.6042399 46.6385617,15.603849 46.2179928,14.9861934 C45.7540207,14.3407796 45.0426812,13.9172266 44.2541649,13.8168712 C43.1009172,13.6369877 41.9343348,13.5566251 40.7673145,13.5766718 L39.7669236,13.5766718 L39.7669236,23.0051576 Z M39.7669236,37.5015865 L42.5833274,37.5015865 C44.4626896,37.5015865 45.7173575,37.0616609 46.347331,36.1818096 C46.9773045,35.3019584 47.2922912,33.8880375 47.2922912,31.9400469 C47.3221008,30.8625369 47.1529818,29.7887657 46.7934155,28.7725824 C46.5002094,27.9687527 45.9415228,27.2890174 45.2096833,26.8457082 C44.4776471,26.4128214 43.4948533,26.196378 42.2613018,26.196378 L39.7774818,26.196378 L39.7669236,37.5015865 Z" id="Shape" fill="#1D1D1B"></path>
                <path d="M62.0869897,40.8379824 C60.3554424,40.8379824 58.915126,40.467565 57.7660403,39.7267303 C56.6126531,38.9785592 55.7040862,37.9084692 55.1528821,36.6490106 C54.5260125,35.2062701 54.1724793,33.6596743 54.1102584,32.0878619 L57.8056336,31.087471 C57.8765737,32.1267595 58.0444754,33.1571452 58.3071488,34.1651906 C58.5227498,35.0689293 58.9620574,35.9039768 59.5846928,36.59358 C60.1794722,37.2253132 61.0082921,37.5402999 62.0711524,37.5385402 C63.1340126,37.5367805 63.9557937,37.2341117 64.5364955,36.6305338 C65.0934413,36.026076 65.3705945,35.1523837 65.3705945,34.0173756 C65.3705945,32.6571256 65.0617667,31.5625907 64.4441111,30.7337708 C63.7488949,29.8254997 62.9665013,28.9874103 62.1081061,28.2314739 L57.0797563,23.7838259 C56.1599974,23.0039452 55.4175379,22.036498 54.9021245,20.9463057 C54.3968793,19.7490761 54.1538711,18.4575326 54.189445,17.1585461 C54.189445,14.9589181 54.8194185,13.2537664 56.0793655,12.0430911 C57.3393124,10.8324158 59.0585417,10.2226789 61.2370534,10.2138804 C62.2988652,10.1945519 63.3565859,10.3506237 64.3675641,10.6758023 C65.227708,10.9582104 66.0047614,11.4487423 66.6296616,12.1038008 C67.2718101,12.8065741 67.7639853,13.6328536 68.076137,14.5321902 C68.4629427,15.6403682 68.7060053,16.7935847 68.7993747,17.96361 L65.2359772,18.9270471 C65.1746614,18.0061894 65.0261821,17.0932186 64.7925322,16.2003881 C64.6056011,15.4345512 64.2002949,14.7394786 63.6258495,14.1996064 C63.0680238,13.6928121 62.2708786,13.439415 61.2344138,13.439415 C60.1979491,13.439415 59.3884859,13.717448 58.8060244,14.2735139 C58.2235629,14.8295799 57.9323322,15.651361 57.9323322,16.7388571 C57.9030415,17.5209742 58.0623803,18.2986562 58.3968936,19.0062337 C58.7849346,19.6964932 59.2936219,20.3115668 59.8987997,20.8222467 L64.977301,25.2725342 C66.1472795,26.2981903 67.1594584,27.4909248 67.9811131,28.8121757 C68.8726639,30.2790557 69.3234728,31.9714215 69.2797735,33.6874314 C69.317898,35.023404 69.0018987,36.3456835 68.3638484,37.5200634 C67.7732253,38.569782 66.8912994,39.4260386 65.8245977,39.9854065 C64.672103,40.571479 63.3928713,40.8643152 62.1001874,40.8379824" id="Path" fill="#1D1D1B"></path>
                <path d="M95.0470967,40.8379824 C93.3155495,40.8379824 91.875233,40.467565 90.7261473,39.7267303 C89.5727602,38.9785592 88.6641932,37.9084692 88.1129891,36.6490106 C87.488248,35.2056952 87.135664,33.6593372 87.073005,32.0878619 L90.7815779,31.087471 C90.8525181,32.1267595 91.0204197,33.1571452 91.2830931,34.1651906 C91.4986941,35.0689293 91.9380017,35.9039768 92.5606371,36.59358 C93.1554166,37.2253132 93.9842364,37.5402999 95.0470967,37.5385402 C96.109957,37.5367805 96.931738,37.2341117 97.5124399,36.6305338 C98.0667461,36.026076 98.3465388,35.1523837 98.3465388,34.0173756 C98.3465388,32.6580055 98.0350715,31.5625907 97.4200555,30.7337708 C96.7241357,29.8260951 95.9418033,28.9880713 95.0840505,28.2314739 L90.0398633,23.7838259 C89.1172866,23.0040649 88.3713458,22.0367715 87.8516733,20.9463057 C87.3501221,19.7482582 87.1107227,18.4567617 87.149552,17.1585461 C87.149552,14.9589181 87.7795255,13.2537664 89.0394725,12.0430911 C90.2994195,10.8324158 92.0168891,10.2270781 94.1918813,10.2270781 C95.255407,10.2079877 96.3148253,10.3640468 97.3276711,10.689 C98.186401,10.9727856 98.9622825,11.4631499 99.5871291,12.1169986 C100.229278,12.8197719 100.721453,13.6460514 101.033604,14.545388 C101.42041,15.653566 101.663473,16.8067825 101.756842,17.9768078 L98.1908052,18.9270471 C98.1260544,18.0064027 97.9767301,17.0936689 97.7447206,16.2003881 C97.556912,15.4343021 97.1506913,14.7392339 96.5753983,14.1996064 C96.021092,13.6928121 95.2239468,13.439415 94.1839626,13.439415 C93.1439785,13.439415 92.3345154,13.717448 91.7555732,14.2735139 C91.1748714,14.8295799 90.8845205,15.651361 90.8845205,16.7388571 C90.8576983,17.5216209 91.0197597,18.2993341 91.3570006,19.0062337 C91.7441849,19.6970809 92.2529909,20.3122981 92.8589067,20.8222467 L97.9268498,25.2672551 C99.0968283,26.2929112 100.109007,27.4856457 100.930662,28.8068966 C101.822213,30.2737766 102.273022,31.9661423 102.229322,33.6821523 C102.264345,35.0210982 101.943746,36.3453928 101.300199,37.5200634 C100.708854,38.5692255 99.8271154,39.4253003 98.7609488,39.9854065 C97.6084541,40.571479 96.3292223,40.8643152 95.0365385,40.8379824" id="Path" fill="#1D1D1B"></path>
                <path d="M111.063909,40.8010358 C109.480176,40.8010358 108.231667,40.4798829 107.318382,39.8375915 C106.380766,39.165708 105.69501,38.1993312 105.370391,37.0924557 C104.960831,35.73468 104.764922,34.3214689 104.789689,32.903484 L104.789689,26.6741372 C104.762741,25.2565886 104.955968,23.8434454 105.362473,22.4851655 C105.687803,21.3793473 106.37347,20.4140244 107.310463,19.7426692 C108.223749,19.0986181 109.472258,18.7774724 111.05599,18.7792249 C112.639722,18.7809918 113.881192,19.1021375 114.7804,19.7426692 C115.707342,20.4200867 116.385431,21.3838816 116.709914,22.4851655 C117.116418,23.8434454 117.309646,25.2565886 117.282697,26.6741372 L117.282697,32.903484 C117.310031,34.321055 117.116795,35.7342574 116.709914,37.0924557 C116.386309,38.1948791 115.708098,39.1597755 114.7804,39.8375915 C113.877673,40.4816426 112.636203,40.8027883 111.05599,40.8010358 M111.05599,37.871124 C111.82146,37.871124 112.35817,37.6494015 112.666118,37.2059565 C113.004369,36.6777831 113.196546,36.0693748 113.223063,35.4427346 C113.286413,34.7142178 113.315448,33.9540263 113.315448,33.1621602 L113.315448,26.4524147 C113.315448,25.6367926 113.286413,24.8686825 113.223063,24.1533634 C113.192428,23.5282789 113.000561,22.9217586 112.666118,22.3927811 C112.35817,21.9352585 111.82146,21.7064972 111.05599,21.7064972 C110.290519,21.7064972 109.745891,21.9352585 109.422106,22.3927811 C109.078823,22.9186524 108.881174,23.5261718 108.849323,24.1533634 C108.785974,24.871322 108.756939,25.6367926 108.756939,26.4524147 L108.756939,33.1621602 C108.756939,33.9540263 108.785974,34.7142178 108.849323,35.4427346 C108.876855,36.0715364 109.074846,36.6810183 109.422106,37.2059565 C109.744132,37.6494015 110.28876,37.871124 111.05599,37.871124" id="Shape" fill="#1D1D1B"></path>
                <path d="M121.553495,40.5053986 L121.553495,22.0047667 L118.995767,22.0047667 L118.995767,19.0748621 L121.553495,19.0748621 L121.553495,17.9504123 C121.535736,16.7985572 121.641929,15.6481333 121.870241,14.5189924 C122.031835,13.6491682 122.500128,12.8661829 123.190018,12.3123256 C123.858705,11.794973 124.859976,11.5354169 126.19383,11.5336572 C126.687427,11.5336572 127.128232,11.5547736 127.513607,11.5917274 C127.942793,11.6365112 128.369257,11.7043578 128.791151,11.794973 L128.791151,14.6984821 C128.569429,14.6509701 128.321311,14.6060977 128.052076,14.569144 C127.806343,14.5342228 127.558556,14.5157049 127.310362,14.5137133 C126.541372,14.5137133 126.053054,14.7671105 125.845409,15.2739048 C125.61084,15.9212444 125.503295,16.6077421 125.528663,17.2958029 L125.528663,19.0748621 L128.783233,19.0748621 L128.783233,22.0047667 L125.520744,22.0047667 L125.520744,40.5053986 L121.553495,40.5053986 Z" id="Path" fill="#1D1D1B"></path>
                <path d="M137.385538,40.8010286 C136.273406,40.8010286 135.377718,40.5907442 134.698472,40.1701753 C134.022561,39.7555522 133.501415,39.1305477 133.215043,38.3911161 C132.88838,37.5273343 132.730669,36.6088479 132.750482,35.6855735 L132.750482,21.6959389 L130.491024,21.6959389 L130.491024,19.0563852 L132.750482,19.0563852 L132.750482,12.8085616 L136.709812,12.8085616 L136.709812,19.0748621 L140.159709,19.0748621 L140.159709,21.7144158 L136.728289,21.7144158 L136.728289,35.4400951 C136.728289,36.2812328 136.864666,36.8812914 137.13742,37.2402707 C137.401375,37.59925 137.929286,37.7681814 138.694757,37.7681814 C138.923993,37.7673863 139.153044,37.7550528 139.381041,37.7312277 L140.141232,37.6573202 L140.141232,40.5872248 C139.644996,40.6611323 139.188353,40.7165629 138.768664,40.7535167 C138.348975,40.7904704 137.889693,40.8089473 137.396096,40.8089473" id="Path" fill="#1D1D1B"></path>
                <path d="M147.363051,46.3124167 L145.702772,46.3124167 C145.515396,46.3260373 145.336121,46.233791 145.238279,46.0734099 C145.140436,45.9130288 145.140436,45.7114138 145.238279,45.5510327 C145.336121,45.3906516 145.515396,45.2984053 145.702772,45.3120259 L147.36833,45.3120259 C147.63051,45.3310841 147.833486,45.5493495 147.833486,45.8122213 C147.833486,46.0750931 147.63051,46.2933586 147.36833,46.3124167" id="Path" fill="#1D1D1B"></path>
                <path d="M141.228728,46.3124167 L138.048066,46.3124167 C137.86069,46.3260373 137.681416,46.233791 137.583573,46.0734099 C137.48573,45.9130288 137.48573,45.7114138 137.583573,45.5510327 C137.681416,45.3906516 137.86069,45.2984053 138.048066,45.3120259 L141.239286,45.3120259 C141.501466,45.3310841 141.704442,45.5493495 141.704442,45.8122213 C141.704442,46.0750931 141.501466,46.2933586 141.239286,46.3124167 M133.584581,46.3124167 L130.377523,46.3124167 C130.115343,46.2933586 129.912368,46.0750931 129.912368,45.8122213 C129.912368,45.5493495 130.115343,45.3310841 130.377523,45.3120259 L133.560825,45.3120259 C133.748201,45.2984053 133.927475,45.3906516 134.025318,45.5510327 C134.12316,45.7114138 134.12316,45.9130288 134.025318,46.0734099 C133.927475,46.233791 133.748201,46.3260373 133.560825,46.3124167 M125.906119,46.3124167 L122.712259,46.3124167 C122.450079,46.2933586 122.247104,46.0750931 122.247104,45.8122213 C122.247104,45.5493495 122.450079,45.3310841 122.712259,45.3120259 L125.906119,45.3120259 C126.168299,45.3310841 126.371274,45.5493495 126.371274,45.8122213 C126.371274,46.0750931 126.168299,46.2933586 125.906119,46.3124167 M118.251413,46.3124167 L115.060193,46.3124167 C114.872817,46.3260373 114.693543,46.233791 114.5957,46.0734099 C114.497857,45.9130288 114.497857,45.7114138 114.5957,45.5510327 C114.693543,45.3906516 114.872817,45.2984053 115.060193,45.3120259 L118.251413,45.3120259 C118.513593,45.3310841 118.716569,45.5493495 118.716569,45.8122213 C118.716569,46.0750931 118.513593,46.2933586 118.251413,46.3124167 M110.596708,46.3124167 L107.400208,46.3124167 C107.138028,46.2933586 106.935053,46.0750931 106.935053,45.8122213 C106.935053,45.5493495 107.138028,45.3310841 107.400208,45.3120259 L110.596708,45.3120259 C110.784084,45.2984053 110.963358,45.3906516 111.0612,45.5510327 C111.159043,45.7114138 111.159043,45.9130288 111.0612,46.0734099 C110.963358,46.233791 110.784084,46.3260373 110.596708,46.3124167 M102.942002,46.3124167 L99.7402232,46.3124167 C99.4780431,46.2933586 99.2750678,46.0750931 99.2750678,45.8122213 C99.2750678,45.5493495 99.4780431,45.3310841 99.7402232,45.3120259 L102.942002,45.3120259 C103.129378,45.2984053 103.308652,45.3906516 103.406495,45.5510327 C103.504337,45.7114138 103.504337,45.9130288 103.406495,46.0734099 C103.308652,46.233791 103.129378,46.3260373 102.942002,46.3124167 M95.2872961,46.3124167 L92.0828779,46.3124167 C91.8955019,46.3260373 91.7162277,46.233791 91.6183849,46.0734099 C91.5205422,45.9130288 91.5205422,45.7114138 91.6183849,45.5510327 C91.7162277,45.3906516 91.8955019,45.2984053 92.0828779,45.3120259 L95.2872961,45.3120259 C95.5494761,45.3310841 95.7524515,45.5493495 95.7524515,45.8122213 C95.7524515,46.0750931 95.5494761,46.2933586 95.2872961,46.3124167 M87.6325904,46.3124167 L84.4228931,46.3124167 C84.160713,46.2933586 83.9577377,46.0750931 83.9577377,45.8122213 C83.9577377,45.5493495 84.160713,45.3310841 84.4228931,45.3120259 L87.6141135,45.3120259 C87.8762935,45.3310841 88.0792689,45.5493495 88.0792689,45.8122213 C88.0792689,46.0750931 87.8762935,46.2933586 87.6141135,46.3124167" id="Shape" fill="#1D1D1B"></path>
                <path d="M79.9541287,46.3124167 L78.2885703,46.3124167 C78.0130489,46.3124167 77.7896946,46.0890625 77.7896946,45.8135411 L77.7896946,44.1453432 C77.7896946,43.8698217 78.0130489,43.6464675 78.2885703,43.6464675 C78.5640917,43.6464675 78.7874459,43.8698217 78.7874459,44.1453432 L78.7874459,45.3120259 L79.9541287,45.3120259 C80.1415047,45.2984053 80.3207789,45.3906516 80.4186216,45.5510327 C80.5164643,45.7114138 80.5164643,45.9130288 80.4186216,46.0734099 C80.3207789,46.233791 80.1415047,46.3260373 79.9541287,46.3124167" id="Path" fill="#1D1D1B"></path>
                <path d="M78.2885703,40.006523 C78.1558016,40.006523 78.028509,39.9536027 77.9348754,39.8594737 C77.8412418,39.7653447 77.7889921,39.6377745 77.7896876,39.5050078 L77.7896876,36.1897283 C77.7896876,35.9142069 78.0130489,35.6908527 78.2885703,35.6908527 C78.5640917,35.6908527 78.7874529,35.9142069 78.7874529,36.1897283 L78.7874529,39.5050078 C78.7881484,39.6377745 78.7358987,39.7653447 78.6422651,39.8594737 C78.5486316,39.9536027 78.4213389,40.006523 78.2885703,40.006523" id="Path" fill="#1D1D1B"></path>
                <path d="M1.26903291,1.27107243 C2.50732866,0.0309357145 4.37089191,-0.340829439 5.99025537,0.329228361 C7.60961882,0.999286161 8.66565315,2.57911805 8.66565315,4.33163494 C8.66565315,6.08415183 7.60961882,7.66398373 5.99025537,8.33404153 C4.37089191,9.00409933 2.50732866,8.63233417 1.26903291,7.39219746 C0.456495171,6.57985266 -2.81327356e-15,5.47796086 -2.81327356e-15,4.32899539 C-2.81327356e-15,3.18002992 0.456495171,2.07813812 1.26903291,1.26579332" id="Path" fill="#009A3F"></path>
                <path d="M157.103004,48.7302479 C155.863487,49.9699127 153.999253,50.3408188 152.37963,49.6700055 C150.760006,48.9991922 149.703969,47.4187721 149.703969,45.6657261 C149.703969,43.9126801 150.760006,42.33226 152.37963,41.6614467 C153.999253,40.9906334 155.863487,41.3615395 157.103004,42.6012042 C157.91635,43.413656 158.373358,44.5161136 158.373358,45.6657261 C158.373358,46.8153386 157.91635,47.9177962 157.103004,48.7302479" id="Path" fill="#D51130"></path>
                <path d="M77.7844155,32.7952622 L71.2145664,26.2227735 C70.935051,25.9416917 70.935051,25.4876272 71.2145664,25.2065454 L77.7844155,18.6340567 C78.0664003,18.3542346 78.5212985,18.3542346 78.8032832,18.6340567 L85.3731324,25.2065454 C85.6526478,25.4876272 85.6526478,25.9416917 85.3731324,26.2227735 L78.8032832,32.7952622 C78.5212985,33.0750843 78.0664003,33.0750843 77.7844155,32.7952622" id="Path" fill="#FFD00A"></path>
            </g>
        </g>
    </g>
</svg>