<?xml version="1.0" encoding="UTF-8"?>
<svg width="124px" height="84px" viewBox="0 0 124 84" version="1.1" xmlns="http://www.w3.org/2000/svg" xmlns:xlink="http://www.w3.org/1999/xlink">
    <title>icon__speed</title>
    <g id="Page-4" stroke="none" stroke-width="1" fill="none" fill-rule="evenodd">
        <g id="Card__new-Copy" transform="translate(-1668.000000, -58.000000)" fill-rule="nonzero">
            <g id="icon__speed" transform="translate(1669.000000, 59.000000)">
                <path d="M23.6375,48.41875 L15.63125,40.4125 C21.4770833,34.7361111 28.4878472,30.4152778 36.6635417,27.45 C44.8392361,24.4847222 54.1375,23.3409722 64.5583333,24.01875 L59.6020833,34.3125 C53.0784722,34.1430556 46.5336806,35.3715278 39.9677083,37.9979167 C33.4017361,40.6243056 27.9583333,44.0979167 23.6375,48.41875 Z" id="Path" stroke="#FDFDFD"></path>
                <path d="M56.425,80.825 C54.1375,79.8930556 52.4642361,78.15625 51.4052083,75.6145833 C50.3461806,73.0729167 50.4097222,70.5736111 51.5958333,68.1166667 L81.7145833,5.84583333 C81.96875,5.25277778 82.4135417,4.82916667 83.0489583,4.575 C83.684375,4.32083333 84.3409722,4.27847222 85.01875,4.44791667 C85.6965278,4.61736111 86.2472222,4.99861111 86.6708333,5.59166667 C87.0944444,6.18472222 87.2215278,6.82013889 87.0520833,7.49791667 L69.5145833,75.4875 C68.8368056,78.1986111 67.1,79.9989583 64.3041667,80.8885417 C61.5083333,81.778125 58.8819444,81.7569444 56.425,80.825 L56.425,80.825 Z" id="Path" stroke="#D51130"></path>
                <path d="M98.3625,48.41875 C97.0069444,46.9784722 95.121875,45.4111111 92.7072917,43.7166667 C90.2927083,42.0222222 88.2381944,40.79375 86.54375,40.03125 L89.2125,29.1020833 C92.1777778,30.11875 95.2701389,31.7496528 98.4895833,33.9947917 C101.709028,36.2399306 104.335417,38.3791667 106.36875,40.4125 L98.3625,48.41875 Z" id="Path" stroke="#FDFDFD"></path>
                <path d="M8.00625,33.4229167 L0,25.4166667 C7.87916667,17.3680556 17.1138889,11.1197917 27.7041667,6.671875 C38.2944444,2.22395833 49.3930556,0 61,0 C63.0333333,0 65.3208333,0.0635416667 67.8625,0.190625 C70.4041667,0.317708333 73.0305556,0.550694444 75.7416667,0.889583333 L70.4041667,11.81875 C68.8791667,11.6493056 67.3541667,11.5434028 65.8291667,11.5010417 C64.3041667,11.4586806 62.6944444,11.4375 61,11.4375 C50.9180556,11.4375 41.365625,13.3861111 32.3427083,17.2833333 C23.3197917,21.1805556 15.2076389,26.5604167 8.00625,33.4229167 Z" id="Path" stroke="#00B948"></path>
                <path d="M113.99375,33.4229167 C110.689583,30.2034722 107.088889,27.2805556 103.191667,24.6541667 C99.2944444,22.0277778 95.5666667,19.9097222 92.0083333,18.3 L94.8041667,6.8625 C100.311111,9.15 105.225,11.8399306 109.545833,14.9322917 C113.866667,18.0246528 118.018056,21.5194444 122,25.4166667 L113.99375,33.4229167 Z" id="Path" stroke="#00B948"></path>
            </g>
        </g>
    </g>
</svg>